<?xml version="1.0" standalone="no"?><!DOCTYPE svg PUBLIC "-//W3C//DTD SVG 1.1//EN" "http://www.w3.org/Graphics/SVG/1.1/DTD/svg11.dtd" ><svg xmlns="http://www.w3.org/2000/svg"><metadata></metadata><defs><font id="Segoe UI Regular" horiz-adv-x="3108"><font-face font-family="Segoe UI" font-weight="400" font-stretch="normal" units-per-em="2048" panose-1="2 11 5 2 4 2 4 2 2 3" ascent="2210" descent="-514" x-height="3" bbox="-884 -514 3038 2149" underline-thickness="119" underline-position="-178" unicode-range="U+000d-fffd" /><missing-glyph horiz-adv-x="1322" d="M166 0 l0 1398 l990 0 l0 -1398 l-990 0 ZM314 148 l694 0 l0 1102 l-694 0 l0 -1102 Z" /><glyph glyph-name="nonmarkingreturn" unicode="" d="" /><glyph glyph-name="space" unicode=" " d="" /><glyph glyph-name="exclam" unicode="!" d="M375 1434 l-19 -1030 l-135 0 l-18 1030 l172 0 ZM291 -18 q-46 0 -78.5 32 q-32.5 32 -32.5 78 q0 46 32.5 78.5 q32.5 32.5 78.5 32.5 q45 0 78 -32.5 q33 -32.5 33 -78.5 q0 -46 -33 -78 q-33 -32 -78 -32 Z" /><glyph glyph-name="quotedbl" unicode="&quot;" d="M323 1434 l-30 -447 l-115 0 l-30 447 l175 0 ZM655 1434 l-30 -447 l-115 0 l-30 447 l175 0 Z" /><glyph glyph-name="numbersign" unicode="#" d="M1166 1032 l-23 -106 l-261 0 l-63 -300 l281 0 l-27 -106 l-275 0 l-88 -397 l-126 0 l86 397 l-250 0 l-84 -397 l-125 0 l84 397 l-262 0 l20 106 l265 0 l61 300 l-277 0 l21 106 l277 0 l84 402 l126 0 l-84 -402 l252 0 l86 402 l123 0 l-84 -402 l263 0 ZM758 926 l-252 0 l-66 -300 l254 0 l64 300 Z" /><glyph glyph-name="dollar" unicode="$" d="M616 8 l0 -217 l-104 0 l0 209 q-213 0 -346 86 l0 174 q58 -51 158.5 -85.5 q100.5 -34.5 187.5 -34.5 l0 512 q-220 106 -285 195.5 q-65 89.5 -65 211.5 q0 145 99 250.5 q99 105.5 251 126.5 l0 180 l104 0 l0 -176 q196 -6 271 -56 l0 -170 q-102 80 -271 86 l0 -528 q208 -99 284.5 -191.5 q76.5 -92.5 76.5 -210.5 q0 -142 -95.5 -238.5 q-95.5 -96.5 -265.5 -123.5 ZM512 828 l0 466 q-84 -17 -133 -74.5 q-49 -57.5 -49 -139.5 q0 -86 40 -141 q40 -55 142 -111 ZM616 600 l0 -452 q193 42 193 208 q0 138 -193 244 Z" /><glyph glyph-name="percent" unicode="%" d="M404 715 q-148 0 -236 97.5 q-88 97.5 -88 260.5 q0 178 93 280.5 q93 102.5 251 102.5 q153 0 237.5 -95 q84.5 -95 84.5 -267 q0 -172 -94.5 -275.5 q-94.5 -103.5 -247.5 -103.5 ZM418 1346 q-95 0 -150 -70.5 q-55 -70.5 -55 -193.5 q0 -121 54 -188.5 q54 -67.5 147 -67.5 q94 0 147 70 q53 70 53 194 q0 121 -52.5 188.5 q-52.5 67.5 -143.5 67.5 ZM1364 1434 l-920 -1444 l-143 0 l919 1444 l144 0 ZM1258 -22 q-148 0 -236 98 q-88 98 -88 260 q0 178 94 281.5 q94 103.5 250 103.5 q152 0 237 -96 q85 -96 85 -269 q0 -171 -94.5 -274.5 q-94.5 -103.5 -247.5 -103.5 ZM1272 608 q-96 0 -150.5 -70 q-54.5 -70 -54.5 -194 q0 -119 54 -186.5 q54 -67.5 147 -67.5 q94 0 147 70.5 q53 70.5 53 193.5 q0 122 -52.5 188 q-52.5 66 -143.5 66 Z" /><glyph glyph-name="ampersand" unicode="&amp;" d="M1445 -23 q-57 0 -100.5 15.5 q-43.5 15.5 -80.5 44 q-37 28.5 -71.5 69.5 q-34.5 41 -72.5 93 q-40 -43 -92.5 -83 q-52.5 -40 -116.5 -71 q-64 -31 -140 -49.5 q-76 -18.5 -165 -18.5 q-108 0 -198 27 q-90 27 -154 79.5 q-64 52.5 -99.5 129.5 q-35.5 77 -35.5 177 q0 153 87 261.5 q87 108.5 246 177.5 q-30 22 -60 51.5 q-30 29.5 -53.5 67 q-23.5 37.5 -38 83 q-14.5 45.5 -14.5 99.5 q0 79 28.5 140 q28.5 61 78.5 103 q50 42 118 63.5 q68 21.5 147 21.5 q78 0 142.5 -21.5 q64.5 -21.5 111 -61.5 q46.5 -40 72.5 -96 q26 -56 26 -125 q0 -120 -68.5 -199.5 q-68.5 -79.5 -205.5 -135.5 q69 -27 125 -66 q56 -39 103.5 -87 q47.5 -48 88.5 -103 q41 -55 81 -114 q81 113 122 249 q41 136 41 285 q0 38 -4.5 71.5 q-4.5 33.5 -12.5 66.5 l159 0 q8 -33 9.5 -62.5 q1.5 -29.5 3.5 -70.5 q0 -91 -19 -183 q-19 -92 -51 -178.5 q-32 -86.5 -74.5 -164.5 q-42.5 -78 -89.5 -143 q35 -48 64 -83.5 q29 -35.5 58.5 -59.5 q29.5 -24 61 -35.5 q31.5 -11.5 71.5 -11.5 q30 0 61 8 q31 8 64 20 l0 -152 q-36 -14 -75.5 -21 q-39.5 -7 -77.5 -7 ZM606 119 q76 0 140 16.5 q64 16.5 118 44 q54 27.5 98 64 q44 36.5 80 76.5 q-61 95 -112.5 162.5 q-51.5 67.5 -104 116.5 q-52.5 49 -112 84 q-59.5 35 -137.5 65 q-63 -25 -116 -55.5 q-53 -30.5 -91.5 -72 q-38.5 -41.5 -60.5 -96.5 q-22 -55 -22 -129 q0 -68 25 -120 q25 -52 68.5 -86.5 q43.5 -34.5 101.5 -52 q58 -17.5 125 -17.5 ZM856 1140 q0 50 -18.5 85 q-18.5 35 -47 58 q-28.5 23 -63.5 33.5 q-35 10.5 -69 10.5 q-98 0 -156.5 -53 q-58.5 -53 -59.5 -144 q0 -41 12.5 -77 q12.5 -36 35 -67 q22.5 -31 52.5 -55 q30 -24 64 -41 q126 44 188 102.5 q62 58.5 62 147.5 Z" /><glyph glyph-name="quotesingle" unicode="&#39;" d="M323 1434 l-30 -447 l-115 0 l-30 447 l175 0 Z" /><glyph glyph-name="parenleft" unicode="(&#xfd3e;" d="M596 -326 l-146 0 q-310 354 -310 873 q0 521 310 887 l148 0 q-314 -380 -314 -885 q0 -501 312 -875 Z" /><glyph glyph-name="parenright" unicode=")&#xfd3f;" d="M170 -326 l-146 0 q312 374 312 875 q0 505 -314 885 l148 0 q312 -366 312 -887 q0 -519 -312 -873 Z" /><glyph glyph-name="asterisk" unicode="*" d="M780 1104 l-274 -56 l190 -243 l-110 -76 l-156 265 l-158 -265 l-110 76 l190 243 l-276 56 l45 125 l262 -99 l-23 304 l138 0 l-23 -304 l263 99 l42 -125 Z" /><glyph glyph-name="plus" unicode="+" d="M1172 530 l-404 0 l0 -403 l-133 0 l0 403 l-403 0 l0 134 l403 0 l0 403 l133 0 l0 -403 l404 0 l0 -134 Z" /><glyph glyph-name="comma" unicode="," d="M316 228 l-160 -492 l-117 0 l117 492 l160 0 Z" /><glyph glyph-name="hyphen" unicode="-&#x2010;" d="M690 506 l-546 0 l0 129 l546 0 l0 -129 Z" /><glyph glyph-name="period" unicode="." d="M223 -22 q-46 0 -78.5 33 q-32.5 33 -32.5 79 q0 46 32.5 79.5 q32.5 33.5 78.5 33.5 q47 0 80 -33.5 q33 -33.5 33 -79.5 q0 -46 -33 -79 q-33 -33 -80 -33 Z" /><glyph glyph-name="slash" unicode="/" d="M813 1434 l-688 -1672 l-153 0 l686 1672 l155 0 Z" /><glyph glyph-name="zero" unicode="0" d="M538 -24 q-213 0 -332.5 183 q-119.5 183 -119.5 529 q0 380 124.5 575 q124.5 195 359.5 195 q450 0 450 -735 q0 -364 -127 -555.5 q-127 -191.5 -355 -191.5 ZM561 1319 q-307 0 -307 -623 q0 -582 301 -582 q297 0 297 592 q0 613 -291 613 Z" /><glyph glyph-name="one" unicode="1" d="M987 0 l-811 0 l0 144 l324 0 l0 1114 l-332 -99 l0 156 l496 151 l0 -1322 l323 0 l0 -144 Z" /><glyph glyph-name="two" unicode="2" d="M960 0 l-864 0 l0 146 l418 419 q160 160 228.5 266.5 q68.5 106.5 68.5 227.5 q0 124 -71 192 q-71 68 -202 68 q-192 0 -368 -164 l0 172 q168 131 391 131 q192 0 302 -104 q110 -104 110 -279 q0 -138 -76 -269.5 q-76 -131.5 -273 -326.5 l-331 -327 l0 -4 l667 0 l0 -148 Z" /><glyph glyph-name="three" unicode="3" d="M131 53 l0 177 q147 -116 332 -116 q150 0 239.5 75 q89.5 75 89.5 202 q0 281 -399 281 l-119 0 l0 139 l113 0 q355 0 355 264 q0 244 -271 244 q-151 0 -285 -103 l0 160 q138 82 326 82 q181 0 289.5 -96 q108.5 -96 108.5 -246 q0 -283 -288 -364 l0 -4 q155 -15 246.5 -108.5 q91.5 -93.5 91.5 -233.5 q0 -193 -138.5 -311.5 q-138.5 -118.5 -365.5 -118.5 q-204 0 -325 77 Z" /><glyph glyph-name="four" unicode="4" d="M1034 381 l-184 0 l0 -381 l-162 0 l0 381 l-674 0 l0 107 l638 946 l198 0 l0 -920 l184 0 l0 -133 ZM688 514 l0 620 q0 66 4 148 l-4 0 q-14 -36 -55 -110 l-441 -658 l496 0 Z" /><glyph glyph-name="five" unicode="5" d="M164 35 l0 174 q147 -95 299 -95 q152 0 245 86 q93 86 93 228 q0 141 -95 220 q-95 79 -272 79 q-60 0 -225 -12 l0 719 l694 0 l0 -148 l-539 0 l0 -420 q66 4 122 4 q230 0 356 -115.5 q126 -115.5 126 -316.5 q0 -208 -135.5 -335 q-135.5 -127 -371.5 -127 q-199 0 -297 59 Z" /><glyph glyph-name="six" unicode="6" d="M934 1417 l0 -155 q-111 57 -234 57 q-191 0 -305.5 -170 q-114.5 -170 -114.5 -455 l4 0 q100 203 328 203 q188 0 299 -120.5 q111 -120.5 111 -322.5 q0 -211 -127 -344.5 q-127 -133.5 -323 -133.5 q-216 0 -339 172 q-123 172 -123 483 q0 377 161 602 q161 225 425 225 q150 0 238 -41 ZM576 758 q-127 0 -206 -86 q-79 -86 -79 -203 q0 -147 78.5 -251 q78.5 -104 208.5 -104 q124 0 200 90.5 q76 90.5 76 229.5 q0 152 -73 238 q-73 86 -205 86 Z" /><glyph glyph-name="seven" unicode="7" d="M1010 1382 l-568 -1382 l-170 0 l537 1286 l-723 0 l0 148 l924 0 l0 -52 Z" /><glyph glyph-name="eight" unicode="8" d="M410 752 l0 4 q-258 120 -258 348 q0 155 118 254.5 q118 99.5 304 99.5 q168 0 276 -93 q108 -93 108 -239 q0 -238 -266 -370 l0 -4 q314 -112 314 -388 q0 -178 -128 -283 q-128 -105 -356 -105 q-184 0 -303 104 q-119 104 -119 270 q0 276 310 402 ZM790 1106 q0 99 -62 156 q-62 57 -169 57 q-100 0 -169.5 -59.5 q-69.5 -59.5 -69.5 -151.5 q0 -187 233 -282 q237 98 237 280 ZM542 674 q-274 -109 -274 -316 q0 -107 79.5 -175.5 q79.5 -68.5 209.5 -68.5 q124 0 202.5 67.5 q78.5 67.5 78.5 170.5 q0 216 -296 322 Z" /><glyph glyph-name="nine" unicode="9" d="M172 24 l0 158 q120 -68 254 -68 q195 0 303.5 157 q108.5 157 108.5 446 q-2 -1 -4 0 q-92 -185 -320 -185 q-184 0 -302 125 q-118 125 -118 322 q0 210 129.5 344.5 q129.5 134.5 331.5 134.5 q212 0 330.5 -167.5 q118.5 -167.5 118.5 -487.5 q0 -397 -154 -612 q-154 -215 -428 -215 q-144 0 -250 48 ZM540 1319 q-119 0 -198.5 -89.5 q-79.5 -89.5 -79.5 -227.5 q0 -151 78 -237.5 q78 -86.5 211 -86.5 q116 0 196.5 79 q80.5 79 80.5 193 q0 163 -80 266 q-80 103 -208 103 Z" /><glyph glyph-name="colon" unicode=":" d="M223 824 q-46 0 -78.5 33 q-32.5 33 -32.5 79 q0 46 32.5 78 q32.5 32 78.5 32 q47 0 80 -32 q33 -32 33 -78 q0 -46 -33 -79 q-33 -33 -80 -33 ZM223 -22 q-46 0 -78.5 33 q-32.5 33 -32.5 79 q0 46 32.5 79.5 q32.5 33.5 78.5 33.5 q47 0 80 -33.5 q33 -33.5 33 -79.5 q0 -46 -33 -79 q-33 -33 -80 -33 Z" /><glyph glyph-name="semicolon" unicode=";" d="M226 824 q-47 0 -79.5 33 q-32.5 33 -32.5 79 q0 46 32.5 78 q32.5 32 79.5 32 q46 0 79 -32 q33 -32 33 -78 q0 -46 -33 -79 q-33 -33 -79 -33 ZM316 228 l-160 -492 l-117 0 l117 492 l160 0 Z" /><glyph glyph-name="less" unicode="&lt;" d="M1132 127 l-860 432 l0 59 l860 482 l0 -150 l-642 -356 l0 -4 l642 -314 l0 -149 Z" /><glyph glyph-name="equal" unicode="=" d="M1172 744 l-940 0 l0 132 l940 0 l0 -132 ZM1172 318 l-940 0 l0 132 l940 0 l0 -132 Z" /><glyph glyph-name="greater" unicode="&gt;" d="M1132 559 l-860 -432 l0 149 l644 312 l0 6 l-644 356 l0 150 l860 -482 l0 -59 Z" /><glyph glyph-name="question" unicode="?" d="M335 398 q-9 26 -16 67.5 q-7 41.5 -7 82.5 q0 64 25.5 115.5 q25.5 51.5 63.5 96.5 q38 45 83 86.5 q45 41.5 83 84 q38 42.5 63.5 89 q25.5 46.5 25.5 102.5 q0 48 -18.5 85 q-18.5 37 -50.5 62 q-32 25 -74 37.5 q-42 12.5 -89 12.5 q-169 0 -293 -133 l0 176 q153 96 317 96 q76 0 143 -20 q67 -20 117.5 -59.5 q50.5 -39.5 79.5 -98.5 q29 -59 29 -137 q0 -74 -26 -132 q-26 -58 -65.5 -106.5 q-39.5 -48.5 -85.5 -90.5 q-46 -42 -85.5 -83.5 q-39.5 -41.5 -65.5 -86.5 q-26 -45 -26 -99 q0 -46 11 -83.5 q11 -37.5 22 -63.5 l-161 0 ZM425 -18 q-44 0 -78 32 q-33 32 -33 78 q0 47 33 78 q33 33 78 33 q45 0 78 -33 q33 -31 33 -78 q0 -46 -33 -78 q-34 -32 -78 -32 Z" /><glyph glyph-name="at" unicode="@" d="M1164 420 l-5 0 q-73 -238 -287 -238 q-137 0 -220.5 101 q-83.5 101 -83.5 272 q0 226 115.5 375.5 q115.5 149.5 303.5 149.5 q72 0 128.5 -37 q56.5 -37 72.5 -93 l4 0 q2 28 10 115 l125 0 q-47 -551 -47 -561 q0 -207 119 -207 q108 0 179.5 117 q71.5 117 71.5 303 q0 275 -174 449 q-174 174 -482 174 q-297 0 -491 -208 q-194 -208 -194 -520 q0 -307 184.5 -495.5 q184.5 -188.5 497.5 -188.5 q247 0 422 82 l0 -124 q-173 -74 -432 -74 q-364 0 -586.5 219.5 q-222.5 219.5 -222.5 574.5 q0 366 233.5 607 q233.5 241 596.5 241 q340 0 563 -202 q223 -202 223 -527 q0 -238 -117.5 -390.5 q-117.5 -152.5 -286.5 -152.5 q-219 0 -220 238 ZM985 964 q-124 0 -200.5 -118 q-76.5 -118 -76.5 -293 q0 -118 51.5 -186 q51.5 -68 137.5 -68 q124 0 196.5 123.5 q72.5 123.5 72.5 327.5 q0 214 -181 214 Z" /><glyph glyph-name="A" unicode="a" d="M1298 0 l-186 0 l-152 402 l-608 0 l-143 -402 l-187 0 l550 1434 l174 0 l552 -1434 ZM905 553 l-225 611 q-11 30 -22 96 l-4 0 q-10 -61 -23 -96 l-223 -611 l497 0 Z" /><glyph glyph-name="B" unicode="b" d="M188 0 l0 1434 l408 0 q186 0 295 -91 q109 -91 109 -237 q0 -122 -66 -212 q-66 -90 -182 -128 l0 -4 q145 -17 232 -109.5 q87 -92.5 87 -240.5 q0 -184 -132 -298 q-132 -114 -333 -114 l-418 0 ZM356 1282 l0 -463 l172 0 q138 0 217 66.5 q79 66.5 79 187.5 q0 209 -275 209 l-193 0 ZM356 668 l0 -516 l228 0 q148 0 229.5 70 q81.5 70 81.5 192 q0 254 -346 254 l-193 0 Z" /><glyph glyph-name="C" unicode="c" d="M1164 60 q-159 -84 -396 -84 q-306 0 -490 197 q-184 197 -184 517 q0 344 207 556 q207 212 525 212 q204 0 338 -59 l0 -179 q-154 86 -340 86 q-247 0 -400.5 -165 q-153.5 -165 -153.5 -441 q0 -262 143.5 -417.5 q143.5 -155.5 376.5 -155.5 q216 0 374 96 l0 -163 Z" /><glyph glyph-name="D" unicode="d" d="M188 0 l0 1434 l396 0 q758 0 758 -699 q0 -332 -210.5 -533.5 q-210.5 -201.5 -563.5 -201.5 l-380 0 ZM356 1282 l0 -1130 l214 0 q282 0 439 151 q157 151 157 428 q0 551 -586 551 l-224 0 Z" /><glyph glyph-name="E" unicode="e" d="M948 0 l-760 0 l0 1434 l728 0 l0 -152 l-560 0 l0 -477 l518 0 l0 -151 l-518 0 l0 -502 l592 0 l0 -152 Z" /><glyph glyph-name="F" unicode="f" d="M916 1282 l-560 0 l0 -496 l518 0 l0 -151 l-518 0 l0 -635 l-168 0 l0 1434 l728 0 l0 -152 Z" /><glyph glyph-name="G" unicode="g" d="M1260 98 q-216 -122 -480 -122 q-307 0 -496.5 198 q-189.5 198 -189.5 524 q0 333 210.5 546.5 q210.5 213.5 533.5 213.5 q234 0 393 -76 l0 -186 q-174 110 -412 110 q-241 0 -395 -166 q-154 -166 -154 -430 q0 -272 143 -427.5 q143 -155.5 388 -155.5 q168 0 291 67 l0 402 l-314 0 l0 152 l482 0 l0 -650 Z" /><glyph glyph-name="H" unicode="h" d="M1266 0 l-168 0 l0 654 l-742 0 l0 -654 l-168 0 l0 1434 l168 0 l0 -629 l742 0 l0 629 l168 0 l0 -1434 Z" /><glyph glyph-name="I" unicode="i" d="M496 1434 l0 -144 l-140 0 l0 -1146 l140 0 l0 -144 l-448 0 l0 144 l140 0 l0 1146 l-140 0 l0 144 l448 0 Z" /><glyph glyph-name="J" unicode="j" d="M555 514 q0 -255 -108 -396.5 q-108 -141.5 -289 -141.5 q-84 0 -138 24 l0 166 q54 -39 140 -39 q227 0 227 385 l0 922 l168 0 l0 -920 Z" /><glyph glyph-name="K" unicode="k" d="M1186 0 l-234 0 l-554 656 q-31 37 -38 50 l-4 0 l0 -706 l-168 0 l0 1434 l168 0 l0 -674 l4 0 q14 22 38 49 l536 625 l209 0 l-615 -688 l658 -746 Z" /><glyph glyph-name="L" unicode="l" d="M932 0 l-744 0 l0 1434 l168 0 l0 -1282 l576 0 l0 -152 Z" /><glyph glyph-name="M" unicode="m" d="M1650 0 l-167 0 l0 962 q0 114 14 279 l-4 0 q-24 -97 -43 -139 l-490 -1102 l-82 0 l-489 1094 q-21 48 -43 147 l-4 0 q8 -86 8 -281 l0 -960 l-162 0 l0 1434 l222 0 l440 -1000 q51 -115 66 -172 l6 0 q43 118 69 176 l449 996 l210 0 l0 -1434 Z" /><glyph glyph-name="N" unicode="n" d="M1344 0 l-206 0 l-738 1143 q-28 43 -46 90 l-6 0 q8 -46 8 -197 l0 -1036 l-168 0 l0 1434 l218 0 l718 -1125 q45 -70 58 -96 l4 0 q-10 62 -10 211 l0 1010 l168 0 l0 -1434 Z" /><glyph glyph-name="O" unicode="o" d="M766 -24 q-305 0 -488.5 201 q-183.5 201 -183.5 523 q0 346 187 552 q187 206 509 206 q297 0 478.5 -200 q181.5 -200 181.5 -523 q0 -351 -186 -555 q-186 -204 -498 -204 ZM778 1306 q-226 0 -367 -163 q-141 -163 -141 -428 q0 -265 137.5 -426.5 q137.5 -161.5 358.5 -161.5 q236 0 372 154 q136 154 136 431 q0 284 -132 439 q-132 155 -364 155 Z" /><glyph glyph-name="P" unicode="p" d="M356 542 l0 -542 l-168 0 l0 1434 l394 0 q230 0 356.5 -112 q126.5 -112 126.5 -316 q0 -204 -140.5 -334 q-140.5 -130 -379.5 -130 l-189 0 ZM356 1282 l0 -588 l176 0 q174 0 265.5 79.5 q91.5 79.5 91.5 224.5 q0 284 -336 284 l-197 0 Z" /><glyph glyph-name="Q" unicode="q" d="M756 -24 q-64 0 -130 12.5 q-66 12.5 -128 38 q-62 25.5 -118.5 63 q-56.5 37.5 -102.5 87.5 q-183 200 -183 523 q0 347 186 552 q188 206 514 206 q292 0 474 -200 q182 -200 182 -523 q0 -136 -30.5 -256.5 q-30.5 -120.5 -92.5 -217.5 q-62 -97 -156 -164.5 q-94 -67.5 -222 -96.5 q52 -56 97.5 -99 q45.5 -43 91 -72.5 q45.5 -29.5 94.5 -44.5 q49 -15 108 -15 q16 0 35 1.5 q19 1.5 38.5 5 q19.5 3.5 37.5 8 q18 4.5 33 10.5 l0 -162 q-16 -5 -36 -8.5 q-20 -3.5 -40.5 -6 q-20.5 -2.5 -40.5 -4 q-20 -1.5 -37 -1.5 q-96 0 -172.5 28.5 q-76.5 28.5 -143 78 q-66.5 49.5 -128.5 115.5 q-62 66 -130 142 ZM778 1306 q-226 0 -367 -163 q-141 -163 -141 -428 q0 -264 137 -427 q138 -161 359 -161 q236 0 372 154 q136 154 136 431 q0 285 -132 439 q-132 155 -364 155 Z" /><glyph glyph-name="R" unicode="r" d="M1216 0 l-200 0 l-240 402 q-33 56 -64 95.5 q-31 39.5 -63.5 64.5 q-32.5 25 -70 36.5 q-37.5 11.5 -84.5 11.5 l-138 0 l0 -610 l-168 0 l0 1434 l428 0 q94 0 173.5 -23.5 q79.5 -23.5 138 -71.5 q58.5 -48 91.5 -119.5 q33 -71.5 33 -167.5 q0 -75 -22.5 -137.5 q-22.5 -62.5 -64 -111.5 q-41.5 -49 -100 -83.5 q-58.5 -34.5 -131.5 -53.5 l0 -4 q36 -16 62.5 -36.5 q26.5 -20.5 50.5 -48.5 q24 -28 47.5 -63.5 q23.5 -35.5 52.5 -82.5 l269 -431 ZM356 1282 l0 -520 l228 0 q63 0 116.5 19 q53.5 19 92.5 54.5 q39 35.5 61 87 q22 51.5 22 115.5 q0 115 -74.5 179.5 q-74.5 64.5 -215.5 64.5 l-230 0 Z" /><glyph glyph-name="S" unicode="s" d="M121 58 l0 198 q34 -30 81.5 -54 q47.5 -24 100 -40.5 q52.5 -16.5 105.5 -25.5 q53 -9 98 -9 q155 0 231.5 57.5 q76.5 57.5 76.5 165.5 q0 58 -25.5 101 q-25.5 43 -70.5 78.5 q-45 35.5 -106.5 68 q-61.5 32.5 -132.5 68.5 q-75 38 -140 77 q-65 39 -113 86 q-48 47 -75.5 106.5 q-27.5 59.5 -27.5 139.5 q0 98 43 170.5 q43 72.5 113 119.5 q70 47 159.5 70 q89.5 23 182.5 23 q212 0 309 -51 l0 -189 q-127 88 -326 88 q-55 0 -110 -11.5 q-55 -11.5 -98 -37.5 q-43 -26 -70 -67 q-27 -41 -27 -100 q0 -55 20.5 -95 q20.5 -40 60.5 -73 q40 -33 97.5 -64 q57.5 -31 132.5 -68 q77 -38 146 -80 q69 -42 121 -93 q52 -51 82.5 -113 q30.5 -62 30.5 -142 q0 -106 -41.5 -179.5 q-41.5 -73.5 -112 -119.5 q-70.5 -46 -162.5 -66.5 q-92 -20.5 -194 -20.5 q-34 0 -84 5.5 q-50 5.5 -102 16 q-52 10.5 -98.5 26 q-46.5 15.5 -74.5 34.5 Z" /><glyph glyph-name="T" unicode="t" d="M1036 1282 l-414 0 l0 -1282 l-168 0 l0 1282 l-413 0 l0 152 l995 0 l0 -152 Z" /><glyph glyph-name="U" unicode="u" d="M1237 580 q0 -604 -545 -604 q-522 0 -522 581 l0 877 l168 0 l0 -866 q0 -441 372 -441 q359 0 359 426 l0 881 l168 0 l0 -854 Z" /><glyph glyph-name="V" unicode="v" d="M1254 1434 l-531 -1434 l-185 0 l-520 1434 l187 0 l397 -1137 q19 -55 29 -127 l4 0 q8 60 33 129 l405 1135 l181 0 Z" /><glyph glyph-name="W" unicode="w" d="M1888 1434 l-405 -1434 l-197 0 l-295 1048 q-19 67 -23 146 l-4 0 q-6 -74 -26 -144 l-297 -1050 l-195 0 l-420 1434 l185 0 l305 -1100 q19 -69 24 -144 l5 0 q5 53 31 144 l317 1100 l161 0 l304 -1108 q16 -57 24 -134 l4 0 q4 52 27 138 l293 1104 l182 0 Z" /><glyph glyph-name="X" unicode="x" d="M1178 0 l-205 0 l-330 549 q-15 25 -33 71 l-4 0 q-10 -23 -34 -71 l-340 -549 l-206 0 l480 721 l-442 713 l206 0 l293 -504 q29 -50 51 -100 l4 0 q32 66 56 104 l305 500 l193 0 l-451 -711 l457 -723 Z" /><glyph glyph-name="Y" unicode="y" d="M1120 1434 l-473 -904 l0 -530 l-168 0 l0 526 l-461 908 l191 0 l321 -648 q6 -12 35 -88 l3 0 q10 34 38 88 l336 648 l178 0 Z" /><glyph glyph-name="Z" unicode="z" d="M1124 1394 l-840 -1242 l820 0 l0 -152 l-1071 0 l0 47 l833 1235 l-766 0 l0 152 l1024 0 l0 -40 Z" /><glyph glyph-name="bracketleft" unicode="[" d="M568 -326 l-368 0 l0 1760 l368 0 l0 -119 l-222 0 l0 -1522 l222 0 l0 -119 Z" /><glyph glyph-name="backslash" unicode="\" d="M798 -240 l-151 0 l-673 1674 l155 0 l669 -1674 Z" /><glyph glyph-name="bracketright" unicode="]" d="M420 -326 l-367 0 l0 119 l221 0 l0 1522 l-221 0 l0 119 l367 0 l0 -1760 Z" /><glyph glyph-name="asciicircum" unicode="^" d="M1174 624 l-150 0 l-332 619 l-6 0 l-309 -619 l-147 0 l422 834 l65 0 l457 -834 Z" /><glyph glyph-name="underscore" unicode="_" d="M850 -297 l-850 0 l0 119 l850 0 l0 -119 Z" /><glyph glyph-name="grave" unicode="`" d="M471 1218 l-127 0 l-262 328 l168 0 l221 -328 Z" /><glyph glyph-name="a" unicode="a" d="M899 0 l-164 0 l0 160 l-4 0 q-107 -184 -315 -184 q-153 0 -239.5 81 q-86.5 81 -86.5 215 q0 287 338 334 l307 43 q0 261 -211 261 q-185 0 -334 -126 l0 168 q151 96 348 96 q361 0 361 -382 l0 -666 ZM735 518 l-247 -34 q-114 -16 -172 -56.5 q-58 -40.5 -58 -143.5 q0 -75 53.5 -122.5 q53.5 -47.5 142.5 -47.5 q122 0 201.5 85.5 q79.5 85.5 79.5 216.5 l0 102 Z" /><glyph glyph-name="b" unicode="b" d="M334 148 l-4 0 l0 -148 l-164 0 l0 1516 l164 0 l0 -672 l4 0 q121 204 354 204 q197 0 308.5 -137.5 q111.5 -137.5 111.5 -368.5 q0 -257 -125 -411.5 q-125 -154.5 -342 -154.5 q-203 0 -307 172 ZM330 561 l0 -143 q0 -127 82.5 -215.5 q82.5 -88.5 209.5 -88.5 q149 0 233.5 114 q84.5 114 84.5 317 q0 171 -79 268 q-79 97 -214 97 q-143 0 -230 -99.5 q-87 -99.5 -87 -249.5 Z" /><glyph glyph-name="c" unicode="c" d="M864 47 q-118 -71 -280 -71 q-219 0 -353.5 142.5 q-134.5 142.5 -134.5 369.5 q0 253 145 406.5 q145 153.5 387 153.5 q135 0 238 -50 l0 -168 q-114 80 -244 80 q-157 0 -257.5 -112.5 q-100.5 -112.5 -100.5 -295.5 q0 -180 94.5 -284 q94.5 -104 253.5 -104 q134 0 252 89 l0 -156 Z" /><glyph glyph-name="d" unicode="d" d="M1040 0 l-164 0 l0 174 l-4 0 q-114 -198 -352 -198 q-193 0 -308.5 137.5 q-115.5 137.5 -115.5 374.5 q0 254 128 407 q128 153 341 153 q211 0 307 -166 l4 0 l0 634 l164 0 l0 -1516 ZM876 463 l0 151 q0 124 -82 210 q-82 86 -208 86 q-150 0 -236 -110 q-86 -110 -86 -304 q0 -177 82.5 -279.5 q82.5 -102.5 221.5 -102.5 q137 0 222.5 99 q85.5 99 85.5 250 Z" /><glyph glyph-name="e" unicode="e" d="M989 471 l-723 0 q4 -171 92 -264 q88 -93 242 -93 q173 0 318 114 l0 -154 q-135 -98 -357 -98 q-217 0 -341 139.5 q-124 139.5 -124 392.5 q0 239 135.5 389.5 q135.5 150.5 336.5 150.5 q201 0 311 -130 q110 -130 110 -361 l0 -86 ZM821 610 q-1 142 -68.5 221 q-67.5 79 -187.5 79 q-116 0 -197 -83 q-81 -83 -100 -217 l553 0 Z" /><glyph glyph-name="f" unicode="f" d="M672 1372 q-48 27 -109 27 q-172 0 -172 -217 l0 -158 l240 0 l0 -140 l-240 0 l0 -884 l-163 0 l0 884 l-175 0 l0 140 l175 0 l0 166 q0 161 93 254.5 q93 93.5 232 93.5 q75 0 119 -18 l0 -148 Z" /><glyph glyph-name="g" unicode="g" d="M1040 82 q0 -564 -540 -564 q-190 0 -332 72 l0 164 q173 -96 330 -96 q378 0 378 402 l0 112 l-4 0 q-117 -196 -352 -196 q-191 0 -307.5 136.5 q-116.5 136.5 -116.5 366.5 q0 261 125.5 415 q125.5 154 343.5 154 q207 0 307 -166 l4 0 l0 142 l164 0 l0 -942 ZM876 463 l0 151 q0 122 -82.5 209 q-82.5 87 -205.5 87 q-152 0 -238 -110.5 q-86 -110.5 -86 -309.5 q0 -171 82.5 -273.5 q82.5 -102.5 218.5 -102.5 q138 0 224.5 98 q86.5 98 86.5 251 Z" /><glyph glyph-name="h" unicode="h" d="M1016 0 l-164 0 l0 590 q0 320 -238 320 q-120 0 -202 -92.5 q-82 -92.5 -82 -237.5 l0 -580 l-164 0 l0 1516 l164 0 l0 -662 l4 0 q118 194 336 194 q346 0 346 -417 l0 -631 Z" /><glyph glyph-name="i" unicode="i" d="M250 1284 q-44 0 -75 30 q-31 30 -31 76 q0 46 31 76.5 q31 30.5 75 30.5 q45 0 76.5 -30.5 q31.5 -30.5 31.5 -76.5 q0 -44 -31.5 -75 q-31.5 -31 -76.5 -31 ZM330 0 l-164 0 l0 1024 l164 0 l0 -1024 Z" /><glyph glyph-name="j" unicode="j" d="M330 43 q0 -252 -101.5 -388.5 q-101.5 -136.5 -290.5 -136.5 q-70 0 -136 32 l0 153 q74 -45 140 -45 q224 0 224 358 l0 1008 l164 0 l0 -981 ZM250 1284 q-44 0 -75 30 q-31 30 -31 76 q0 46 31 76.5 q31 30.5 75 30.5 q45 0 76.5 -30.5 q31.5 -30.5 31.5 -76.5 q0 -44 -31.5 -75 q-31.5 -31 -76.5 -31 Z" /><glyph glyph-name="k" unicode="k" d="M1016 0 l-230 0 l-452 492 l-4 0 l0 -492 l-164 0 l0 1516 l164 0 l0 -961 l4 0 l430 469 l215 0 l-475 -494 l512 -530 Z" /><glyph glyph-name="l" unicode="l" d="M330 0 l-164 0 l0 1516 l164 0 l0 -1516 Z" /><glyph glyph-name="m" unicode="m" d="M1620 0 l-164 0 l0 588 q0 170 -52.5 246 q-52.5 76 -176.5 76 q-105 0 -178.5 -96 q-73.5 -96 -73.5 -230 l0 -584 l-164 0 l0 608 q0 302 -233 302 q-108 0 -178 -90.5 q-70 -90.5 -70 -235.5 l0 -584 l-164 0 l0 1024 l164 0 l0 -162 l4 0 q109 186 318 186 q105 0 183 -58.5 q78 -58.5 107 -153.5 q114 212 340 212 q338 0 338 -417 l0 -631 Z" /><glyph glyph-name="n" unicode="n" d="M1016 0 l-164 0 l0 584 q0 326 -238 326 q-123 0 -203.5 -92.5 q-80.5 -92.5 -80.5 -233.5 l0 -584 l-164 0 l0 1024 l164 0 l0 -170 l4 0 q116 194 336 194 q168 0 257 -108.5 q89 -108.5 89 -313.5 l0 -626 Z" /><glyph glyph-name="o" unicode="o" d="M594 -24 q-227 0 -362.5 143.5 q-135.5 143.5 -135.5 380.5 q0 258 141 403 q141 145 381 145 q229 0 357.5 -141 q128.5 -141 128.5 -391 q0 -245 -138.5 -392.5 q-138.5 -147.5 -371.5 -147.5 ZM606 910 q-158 0 -250 -107.5 q-92 -107.5 -92 -296.5 q0 -182 93 -287 q93 -105 249 -105 q159 0 244.5 103 q85.5 103 85.5 293 q0 192 -85.5 296 q-85.5 104 -244.5 104 Z" /><glyph glyph-name="p" unicode="p" d="M334 148 l-4 0 l0 -619 l-164 0 l0 1495 l164 0 l0 -180 l4 0 q121 204 354 204 q198 0 309 -137.5 q111 -137.5 111 -368.5 q0 -257 -125 -411.5 q-125 -154.5 -342 -154.5 q-199 0 -307 172 ZM330 561 l0 -143 q0 -127 82.5 -215.5 q82.5 -88.5 209.5 -88.5 q149 0 233.5 114 q84.5 114 84.5 317 q0 171 -79 268 q-79 97 -214 97 q-143 0 -230 -99.5 q-87 -99.5 -87 -249.5 Z" /><glyph glyph-name="q" unicode="q" d="M1040 -471 l-164 0 l0 647 l-4 0 q-107 -200 -350 -200 q-193 0 -309.5 137.5 q-116.5 137.5 -116.5 374.5 q0 255 128 407.5 q128 152.5 344 152.5 q210 0 304 -166 l4 0 l0 142 l164 0 l0 -1495 ZM876 461 l0 149 q0 126 -82.5 213 q-82.5 87 -209.5 87 q-148 0 -234 -109.5 q-86 -109.5 -86 -308.5 q0 -177 83 -277.5 q83 -100.5 214 -100.5 q144 0 229.5 98.5 q85.5 98.5 85.5 248.5 Z" /><glyph glyph-name="r" unicode="r" d="M700 858 q-43 33 -124 33 q-105 0 -175.5 -99 q-70.5 -99 -70.5 -270 l0 -522 l-164 0 l0 1024 l164 0 l0 -211 l4 0 q35 108 107 168.5 q72 60.5 161 60.5 q64 0 98 -14 l0 -170 Z" /><glyph glyph-name="s" unicode="s" d="M104 37 l0 176 q134 -99 295 -99 q216 0 216 144 q0 41 -18.5 69.5 q-18.5 28.5 -50 50.5 q-31.5 22 -74 39.5 q-42.5 17.5 -91.5 36.5 q-68 27 -119.5 54.5 q-51.5 27.5 -86 62 q-34.5 34.5 -52 78.5 q-17.5 44 -17.5 103 q0 72 33 127.5 q33 55.5 88 93 q55 37.5 125.5 56.5 q70.5 19 145.5 19 q133 0 238 -46 l0 -166 q-113 74 -260 74 q-46 0 -83 -10.5 q-37 -10.5 -63.5 -29.5 q-26.5 -19 -41 -45.5 q-14.5 -26.5 -14.5 -58.5 q0 -40 14.5 -67 q14.5 -27 42.5 -48 q28 -21 68 -38 q40 -17 91 -37 q68 -26 122 -53.5 q54 -27.5 92 -62 q38 -34.5 58.5 -79.5 q20.5 -45 20.5 -107 q0 -76 -33.5 -132 q-33.5 -56 -89.5 -93 q-56 -37 -129 -55 q-73 -18 -153 -18 q-158 0 -274 61 Z" /><glyph glyph-name="t" unicode="t" d="M641 10 q-58 -32 -153 -32 q-269 0 -269 300 l0 606 l-176 0 l0 140 l176 0 l0 250 l164 53 l0 -303 l258 0 l0 -140 l-258 0 l0 -577 q0 -103 35 -147 q35 -44 116 -44 q62 0 107 34 l0 -140 Z" /><glyph glyph-name="u" unicode="u" d="M994 0 l-164 0 l0 162 l-4 0 q-102 -186 -316 -186 q-366 0 -366 436 l0 612 l163 0 l0 -586 q0 -324 248 -324 q120 0 197.5 88.5 q77.5 88.5 77.5 231.5 l0 590 l164 0 l0 -1024 Z" /><glyph glyph-name="v" unicode="v" d="M971 1024 l-408 -1024 l-161 0 l-388 1024 l180 0 l260 -744 q29 -82 36 -143 l4 0 q10 77 32 139 l272 748 l173 0 Z" /><glyph glyph-name="w" unicode="w" d="M1456 1024 l-307 -1024 l-170 0 l-211 733 q-12 42 -16 95 l-4 0 q-3 -36 -21 -93 l-229 -735 l-164 0 l-310 1024 l172 0 l212 -770 q10 -35 14 -92 l8 0 q3 44 18 94 l236 768 l150 0 l212 -772 q10 -37 15 -92 l8 0 q2 39 17 92 l208 772 l162 0 Z" /><glyph glyph-name="x" unicode="x" d="M914 1024 l-344 -518 l338 -506 l-191 0 l-201 332 q-19 31 -45 78 l-4 0 q-5 -9 -47 -78 l-205 -332 l-189 0 l349 502 l-334 522 l191 0 l198 -350 q22 -39 43 -80 l4 0 l256 430 l181 0 Z" /><glyph glyph-name="y" unicode="y" d="M981 1024 l-471 -1188 q-126 -318 -354 -318 q-64 0 -107 13 l0 147 q53 -18 97 -18 q124 0 186 148 l82 194 l-400 1022 l182 0 l277 -788 q5 -15 21 -78 l6 0 q5 24 20 76 l291 790 l170 0 Z" /><glyph glyph-name="z" unicode="z" d="M880 977 l-606 -837 l600 0 l0 -140 l-841 0 l0 51 l606 833 l-549 0 l0 140 l790 0 l0 -47 Z" /><glyph glyph-name="braceleft" unicode="{" d="M555 -326 q-307 4 -307 310 l0 300 q0 202 -156 212 l0 116 q156 10 156 216 l0 292 q0 310 307 314 l0 -128 q-159 -4 -159 -198 l0 -293 q0 -210 -150 -258 l0 -4 q150 -45 150 -256 l0 -289 q0 -111 35.5 -158.5 q35.5 -47.5 123.5 -49.5 l0 -126 Z" /><glyph glyph-name="bar" unicode="|" d="M320 -482 l-148 0 l0 2048 l148 0 l0 -2048 Z" /><glyph glyph-name="braceright" unicode="}" d="M528 496 q-156 -10 -156 -212 l0 -300 q0 -306 -306 -310 l0 126 q87 2 123.5 50 q36.5 48 36.5 158 l0 289 q0 211 149 256 l0 4 q-149 48 -149 258 l0 293 q0 194 -160 198 l0 128 q306 -4 306 -314 l0 -292 q0 -206 156 -216 l0 -116 Z" /><glyph glyph-name="asciitilde" unicode="~" d="M1194 750 q-7 -148 -80.5 -229 q-73.5 -81 -199.5 -81 q-109 0 -265 109 q-97 67 -159 67 q-140 0 -146 -176 l-135 0 q5 143 79.5 226.5 q74.5 83.5 201.5 83.5 q106 0 235 -88 q132 -90 197 -90 q61 0 98 49 q37 49 39 129 l135 0 Z" /><glyph glyph-name="Aring" unicode="å" d="M1298 0 l-186 0 l-152 402 l-608 0 l-143 -402 l-187 0 l529 1378 q-101 52 -101 164 q0 89 60 144 q60 55 152 55 q88 0 144 -54.5 q56 -54.5 56 -138.5 q0 -112 -96 -166 l532 -1382 ZM656 1659 q-50 0 -82 -31.5 q-32 -31.5 -32 -79.5 q0 -114 114 -114 q48 0 81 33 q33 33 33 81 q0 49 -33 80 q-33 31 -81 31 ZM905 553 l-225 611 q-11 30 -22 96 l-4 0 q-10 -61 -23 -96 l-223 -611 l497 0 Z" /><glyph glyph-name="dagger" unicode="&#x2020;" d="M728 893 l-262 30 l-40 -694 l-76 0 l-40 694 l-262 -30 l0 150 l302 -20 l-40 410 l156 0 l-40 -410 l302 20 l0 -150 Z" /><glyph glyph-name="degree" unicode="°" d="M385 897 q-115 0 -196 81.5 q-81 81.5 -81 197.5 q0 115 80 194.5 q80 79.5 195 79.5 q116 0 197.5 -80 q81.5 -80 81.5 -194 q0 -116 -81 -197.5 q-81 -81.5 -196 -81.5 ZM385 1333 q-65 0 -111 -46 q-46 -46 -46 -111 q0 -67 45 -114.5 q45 -47.5 110 -47.5 q65 0 112 48 q47 48 47 114 q0 66 -46 111.5 q-46 45.5 -111 45.5 Z" /><glyph glyph-name="cent" unicode="¢" d="M952 209 q-96 -59 -221 -69 l0 -189 l-125 0 l0 191 q-193 22 -307.5 161 q-114.5 139 -114.5 346 q0 219 114.5 366.5 q114.5 147.5 307.5 184.5 l0 213 l125 0 l0 -203 q123 -2 221 -51 l0 -172 q-101 71 -221 78 l0 -785 q122 12 221 86 l0 -157 ZM606 291 l0 761 q-119 -31 -186.5 -133.5 q-67.5 -102.5 -67.5 -252.5 q0 -150 68 -249 q68 -99 186 -126 Z" /><glyph glyph-name="sterling" unicode="£" d="M1006 0 l-900 0 l0 135 q218 69 218 313 l0 187 l-197 0 l0 141 l197 0 l0 254 q0 188 109 308 q109 120 282 120 q117 0 213 -41 l0 -155 q-100 57 -211 57 q-229 0 -229 -307 l0 -236 l296 0 l0 -141 l-296 0 l0 -156 q0 -242 -193 -339 l711 0 l0 -140 Z" /><glyph glyph-name="section" unicode="§" d="M658 416 q90 -74 90 -186 q0 -132 -100 -214 q-100 -82 -255 -82 q-131 0 -239 56 l0 158 q130 -74 250 -74 q84 0 130 39.5 q46 39.5 46 99.5 q0 53 -35.5 89.5 q-35.5 36.5 -180.5 113.5 q-233 122 -233 317 q0 163 147 244 q-106 83 -106 223 q0 127 93.5 209 q93.5 82 246.5 82 q130 0 219 -43 l0 -158 q-101 62 -223 62 q-168 0 -168 -144 q0 -55 40.5 -100 q40.5 -45 203.5 -123 q223 -107 223 -293 q0 -170 -149 -276 ZM398 905 q-101 -51 -101 -159 q0 -72 56.5 -126.5 q56.5 -54.5 197.5 -117.5 q88 68 88 172 q0 72 -52.5 122.5 q-52.5 50.5 -188.5 108.5 Z" /><glyph glyph-name="bullet" unicode="&#x2022;" d="M418 408 q-104 0 -179 73 q-75 73 -75 177 q0 103 75 178.5 q75 75.5 179 75.5 q104 0 177 -75 q73 -75 73 -179 q0 -104 -73 -177 q-73 -73 -177 -73 Z" /><glyph glyph-name="paragraph" unicode="¶" d="M834 1331 l-128 0 l0 -1331 l-106 0 l0 1331 l-158 0 l0 -1331 l-108 0 l0 903 q-108 0 -179 76 q-71 76 -71 191 q0 117 74.5 190.5 q74.5 73.5 181.5 73.5 l494 0 l0 -103 Z" /><glyph glyph-name="germandbls" unicode="ß" d="M461 2 l0 160 q75 -48 170 -48 q109 0 177 73.5 q68 73.5 68 197.5 q0 150 -100 243.5 q-100 93.5 -278 113.5 l0 130 q118 20 194 103 q76 83 76 197 q0 108 -55 167.5 q-55 59.5 -152 59.5 q-231 0 -231 -309 l0 -1090 l-164 0 l0 1114 q0 192 110 308 q110 116 296 116 q166 0 265 -95 q99 -95 99 -251 q0 -127 -75 -228 q-75 -101 -195 -140 l0 -5 q378 -75 378 -426 q0 -177 -111 -297 q-111 -120 -294 -120 q-101 0 -178 26 Z" /><glyph glyph-name="registered" unicode="®" d="M912 -33 q-311 0 -530.5 219.5 q-219.5 219.5 -219.5 530.5 q0 311 219.5 530.5 q219.5 219.5 530.5 219.5 q310 0 529.5 -219.5 q219.5 -219.5 219.5 -530.5 q0 -311 -219.5 -530.5 q-219.5 -219.5 -529.5 -219.5 ZM912 1379 q-274 0 -468 -194 q-194 -194 -194 -468 q0 -274 194 -467.5 q194 -193.5 468 -193.5 q274 0 467.5 193.5 q193.5 193.5 193.5 467.5 q0 274 -193.5 468 q-193.5 194 -467.5 194 ZM1276 248 l-162 0 l-104 229 q-79 172 -170 172 l-88 0 l0 -401 l-133 0 l0 954 l268 0 q167 0 257.5 -70 q90.5 -70 90.5 -190 q0 -98 -63.5 -167 q-63.5 -69 -177.5 -93 l0 -4 q79 -17 157 -176 l125 -254 ZM752 1088 l0 -326 l143 0 q197 0 197 164 q0 88 -53 125 q-53 37 -168 37 l-119 0 Z" /><glyph glyph-name="copyright" unicode="©" d="M912 -33 q-311 0 -530.5 219.5 q-219.5 219.5 -219.5 530.5 q0 311 219.5 530.5 q219.5 219.5 530.5 219.5 q310 0 529.5 -219.5 q219.5 -219.5 219.5 -530.5 q0 -311 -219.5 -530.5 q-219.5 -219.5 -529.5 -219.5 ZM912 1379 q-274 0 -468 -194 q-194 -194 -194 -468 q0 -274 194 -467.5 q194 -193.5 468 -193.5 q274 0 467.5 193.5 q193.5 193.5 193.5 467.5 q0 274 -193.5 468 q-193.5 194 -467.5 194 ZM1213 266 q-114 -69 -269 -69 q-209 0 -350 141.5 q-141 141.5 -141 353.5 q0 247 144.5 394 q144.5 147 375.5 147 q132 0 236 -53 l0 -150 q-95 72 -254 72 q-156 0 -257.5 -106.5 q-101.5 -106.5 -101.5 -286.5 q0 -174 103.5 -279.5 q103.5 -105.5 263.5 -105.5 q146 0 250 78 l0 -136 Z" /><glyph glyph-name="trademark" unicode="&#x2122;" d="M1396 772 l-108 0 l0 478 l-4 0 l-219 -478 l-59 0 l-214 478 l-4 0 l0 -478 l-102 0 l0 662 l127 0 l225 -496 l4 0 l228 496 l126 0 l0 -662 ZM602 1336 l-209 0 l0 -564 l-111 0 l0 564 l-206 0 l0 98 l526 0 l0 -98 Z" /><glyph glyph-name="acute" unicode="´" d="M524 1546 l-262 -328 l-127 0 l223 328 l166 0 Z" /><glyph glyph-name="dieresis" unicode="¨" d="M610 1218 q-40 0 -69 28 q-29 28 -29 71 q0 42 28 70 q28 28 68 28 q42 0 71 -28.5 q29 -28.5 29 -69.5 q0 -41 -28 -70 q-28 -29 -70 -29 ZM226 1218 q-42 0 -71.5 29.5 q-29.5 29.5 -29.5 69.5 q0 42 28.5 70 q28.5 28 69.5 28 q41 0 71 -28.5 q30 -28.5 30 -69.5 q0 -41 -29 -70 q-29 -29 -69 -29 Z" /><glyph glyph-name="notequal" unicode="&#x2260;" d="M1172 318 l-550 0 l-163 -318 l-141 0 l164 318 l-250 0 l0 132 l319 0 l149 294 l-468 0 l0 132 l538 0 l158 312 l141 0 l-159 -312 l262 0 l0 -132 l-330 0 l-152 -294 l482 0 l0 -132 Z" /><glyph glyph-name="AE" unicode="æ" d="M1667 0 l-759 0 l0 402 l-510 0 l-193 -402 l-195 0 l700 1434 l924 0 l0 -152 l-559 0 l0 -477 l519 0 l0 -151 l-519 0 l0 -502 l592 0 l0 -152 ZM908 553 l0 729 l-95 0 l-346 -729 l441 0 Z" /><glyph glyph-name="Oslash" unicode="ø" d="M324 131 l-152 -182 l-78 65 l158 191 q-158 195 -158 495 q0 343 186.5 550.5 q186.5 207.5 509.5 207.5 q234 0 402 -129 l135 162 l78 -63 l-139 -166 q184 -200 184 -527 q0 -351 -186 -555 q-186 -204 -498 -204 q-266 0 -442 155 ZM1090 1204 q-126 102 -312 102 q-227 0 -367.5 -164 q-140.5 -164 -140.5 -427 q0 -223 98 -373 l722 862 ZM1157 1130 l-725 -866 q131 -137 334 -137 q236 0 372 154.5 q136 154.5 136 430.5 q0 260 -117 418 Z" /><glyph glyph-name="infinity" unicode="&#x221e;" d="M836 482 q-168 -275 -382 -275 q-165 0 -268.5 106.5 q-103.5 106.5 -103.5 278.5 q0 162 108 277.5 q108 115.5 264 115.5 q236 0 386 -273 q164 273 380 273 q166 0 270 -106.5 q104 -106.5 104 -278.5 q0 -161 -108 -277 q-108 -116 -266 -116 q-226 0 -384 275 ZM901 596 q131 -260 319 -260 q109 0 174.5 72.5 q65.5 72.5 65.5 191.5 q0 112 -68 186 q-68 74 -172 74 q-173 0 -319 -264 ZM774 598 q-132 262 -320 262 q-110 0 -175.5 -75 q-65.5 -75 -65.5 -193 q0 -110 67.5 -183 q67.5 -73 173.5 -73 q176 0 320 262 Z" /><glyph glyph-name="plusminus" unicode="±" d="M1172 652 l-404 0 l0 -404 l-131 0 l0 404 l-405 0 l0 132 l405 0 l0 404 l131 0 l0 -404 l404 0 l0 -132 ZM1172 0 l-940 0 l0 133 l940 0 l0 -133 Z" /><glyph glyph-name="lessequal" unicode="&#x2264;" d="M1132 254 l-860 434 l0 58 l860 481 l0 -150 l-642 -354 l0 -4 l642 -313 l0 -152 ZM1172 0 l-940 0 l0 133 l940 0 l0 -133 Z" /><glyph glyph-name="greaterequal" unicode="&#x2265;" d="M1132 690 l-860 -434 l0 152 l644 309 l0 6 l-644 357 l0 149 l860 -481 l0 -58 ZM1172 0 l-940 0 l0 133 l940 0 l0 -133 Z" /><glyph glyph-name="yen" unicode="¥" d="M1042 1434 l-356 -656 l285 0 l0 -139 l-334 0 l0 -207 l334 0 l0 -139 l-334 0 l0 -293 l-164 0 l0 293 l-344 0 l0 139 l344 0 l0 207 l-344 0 l0 139 l291 0 l-352 656 l192 0 l250 -514 q28 -58 47 -111 l4 0 q13 42 49 117 l252 508 l180 0 Z" /><glyph glyph-name="mu" unicode="µ" d="M1048 0 l-170 0 q-23 72 -23 168 l-5 0 q-84 -191 -279 -191 q-167 0 -238 123 l-4 0 l0 -496 l-163 0 l0 1420 l163 0 l0 -626 q0 -127 69 -202 q69 -75 180 -75 q121 0 196.5 86 q75.5 86 75.5 231 l0 586 l166 0 l0 -759 q0 -188 32 -265 Z" /><glyph glyph-name="partialdiff" unicode="&#x2202;" d="M862 872 l4 0 q26 476 -266 476 q-123 0 -246 -80 l39 156 q119 65 248 65 q194 0 290.5 -132 q96.5 -132 96.5 -423 q0 -221 -65 -461 q-65 -240 -200 -368.5 q-135 -128.5 -319 -128.5 q-166 0 -266 106.5 q-100 106.5 -100 287.5 q0 272 147.5 471 q147.5 199 374.5 199 q178 0 262 -168 ZM850 692 q-58 209 -230 209 q-160 0 -267 -157 q-107 -157 -107 -367 q0 -122 56.5 -192.5 q56.5 -70.5 153.5 -70.5 q151 0 259 159.5 q108 159.5 135 418.5 Z" /><glyph glyph-name="summation" unicode="&#x2211;" d="M1210 -469 l-1159 0 l0 78 l676 883 l-639 852 l0 90 l1082 0 l0 -154 l-836 0 l594 -784 l-625 -812 l907 0 l0 -153 Z" /><glyph glyph-name="product" unicode="&#x220f;" d="M1362 -469 l-168 0 l0 1749 l-838 0 l0 -1749 l-168 0 l0 1903 l1174 0 l0 -1903 Z" /><glyph glyph-name="integral" unicode="&#x222b;" d="M916 1372 q-48 27 -111 27 q-170 0 -170 -217 l0 -1322 q0 -158 -93.5 -252 q-93.5 -94 -232.5 -94 q-75 0 -119 19 l0 147 q48 -26 109 -26 q172 0 172 217 l0 1319 q0 160 93.5 254 q93.5 94 231.5 94 q76 0 120 -18 l0 -148 Z" /><glyph glyph-name="ordfeminine" unicode="ª" d="M688 717 l-129 0 l0 100 l-4 0 q-79 -119 -231 -119 q-109 0 -175.5 59.5 q-66.5 59.5 -66.5 152.5 q0 202 248 235 l229 31 q0 168 -151 168 q-136 0 -254 -86 l0 128 q111 70 266 70 q126 0 197 -72 q71 -72 71 -202 l0 -465 ZM559 1075 l-180 -25 q-168 -23 -168 -134 q0 -51 38.5 -83 q38.5 -32 102.5 -32 q82 0 144.5 61 q62.5 61 62.5 146 l0 67 Z" /><glyph glyph-name="ordmasculine" unicode="º" d="M436 696 q-167 0 -262.5 100.5 q-95.5 100.5 -95.5 272.5 q0 181 102.5 283 q102.5 102 271.5 102 q163 0 257 -99.5 q94 -99.5 94 -270.5 q0 -178 -99.5 -283 q-99.5 -105 -267.5 -105 ZM444 1344 q-106 0 -168.5 -72 q-62.5 -72 -62.5 -199 q0 -124 59.5 -194 q59.5 -70 169.5 -70 q105 0 166.5 71.5 q61.5 71.5 61.5 194.5 q0 126 -60.5 197.5 q-60.5 71.5 -165.5 71.5 Z" /><glyph glyph-name="Omega" unicode="&#x2126;" d="M1449 0 l-519 0 l0 147 q345 255 345 633 q0 245 -139 387.5 q-139 142.5 -358 142.5 q-222 0 -363 -142 q-141 -142 -141 -387 q0 -378 346 -634 l0 -147 l-520 0 l0 148 l348 -1 q-348 235 -348 638 q0 313 185 493 q185 180 487 180 q309 0 493 -178.5 q184 -178.5 184 -493.5 q0 -402 -347 -639 l347 1 l0 -148 Z" /><glyph glyph-name="ae" unicode="æ" d="M1622 471 l-725 0 q3 -171 91 -264 q88 -93 241 -93 q177 0 321 114 l0 -154 q-132 -98 -358 -98 q-270 0 -383 229 l-4 0 q-145 -229 -387 -229 q-153 0 -240.5 80.5 q-87.5 80.5 -87.5 215.5 q0 300 383 324 l262 16 q0 298 -215 298 q-175 0 -330 -122 l0 164 q148 96 348 96 q232 0 300 -200 l4 0 q116 200 356 200 q202 0 313 -130.5 q111 -130.5 111 -362.5 l0 -84 ZM1454 610 q-2 144 -68.5 222 q-66.5 78 -185.5 78 q-116 0 -199 -82 q-83 -82 -102 -218 l555 0 ZM735 410 l0 63 l-203 -12 q-139 -8 -207.5 -49 q-68.5 -41 -68.5 -136 q0 -73 53 -117.5 q53 -44.5 143 -44.5 q119 0 201 84.5 q82 84.5 82 211.5 Z" /><glyph glyph-name="oslash" unicode="ø" d="M1174 1048 l-168 -180 q98 -138 98 -346 q0 -252 -139 -399 q-139 -147 -371 -147 q-192 0 -318 102 l-145 -160 l-82 78 l149 164 q-102 137 -102 340 q0 258 142 403 q142 145 382 145 q184 0 308 -98 l162 176 l84 -78 ZM821 836 q-79 74 -215 74 q-159 0 -250.5 -107.5 q-91.5 -107.5 -91.5 -296.5 q0 -132 50 -224 l507 554 ZM891 742 l-508 -552 q87 -76 221 -76 q163 0 248.5 104 q85.5 104 85.5 294 q0 134 -47 230 Z" /><glyph glyph-name="questiondown" unicode="¿" d="M625 630 q9 -26 16 -67.5 q7 -41.5 7 -82.5 q0 -64 -25.5 -115.5 q-25.5 -51.5 -63.5 -96.5 q-38 -45 -83 -86.5 q-45 -41.5 -83 -84 q-38 -42.5 -63.5 -89 q-25.5 -46.5 -25.5 -102.5 q0 -48 18.5 -85 q18.5 -37 50.5 -62 q32 -25 74 -37.5 q42 -12.5 89 -12.5 q169 0 293 133 l0 -176 q-153 -96 -317 -96 q-76 0 -143 20 q-67 20 -117 59.5 q-50 39.5 -79.5 98.5 q-29.5 59 -29.5 137 q0 74 26 132 q26 58 65.5 106.5 q39.5 48.5 85.5 90.5 q46 42 85.5 83.5 q39.5 41.5 65.5 86.5 q26 45 26 99 q0 46 -11 83.5 q-11 37.5 -22 63.5 l161 0 ZM535 1046 q44 0 78 -32 q33 -31 33 -78 q0 -46 -33 -78 q-33 -33 -78 -33 q-45 0 -78 33 q-33 32 -33 78 q0 47 33 78 q34 32 78 32 Z" /><glyph glyph-name="nonbreakingspace" unicode=" " d="" /><glyph glyph-name="exclamdown" unicode="¡" d="M291 826 q-46 0 -78.5 32 q-32.5 32 -32.5 78 q0 46 32.5 78 q32.5 32 78.5 32 q45 0 78 -32 q33 -32 33 -78 q0 -46 -33 -78 q-33 -32 -78 -32 ZM379 -406 l-172 0 l19 1030 l134 0 l19 -1030 Z" /><glyph glyph-name="logicalnot" unicode="¬" d="M1172 254 l-132 0 l0 430 l-808 0 l0 133 l940 0 l0 -563 Z" /><glyph glyph-name="radical" unicode="&#x221a;" d="M1114 1516 l-389 -1516 l-113 0 l-319 750 l-170 0 l0 120 l264 0 l275 -661 l334 1307 l118 0 Z" /><glyph glyph-name="florin" unicode="&#x192;" d="M952 1266 q-48 28 -108 28 q-146 0 -170 -160 l-31 -208 l166 0 l0 -138 l-187 0 l-90 -648 q-58 -418 -348 -418 q-31 0 -90 16 l0 143 q36 -21 86 -21 q150 0 190 292 l91 636 l-103 0 l0 138 l124 0 l28 219 q17 131 104.5 210 q87.5 79 221.5 79 q64 0 116 -19 l0 -149 Z" /><glyph glyph-name="approxequal" unicode="&#x2248;" d="M1194 960 q-7 -146 -80.5 -227 q-73.5 -81 -199.5 -81 q-109 0 -265 108 q-97 68 -159 68 q-140 0 -146 -176 l-135 0 q5 144 79.5 226 q74.5 82 201.5 82 q106 0 235 -88 q132 -90 197 -90 q61 0 98 49 q37 49 39 129 l135 0 ZM1194 549 q-7 -147 -80.5 -228 q-73.5 -81 -199.5 -81 q-109 0 -265 108 q-94 66 -159 66 q-140 0 -146 -174 l-135 0 q5 143 79.5 226 q74.5 83 201.5 83 q106 0 235 -88 q132 -91 197 -91 q61 0 98 50 q37 50 39 129 l135 0 Z" /><glyph glyph-name="Delta" unicode="&#x394;" d="M1272 0 l-1221 0 l0 76 l521 1358 l174 0 l526 -1358 l0 -76 ZM1057 152 l-361 968 q-33 88 -38 142 l-4 0 q-6 -48 -40 -142 l-352 -968 l795 0 Z" /><glyph glyph-name="guillemotleft" unicode="«" d="M946 200 l-168 0 l-299 336 l299 344 l170 0 l-307 -344 l305 -336 ZM557 200 l-166 0 l-299 336 l299 344 l166 0 l-303 -344 l303 -336 Z" /><glyph glyph-name="guillemotright" unicode="»" d="M948 538 l-301 -338 l-165 0 l302 338 l-302 342 l165 0 l301 -342 ZM559 538 l-299 -338 l-170 0 l308 338 l-308 342 l170 0 l299 -342 Z" /><glyph glyph-name="ellipsis" unicode="&#x2026;" d="M1252 -18 q-46 0 -77.5 32 q-31.5 32 -31.5 78 q0 46 31.5 79.5 q31.5 33.5 77.5 33.5 q45 0 77.5 -33.5 q32.5 -33.5 32.5 -79.5 q0 -46 -32.5 -78 q-32.5 -32 -77.5 -32 ZM750 -18 q-46 0 -78.5 32 q-32.5 32 -32.5 78 q0 46 32.5 79.5 q32.5 33.5 78.5 33.5 q45 0 77.5 -33.5 q32.5 -33.5 32.5 -79.5 q0 -46 -32.5 -78 q-32.5 -32 -77.5 -32 ZM248 -18 q-46 0 -77 32 q-31 32 -31 78 q0 46 31 79.5 q31 33.5 77 33.5 q45 0 77.5 -33.5 q32.5 -33.5 32.5 -79.5 q0 -46 -32 -78 q-32 -32 -78 -32 Z" /><glyph glyph-name="OE" unicode="&#x152;" d="M1810 0 l-720 0 q-16 0 -138 -14 q-98 -10 -182 -10 q-312 0 -494 201 q-182 201 -182 523 q0 346 189.5 552 q189.5 206 514.5 206 q90 0 178 -10 q112 -14 114 -14 l688 0 l0 -152 l-560 0 l0 -477 l518 0 l0 -151 l-518 0 l0 -502 l592 0 l0 -152 ZM1050 160 l0 1118 q-160 28 -268 28 q-229 0 -370.5 -166 q-141.5 -166 -141.5 -425 q0 -258 139.5 -423 q139.5 -165 366.5 -165 q116 0 274 33 Z" /><glyph glyph-name="oe" unicode="&#x153;" d="M1825 471 l-725 0 q3 -171 91.5 -264 q88.5 -93 242.5 -93 q175 0 319 114 l0 -154 q-136 -98 -357 -98 q-270 0 -382 237 l-4 0 q-131 -237 -416 -237 q-229 0 -363.5 143 q-134.5 143 -134.5 379 q0 258 142 404 q142 146 382 146 q294 0 402 -235 l4 0 q119 235 385 235 q196 0 305 -131.5 q109 -131.5 109 -357.5 l0 -88 ZM1657 610 q-2 142 -69 221 q-67 79 -183 79 q-120 0 -203.5 -85.5 q-83.5 -85.5 -99.5 -214.5 l555 0 ZM606 910 q-158 0 -250 -108.5 q-92 -108.5 -92 -299.5 q0 -180 92 -284 q92 -104 248 -104 q159 0 245.5 102.5 q86.5 102.5 86.5 291.5 q0 194 -86.5 298 q-86.5 104 -243.5 104 Z" /><glyph glyph-name="endash" unicode="&#x2013;" d="M1024 506 l-1024 0 l0 129 l1024 0 l0 -129 Z" /><glyph glyph-name="emdash" unicode="&#x2014;" d="M2048 506 l-2048 0 l0 129 l2048 0 l0 -129 Z" /><glyph glyph-name="quotedblleft" unicode="&#x201c;" d="M668 1458 l-111 -446 l-147 0 l141 446 l117 0 ZM364 1458 l-108 -446 l-150 0 l140 446 l118 0 Z" /><glyph glyph-name="quotedblright" unicode="&#x201d;" d="M672 1458 l-140 -446 l-118 0 l108 446 l150 0 ZM368 1458 l-140 -446 l-118 0 l111 446 l147 0 Z" /><glyph glyph-name="quoteleft" unicode="&#x2018;" d="M364 1458 l-108 -446 l-150 0 l140 446 l118 0 Z" /><glyph glyph-name="quoteright" unicode="&#x2019;" d="M368 1458 l-140 -446 l-118 0 l111 446 l147 0 Z" /><glyph glyph-name="divide" unicode="÷" d="M708 868 q-44 0 -74 30.5 q-30 30.5 -30 74.5 q0 45 29 77 q29 32 75 32 q103 0 103 -107 q0 -47 -30.5 -77 q-30.5 -30 -72.5 -30 ZM1172 530 l-940 0 l0 134 l940 0 l0 -134 ZM704 112 q-44 0 -75 30 q-31 30 -31 73 q0 45 30 78 q30 33 76 33 q101 0 101 -109 q0 -45 -29 -75 q-29 -30 -72 -30 Z" /><glyph glyph-name="lozenge" unicode="&#x25ca;" d="M1088 717 l-453 -717 l-76 0 l-451 715 l451 719 l76 0 l453 -717 ZM954 717 l-356 575 l-356 -575 l356 -577 l356 577 Z" /><glyph glyph-name="fraction" unicode="&#x2044;&#x2215;" d="M690 1434 l-858 -1434 l-144 0 l859 1434 l143 0 Z" /><glyph glyph-name="Euro" unicode="&#x20ac;" d="M1014 50 q-133 -74 -282 -74 q-427 0 -509 506 l-121 0 l0 140 l108 0 q-4 31 -4 77 q0 48 6 108 l-110 0 l0 140 l131 0 q51 240 192.5 375.5 q141.5 135.5 343.5 135.5 q137 0 245 -56 l0 -162 q-114 78 -256 78 q-125 0 -222.5 -100.5 q-97.5 -100.5 -136.5 -270.5 l497 0 l0 -140 l-519 0 q-8 -99 -1 -185 l520 0 l0 -140 l-504 0 q72 -366 350 -366 q131 0 272 87 l0 -153 Z" /><glyph glyph-name="guilsinglleft" unicode="&#x2039;" d="M557 200 l-166 0 l-299 336 l299 344 l168 0 l-305 -344 l303 -336 Z" /><glyph glyph-name="guilsinglright" unicode="&#x203a;" d="M559 538 l-301 -338 l-166 0 l304 338 l-304 342 l166 0 l301 -342 Z" /><glyph glyph-name="fi" unicode="&#xfb01;" d="M672 1372 q-48 27 -109 27 q-172 0 -172 -217 l0 -158 l240 0 l0 -140 l-240 0 l0 -884 l-163 0 l0 884 l-175 0 l0 140 l175 0 l0 166 q0 161 93 254.5 q93 93.5 232 93.5 q75 0 119 -18 l0 -148 ZM893 1284 q-45 0 -76 30 q-31 30 -31 76 q0 45 31 76 q31 31 76 31 q45 0 77 -30.5 q32 -30.5 32 -76.5 q0 -44 -32 -75 q-32 -31 -77 -31 ZM973 0 l-164 0 l0 1024 l164 0 l0 -1024 Z" /><glyph glyph-name="fl" unicode="&#xfb02;" d="M672 1372 q-48 27 -109 27 q-172 0 -172 -217 l0 -158 l240 0 l0 -140 l-240 0 l0 -884 l-163 0 l0 884 l-175 0 l0 140 l175 0 l0 166 q0 161 93 254.5 q93 93.5 232 93.5 q75 0 119 -18 l0 -148 ZM975 0 l-162 0 l0 1516 l162 0 l0 -1516 Z" /><glyph glyph-name="daggerdbl" unicode="&#x2021;" d="M728 519 l-302 20 l40 -310 l-156 0 l40 310 l-302 -20 l0 150 l262 -30 l58 192 l-58 192 l-262 -30 l0 150 l302 -20 l-40 310 l156 0 l-40 -310 l302 20 l0 -150 l-262 30 l-58 -192 l58 -192 l262 30 l0 -150 Z" /><glyph glyph-name="periodcentered" unicode="·" d="M223 510 q-46 0 -78.5 33 q-32.5 33 -32.5 79 q0 47 32.5 80 q32.5 33 78.5 33 q47 0 80 -33 q33 -33 33 -80 q0 -46 -33 -79 q-33 -33 -80 -33 Z" /><glyph glyph-name="quotesinglbase" unicode="&#x201a;" d="M346 217 l-141 -445 l-117 0 l110 445 l148 0 Z" /><glyph glyph-name="quotedblbase" unicode="&#x201e;" d="M649 217 l-139 -445 l-119 0 l109 445 l149 0 ZM346 217 l-141 -445 l-117 0 l110 445 l148 0 Z" /><glyph glyph-name="perthousand" unicode="&#x2030;" d="M404 715 q-148 0 -236 97.5 q-88 97.5 -88 260.5 q0 178 93 280.5 q93 102.5 251 102.5 q153 0 237.5 -95 q84.5 -95 84.5 -267 q0 -172 -94.5 -275.5 q-94.5 -103.5 -247.5 -103.5 ZM418 1346 q-95 0 -150 -70.5 q-55 -70.5 -55 -193.5 q0 -121 54 -188.5 q54 -67.5 147 -67.5 q94 0 147 70 q53 70 53 194 q0 121 -52.5 188.5 q-52.5 67.5 -143.5 67.5 ZM1366 1434 l-922 -1444 l-143 0 l921 1444 l144 0 ZM2056 -22 q-148 0 -236 98 q-88 98 -88 260 q0 177 94.5 281 q94.5 104 249.5 104 q153 0 237.5 -95.5 q84.5 -95.5 84.5 -269.5 q0 -171 -94 -274.5 q-94 -103.5 -248 -103.5 ZM2070 608 q-96 0 -150 -70.5 q-54 -70.5 -54 -193.5 q0 -120 53.5 -187 q53.5 -67 146.5 -67 q95 0 148 70.5 q53 70.5 53 193.5 q0 121 -53 187.5 q-53 66.5 -144 66.5 ZM1258 -22 q-148 0 -236 98 q-88 98 -88 260 q0 178 94 281.5 q94 103.5 250 103.5 q152 0 237 -96 q85 -96 85 -269 q0 -171 -94.5 -274.5 q-94.5 -103.5 -247.5 -103.5 ZM1272 608 q-96 0 -150.5 -70 q-54.5 -70 -54.5 -194 q0 -119 54 -186.5 q54 -67.5 147 -67.5 q94 0 147 70.5 q53 70.5 53 193.5 q0 122 -52.5 188 q-52.5 66 -143.5 66 Z" /><glyph glyph-name="dotlessi" unicode="&#x131;" d="M330 0 l-164 0 l0 1024 l164 0 l0 -1024 Z" /><glyph glyph-name="circumflex" unicode="&#x2c6;" d="M656 1218 l-122 0 l-164 230 l-165 -230 l-113 0 l215 332 l133 0 l216 -332 Z" /><glyph glyph-name="tilde" unicode="&#x2dc;" d="M676 1458 q0 -105 -48 -171.5 q-48 -66.5 -130 -66.5 q-71 0 -162 52 q-77 43 -119 43 q-88 0 -88 -113 l-94 0 q0 107 48 171.5 q48 64.5 134 64.5 q65 0 149 -52 q74 -44 128 -44 q84 0 84 116 l98 0 Z" /><glyph glyph-name="macron" unicode="&#x2c9;" d="M570 1218 l-508 0 l0 109 l508 0 l0 -109 Z" /><glyph glyph-name="breve" unicode="&#x2d8;" d="M586 1470 q-10 -113 -88.5 -182.5 q-78.5 -69.5 -190.5 -69.5 q-117 0 -191 69 q-74 69 -79 183 l100 0 q12 -155 172 -155 q68 0 116.5 42 q48.5 42 58.5 113 l102 0 Z" /><glyph glyph-name="dotaccent" unicode="&#x2d9;" d="M207 1218 q-40 0 -69.5 28.5 q-29.5 28.5 -29.5 70.5 q0 40 29 68 q29 28 70 28 q41 0 69.5 -27.5 q28.5 -27.5 28.5 -68.5 q0 -41 -28.5 -70 q-28.5 -29 -69.5 -29 Z" /><glyph glyph-name="ring" unicode="&#x2da;" d="M284 1176 q-87 0 -144.5 52.5 q-57.5 52.5 -57.5 137.5 q0 90 59 144 q59 54 150 54 q89 0 146 -54 q57 -54 57 -138 q0 -84 -61 -140 q-61 -56 -149 -56 ZM284 1483 q-48 0 -80 -32.5 q-32 -32.5 -32 -80.5 q0 -112 112 -112 q50 0 83 32 q33 32 33 80 q0 49 -33 81 q-33 32 -83 32 Z" /><glyph glyph-name="cedilla" unicode="¸" d="M391 -256 q0 -176 -275 -176 q-38 0 -65 2 l0 90 q43 -6 70 -6 q141 0 141 90 q0 78 -129 78 q-10 0 -41 -4 l0 182 l108 0 l0 -104 q88 0 139.5 -40 q51.5 -40 51.5 -112 Z" /><glyph glyph-name="hungarumlaut" unicode="&#x2dd;" d="M647 1536 l-245 -318 l-97 0 l209 318 l133 0 ZM400 1536 l-240 -318 l-96 0 l206 318 l130 0 Z" /><glyph glyph-name="ogonek" unicode="&#x2db;" d="M338 0 q-150 -141 -150 -223 q0 -70 68 -70 q30 0 56 13 l0 -107 q-30 -13 -82 -13 q-76 0 -122 40 q-46 40 -46 110 q0 122 157 250 l119 0 Z" /><glyph glyph-name="caron" unicode="&#x2c7;" d="M664 1548 l-214 -330 l-132 0 l-216 330 l115 0 l164 -229 l164 229 l119 0 Z" /><glyph glyph-name="Lslash" unicode="&#x141;" d="M932 0 l-744 0 l0 547 l-155 -97 l0 152 l155 96 l0 736 l168 0 l0 -631 l328 203 l0 -154 l-328 -200 l0 -500 l576 0 l0 -152 Z" /><glyph glyph-name="lslash" unicode="&#x142;" d="M530 811 l-174 -123 l0 -688 l-164 0 l0 578 l-170 -119 l0 157 l170 119 l0 781 l164 0 l0 -670 l174 122 l0 -157 Z" /><glyph glyph-name="brokenbar" unicode="¦" d="M320 715 l-148 0 l0 851 l148 0 l0 -851 ZM320 -482 l-148 0 l0 852 l148 0 l0 -852 Z" /><glyph glyph-name="Eth" unicode="ð" d="M188 0 l0 641 l-160 0 l0 155 l160 0 l0 638 l396 0 q758 0 758 -699 q0 -334 -210.5 -534.5 q-210.5 -200.5 -563.5 -200.5 l-380 0 ZM356 1282 l0 -486 l336 0 l0 -155 l-336 0 l0 -489 l214 0 q282 0 439 151 q157 151 157 428 q0 551 -586 551 l-224 0 Z" /><glyph glyph-name="eth" unicode="ð" d="M786 968 l4 3 q-90 162 -198 266 l-299 -151 l-51 98 l270 131 q-118 105 -264 201 l221 0 q75 -52 172 -136 l289 144 l55 -94 l-264 -130 q327 -307 327 -774 q0 -240 -129 -394 q-129 -154 -351 -154 q-222 0 -347 140 q-125 140 -125 382 q0 243 130 394.5 q130 151.5 350 151.5 q123 0 210 -78 ZM582 910 q-148 0 -233 -108.5 q-85 -108.5 -85 -295.5 q0 -181 83 -286.5 q83 -105.5 231 -105.5 q139 0 220.5 108 q81.5 108 81.5 288 q0 400 -298 400 Z" /><glyph glyph-name="Thorn" unicode="þ" d="M356 318 l0 -318 l-168 0 l0 1434 l168 0 l0 -226 l226 0 q232 0 357.5 -111.5 q125.5 -111.5 125.5 -316.5 q0 -204 -141.5 -333 q-141.5 -129 -381.5 -129 l-186 0 ZM356 1057 l0 -588 l176 0 q173 0 265 78 q92 78 92 223 q0 287 -336 287 l-197 0 Z" /><glyph glyph-name="thorn" unicode="þ" d="M334 148 l-4 0 l0 -619 l-164 0 l0 1987 l164 0 l0 -672 l4 0 q121 204 354 204 q198 0 309 -137.5 q111 -137.5 111 -368.5 q0 -257 -125 -411.5 q-125 -154.5 -342 -154.5 q-199 0 -307 172 ZM330 561 l0 -143 q0 -127 82.5 -215.5 q82.5 -88.5 209.5 -88.5 q149 0 233.5 114 q84.5 114 84.5 317 q0 171 -79 268 q-79 97 -214 97 q-143 0 -230 -99.5 q-87 -99.5 -87 -249.5 Z" /><glyph glyph-name="minus" unicode="&#x2212;" d="M1172 530 l-940 0 l0 134 l940 0 l0 -134 Z" /><glyph glyph-name="multiply" unicode="×" d="M1134 258 l-94 -94 l-340 340 l-338 -340 l-94 94 l340 338 l-340 340 l94 94 l338 -340 l340 340 l94 -94 l-340 -340 l340 -338 Z" /><glyph glyph-name="franc" unicode="&#x20a3;" d="M600 278 l-244 0 l0 -278 l-168 0 l0 278 l-160 0 l0 156 l160 0 l0 1000 l728 0 l0 -152 l-560 0 l0 -496 l518 0 l0 -151 l-518 0 l0 -201 l244 0 l0 -156 Z" /><glyph glyph-name="dcroat" unicode="&#x111;" d="M1040 0 l-164 0 l0 174 l-4 0 q-114 -198 -352 -198 q-193 0 -308.5 137.5 q-115.5 137.5 -115.5 374.5 q0 254 128 407 q128 153 341 153 q208 0 307 -166 l4 0 l0 320 l-331 0 l0 134 l331 0 l0 180 l164 0 l0 -180 l136 0 l0 -134 l-136 0 l0 -1202 ZM876 463 l0 151 q0 124 -82 210 q-82 86 -208 86 q-150 0 -236 -110 q-86 -110 -86 -304 q0 -177 82.5 -279.5 q82.5 -102.5 221.5 -102.5 q136 0 222 99 q86 99 86 250 Z" /><glyph glyph-name="macron" unicode="¯" d="M850 1396 l-850 0 l0 120 l850 0 l0 -120 Z" /><glyph glyph-name="tcaron" unicode="&#x165;" d="M641 10 q-58 -32 -153 -32 q-269 0 -269 300 l0 606 l-176 0 l0 140 l176 0 l0 250 l164 53 l0 -303 l258 0 l0 -140 l-258 0 l0 -577 q0 -103 35 -147 q35 -44 116 -44 q62 0 107 34 l0 -140 ZM979 1394 l-166 -260 l-123 0 l117 260 l172 0 Z" /><glyph glyph-name="Gamma" unicode="&#x393;" d="M932 1278 l-575 0 l0 -1278 l-169 0 l0 1434 l744 0 l0 -156 Z" /><glyph glyph-name="Theta" unicode="&#x398;" d="M766 -24 q-304 0 -488 199.5 q-184 199.5 -184 524.5 q0 343 186.5 550.5 q186.5 207.5 509.5 207.5 q297 0 478.5 -200 q181.5 -200 181.5 -523 q0 -351 -185.5 -555 q-185.5 -204 -498.5 -204 ZM777 1306 q-225 0 -365.5 -163 q-140.5 -163 -140.5 -427 q0 -266 137 -427.5 q137 -161.5 358 -161.5 q236 0 371.5 154 q135.5 154 135.5 432 q0 280 -131.5 436.5 q-131.5 156.5 -364.5 156.5 ZM1041 638 l-537 0 l0 156 l537 0 l0 -156 Z" /><glyph glyph-name="Phi" unicode="&#x3a6;" d="M850 186 l0 -201 l-156 0 l0 201 l-43 0 q-249 0 -402 158 q-153 158 -153 410 q0 246 152.5 395 q152.5 149 404.5 149 l41 0 l0 149 l156 0 l0 -149 l42 0 q252 0 403.5 -149.5 q151.5 -149.5 151.5 -394.5 q0 -253 -154 -410.5 q-154 -157.5 -399 -157.5 l-44 0 ZM850 1156 l0 -820 l44 0 q182 0 285.5 110 q103.5 110 103.5 306 q0 185 -105.5 294.5 q-105.5 109.5 -285.5 109.5 l-42 0 ZM694 336 l0 820 l-41 0 q-179 0 -286 -109 q-107 -109 -107 -296 q0 -196 103.5 -305.5 q103.5 -109.5 287.5 -109.5 l43 0 Z" /><glyph glyph-name="alpha" unicode="&#x3b1;" d="M1221 5 q-53 -13 -95 -13 q-154 0 -208 293 l-4 0 q-148 -309 -414 -309 q-186 0 -298 143.5 q-112 143.5 -112 362.5 q0 250 129 408 q129 158 349 158 q126 0 225 -75 q99 -75 150 -211 l4 0 l85 262 l172 0 l-193 -502 q34 -219 72 -297.5 q38 -78.5 98 -78.5 q23 0 40 5 l0 -146 ZM873 520 q-38 190 -116 291 q-78 101 -188 101 q-142 0 -226.5 -121 q-84.5 -121 -84.5 -299 q0 -158 71.5 -265 q71.5 -107 192.5 -107 q106 0 192.5 90.5 q86.5 90.5 144.5 266.5 l14 43 Z" /><glyph glyph-name="delta" unicode="&#x3b4;" d="M999 1470 l0 -183 q-168 101 -340 101 q-100 0 -160.5 -34.5 q-60.5 -34.5 -60.5 -92.5 q0 -47 52 -99.5 q52 -52.5 172 -125.5 q162 -99 255 -176 q93 -77 141.5 -172.5 q48.5 -95.5 48.5 -206.5 q0 -233 -141 -369.5 q-141 -136.5 -380 -136.5 q-219 0 -356.5 133.5 q-137.5 133.5 -137.5 348.5 q0 155 106 284 q106 129 309 217 q-238 147 -238 310 q0 128 104 197 q104 69 286 69 q164 0 340 -64 ZM634 883 q-366 -148 -366 -425 q0 -157 90.5 -249.5 q90.5 -92.5 240.5 -92.5 q157 0 250 96 q93 96 93 257 q0 117 -71.5 212.5 q-71.5 95.5 -236.5 201.5 Z" /><glyph glyph-name="epsilon" unicode="&#x3b5;" d="M827 22 q-130 -47 -325 -47 q-195 0 -307.5 82.5 q-112.5 82.5 -112.5 219.5 q0 93 69.5 161 q69.5 68 183.5 89 l0 4 q-86 18 -150 82.5 q-64 64.5 -64 147.5 q0 136 106.5 212 q106.5 76 284.5 76 q143 0 270 -45 l0 -165 q-133 71 -280 71 q-215 0 -215 -147 q0 -75 81 -121 q81 -46 206 -46 q73 0 118 4 l0 -146 q-73 4 -140 4 q-304 0 -304 -178 q0 -75 70.5 -120.5 q70.5 -45.5 198.5 -45.5 q167 0 310 73 l0 -165 Z" /><glyph glyph-name="sigma" unicode="&#x3c3;" d="M1154 892 l-256 0 q142 -182 142 -403 q0 -227 -126 -370 q-126 -143 -338 -143 q-219 0 -349 143.5 q-130 143.5 -130 382.5 q0 522 521 522 l536 0 l0 -132 ZM750 892 l-118 0 q-366 0 -366 -397 q0 -172 84.5 -275.5 q84.5 -103.5 225.5 -103.5 q137 0 216.5 104.5 q79.5 104.5 79.5 279.5 q0 220 -122 392 Z" /><glyph glyph-name="tau" unicode="&#x3c4;" d="M965 892 l-391 0 l0 -618 q0 -142 116 -142 q54 0 108 20 l0 -142 q-66 -22 -138 -22 q-249 0 -249 288 l0 616 l-141 0 q-114 0 -236 -88 l0 148 q76 72 240 72 l691 0 l0 -132 Z" /><glyph glyph-name="phi" unicode="&#x3c6;" d="M822 -24 q-4 -4 -34 0 l0 -458 l-148 0 l0 458 q-24 -4 -28 0 q-236 0 -376 144 q-140 144 -140 390 q0 315 210 514 l194 0 q-236 -216 -236 -518 q0 -184 95.5 -287 q95.5 -103 250.5 -103 l30 0 l0 661 q0 271 274 271 q188 0 305 -148.5 q117 -148.5 117 -399.5 q0 -233 -140.5 -378.5 q-140.5 -145.5 -373.5 -145.5 ZM788 116 l34 0 q152 0 249 105.5 q97 105.5 97 286.5 q0 180 -73.5 290 q-73.5 110 -176.5 110 q-130 0 -130 -129 l0 -663 Z" /><glyph glyph-name="underscoredbl" unicode="&#x2017;" d="M0 -277 l0 119 l850 0 l0 -119 l-850 0 ZM0 -514 l0 119 l850 0 l0 -119 l-850 0 Z" /><glyph glyph-name="nsuperior" unicode="&#x207f;" d="M238 717 l-128 0 l0 719 l128 0 l0 -115 l4 0 q67 135 210 135 q120 0 187 -74 q67 -74 67 -206 l0 -459 l-130 0 l0 451 q0 176 -151 176 q-74 0 -130.5 -60.5 q-56.5 -60.5 -56.5 -145.5 l0 -421 Z" /><glyph glyph-name="peseta" unicode="&#x20a7;" d="M356 542 l0 -542 l-168 0 l0 1434 l312 0 q462 0 462 -428 q0 -210 -132 -337 q-132 -127 -367 -127 l-107 0 ZM356 1282 l0 -588 l94 0 q336 0 336 304 q0 284 -315 284 l-115 0 ZM1552 10 q-58 -32 -153 -32 q-131 0 -189.5 71 q-58.5 71 -58.5 229 l0 464 l-155 0 l0 138 l155 0 l0 250 l164 54 l0 -304 l237 0 l0 -138 l-237 0 l0 -435 q0 -191 131 -191 q59 0 106 34 l0 -140 ZM1620 37 l0 176 q121 -99 258 -99 q162 0 162 114 q0 40 -32 80 q-32 40 -278 132 q-108 62 -108 178 q0 121 92 193.5 q92 72.5 238 72.5 q130 0 208 -46 l0 -160 q-96 68 -210 68 q-72 0 -116 -31.5 q-44 -31.5 -44 -81.5 q0 -57 108 -101 q94 -39 164.5 -70.5 q70.5 -31.5 108 -87.5 q37.5 -56 37.5 -130 q0 -125 -88 -196.5 q-88 -71.5 -242 -71.5 q-162 0 -258 61 Z" /><glyph glyph-name="minute" unicode="&#x2032;" d="M350 1434 l-104 -447 l-116 0 l86 447 l134 0 Z" /><glyph glyph-name="second" unicode="&#x2033;" d="M644 1434 l-106 -447 l-116 0 l86 447 l136 0 ZM361 1434 l-105 -447 l-115 0 l85 447 l135 0 Z" /><glyph glyph-name="uni2105" unicode="&#x2105;" d="M759 1271 q-79 67 -169 67 q-118 0 -189.5 -97.5 q-71.5 -97.5 -71.5 -224.5 q0 -188 154 -188 q86 0 204 79 l-31 -141 q-102 -53 -194 -53 q-128 0 -199 79.5 q-71 79.5 -71 214.5 q0 191 114 319 q114 128 298 128 q114 0 187 -50 l-32 -133 ZM1526 1434 l-1229 -1434 l-147 0 l1228 1434 l148 0 ZM1164 -20 q-141 0 -215.5 82 q-74.5 82 -74.5 214 q0 178 112 311 q112 133 281 133 q131 0 207 -78 q76 -78 76 -214 q0 -181 -110.5 -314.5 q-110.5 -133.5 -275.5 -133.5 ZM1264 610 q-108 0 -182 -105 q-74 -105 -74 -230 q0 -184 160 -184 q104 0 175.5 99 q71.5 99 71.5 233 q0 187 -151 187 Z" /><glyph glyph-name="uni2113" unicode="&#x2113;" d="M14 422 l178 236 l0 454 q0 226 61.5 302.5 q61.5 76.5 172.5 76.5 q100 0 159.5 -67.5 q59.5 -67.5 59.5 -171.5 q0 -195 -285 -586 l0 -416 q0 -90 14 -110.5 q14 -20.5 44 -20.5 q48 0 198 107 l0 -162 q-112 -88 -225 -88 q-199 0 -199 241 l0 225 l-80 -98 l-98 78 ZM360 899 q109 187 127.5 243.5 q18.5 56.5 18.5 109.5 q0 118 -76 118 q-29 0 -49.5 -31 q-20.5 -31 -20.5 -213 l0 -227 Z" /><glyph glyph-name="uni25A1" unicode="&#x25a1;" d="M146 944 l944 0 l0 -944 l-944 0 l0 944 ZM221 868 l0 -792 l793 0 l0 792 l-793 0 Z" /><glyph glyph-name="uni25AA" unicode="&#x25aa;" d="M594 908 l0 -464 l-463 0 l0 464 l463 0 Z" /><glyph glyph-name="uni25AB" unicode="&#x25ab;" d="M131 908 l463 0 l0 -464 l-463 0 l0 464 ZM207 832 l0 -312 l311 0 l0 312 l-311 0 Z" /><glyph glyph-name="uni25CF" unicode="&#x25cf;" d="M1059 578 q0 -184 -128.5 -312.5 q-128.5 -128.5 -310.5 -128.5 q-184 0 -313 128.5 q-129 128.5 -129 312.5 q0 185 131 312.5 q131 127.5 309 127.5 q183 0 312 -130 q129 -130 129 -310 Z" /><glyph glyph-name="openbullet" unicode="&#x25e6;" d="M614 678 q0 -106 -73 -179 q-73 -73 -178 -73 q-103 0 -177 74 q-74 74 -74 178 q0 102 73 176 q73 74 178 74 q103 0 177 -74 q74 -74 74 -176 ZM188 678 q0 -74 51.5 -125 q51.5 -51 124.5 -51 q74 0 124 51 q50 51 50 125 q0 73 -51 123.5 q-51 50.5 -125 50.5 q-72 0 -123 -51.5 q-51 -51.5 -51 -122.5 Z" /><glyph glyph-name="gcommaaccent" unicode="&#x123;" d="M1040 82 q0 -564 -540 -564 q-193 0 -332 72 l0 164 q174 -96 330 -96 q378 0 378 402 l0 112 l-4 0 q-116 -196 -352 -196 q-190 0 -307 137.5 q-117 137.5 -117 365.5 q0 261 125.5 415 q125.5 154 343.5 154 q209 0 307 -166 l4 0 l0 142 l164 0 l0 -942 ZM876 463 l0 151 q0 121 -82 208.5 q-82 87.5 -206 87.5 q-154 0 -239 -111 q-85 -111 -85 -309 q0 -170 83 -273 q83 -103 218 -103 q139 0 225 97.5 q86 97.5 86 251.5 ZM471 1218 l166 260 l123 0 l-117 -260 l-172 0 Z" /><glyph glyph-name="Hbar" unicode="&#x126;" d="M1266 0 l-168 0 l0 654 l-742 0 l0 -654 l-168 0 l0 1028 l-160 0 l0 152 l160 0 l0 254 l168 0 l0 -254 l742 0 l0 254 l168 0 l0 -254 l160 0 l0 -152 l-160 0 l0 -1028 ZM356 1028 l0 -223 l742 0 l0 223 l-742 0 Z" /><glyph glyph-name="hbar" unicode="&#x127;" d="M1016 0 l-164 0 l0 590 q0 320 -238 320 q-120 0 -202 -92.5 q-82 -92.5 -82 -237.5 l0 -580 l-164 0 l0 1202 l-136 0 l0 134 l136 0 l0 180 l164 0 l0 -180 l332 0 l0 -134 l-332 0 l0 -348 l4 0 q120 194 336 194 q168 0 257 -107 q89 -107 89 -310 l0 -631 Z" /><glyph glyph-name="kgreenlandic" unicode="&#x138;" d="M1016 0 l-230 0 l-452 492 l-4 0 l0 -492 l-164 0 l0 1024 l164 0 l0 -469 l4 0 l430 469 l215 0 l-475 -494 l512 -530 Z" /><glyph glyph-name="Eng" unicode="&#x14a;" d="M400 1143 q-22 32 -46 90 l-6 0 q8 -53 8 -197 l0 -1036 l-168 0 l0 1434 l218 0 l718 -1066 q2 -2 58 -104 l4 0 q-10 72 -10 220 l0 950 l168 0 l0 -1370 q0 -486 -365 -486 q-76 0 -137 31 l0 165 q78 -44 141 -44 q189 0 189 270 l-772 1143 Z" /><glyph glyph-name="eng" unicode="&#x14b;" d="M1016 26 q0 -448 -358 -448 q-76 0 -138 31 l0 165 q78 -44 142 -44 q190 0 190 270 l0 584 q0 326 -238 326 q-122 0 -203 -92.5 q-81 -92.5 -81 -233.5 l0 -584 l-164 0 l0 1024 l164 0 l0 -170 l4 0 q117 194 336 194 q346 0 346 -422 l0 -600 Z" /><glyph glyph-name="Tbar" unicode="&#x166;" d="M1036 1282 l-414 0 l0 -486 l246 0 l0 -155 l-246 0 l0 -641 l-168 0 l0 641 l-249 0 l0 155 l249 0 l0 486 l-413 0 l0 152 l995 0 l0 -152 Z" /><glyph glyph-name="tbar" unicode="&#x167;" d="M631 547 l-248 0 l0 -240 q0 -103 34.5 -147 q34.5 -44 116.5 -44 q60 0 107 34 l0 -140 q-58 -32 -153 -32 q-269 0 -269 300 l0 269 l-163 0 l0 133 l163 0 l0 204 l-176 0 l0 140 l176 0 l0 250 q4 2 82 27 l82 26 l0 -303 l258 0 l0 -140 l-258 0 l0 -204 l248 0 l0 -133 Z" /><glyph glyph-name="longs" unicode="&#x17f;" d="M610 1372 q-46 27 -108 27 q-172 0 -172 -217 l0 -1182 l-164 0 l0 1190 q0 161 94.5 254.5 q94.5 93.5 231.5 93.5 q74 0 118 -18 l0 -148 Z" /><glyph glyph-name="Aringacute" unicode="&#x1fa;" d="M1298 0 l-186 0 l-152 402 l-608 0 l-143 -402 l-187 0 l529 1378 q-101 52 -101 164 q0 89 60 144 q60 55 152 55 q88 0 144 -54.5 q56 -54.5 56 -138.5 q0 -112 -96 -166 l532 -1382 ZM656 1659 q-50 0 -82 -31.5 q-32 -31.5 -32 -79.5 q0 -114 114 -114 q48 0 81 33 q33 33 33 81 q0 49 -33 80 q-33 31 -81 31 ZM905 553 l-225 611 q-11 30 -22 96 l-4 0 q-10 -61 -23 -96 l-223 -611 l497 0 ZM924 2130 l-262 -328 l-127 0 l223 328 l166 0 Z" /><glyph glyph-name="anoteleia" unicode="&#x387;" d="M223 510 q-46 0 -78.5 33 q-32.5 33 -32.5 79 q0 47 32.5 80 q32.5 33 78.5 33 q47 0 80 -33 q33 -33 33 -80 q0 -46 -33 -79 q-33 -33 -80 -33 Z" /><glyph glyph-name="quotereversed" unicode="&#x201b;" d="M368 1012 l-116 0 l-142 446 l148 0 l110 -446 Z" /><glyph glyph-name="radicalex" unicode="&#x203e;" d="M850 1396 l-850 0 l0 120 l850 0 l0 -120 Z" /><glyph glyph-name="lira" unicode="&#x20a4;" d="M784 488 l-296 0 l0 -9 q0 -243 -193 -339 l711 0 l0 -140 l-900 0 l0 135 q218 71 218 313 l0 40 l-197 0 l0 140 l197 0 l0 136 l-197 0 l0 141 l197 0 l0 125 q0 188 109 308 q109 120 282 120 q118 0 213 -41 l0 -155 q-99 57 -211 57 q-229 0 -229 -307 l0 -107 l296 0 l0 -141 l-296 0 l0 -136 l296 0 l0 -140 Z" /><glyph glyph-name="estimated" unicode="&#x212e;" d="M1144 530 l-828 0 l1 -370 q120 -121 296 -121 q255 0 395 245 l72 -42 q-104 -152 -213.5 -214.5 q-109.5 -62.5 -252.5 -62.5 q-238 0 -383.5 161.5 q-145.5 161.5 -145.5 403.5 q0 254 148.5 410 q148.5 156 376.5 156 q216 0 368 -142 q152 -142 166 -424 ZM912 604 l0 297 q-130 123 -303 123 q-175 0 -293 -123 l0 -297 l596 0 Z" /><glyph glyph-name="tonos" unicode="&#x384;" d="M475 1537 l-175 -363 l-94 0 l102 363 l167 0 Z" /><glyph glyph-name="dieresistonos" unicode="&#x385;" d="M470 1551 l-175 -363 l-93 0 l101 363 l167 0 ZM545 1224 q-40 0 -68.5 28 q-28.5 28 -28.5 70 q0 42 28.5 70 q28.5 28 67.5 28 q42 0 71 -28.5 q29 -28.5 29 -69.5 q0 -42 -29 -70 q-29 -28 -70 -28 ZM60 1224 q-40 0 -69 28 q-29 28 -29 70 q0 42 29 70 q29 28 69 28 q41 0 70.5 -28.5 q29.5 -28.5 29.5 -69.5 q0 -42 -29 -70 q-29 -28 -71 -28 Z" /><glyph glyph-name="Lambda" unicode="&#x39b;" d="M1263 0 l-187 0 l-404 1150 q-16 47 -28 118 l-4 0 q-10 -62 -30 -119 l-406 -1149 l-180 0 l526 1434 l190 0 l523 -1434 Z" /><glyph glyph-name="Xi" unicode="&#x39e;" d="M960 1274 l-876 0 l0 160 l876 0 l0 -160 ZM822 648 l-599 0 l0 153 l599 0 l0 -153 ZM987 0 l-929 0 l0 162 l929 0 l0 -162 Z" /><glyph glyph-name="Pi" unicode="&#x3a0;" d="M1276 0 l-170 0 l0 1278 l-749 0 l0 -1278 l-169 0 l0 1434 l1088 0 l0 -1434 Z" /><glyph glyph-name="Sigma" unicode="&#x3a3;" d="M1008 0 l-962 0 l0 78 l465 660 l-423 606 l0 90 l858 0 l0 -155 l-613 0 l379 -535 l-420 -596 l716 0 l0 -148 Z" /><glyph glyph-name="Psi" unicode="&#x3a8;" d="M872 1434 l0 -896 l57 0 q362 0 362 366 l0 530 l163 0 l0 -530 q0 -227 -143 -370.5 q-143 -143.5 -382 -143.5 l-57 0 l0 -390 l-155 0 l0 390 l-57 0 q-240 0 -382 143.5 q-142 143.5 -142 370.5 l0 530 l162 0 l0 -530 q0 -366 362 -366 l57 0 l0 896 l155 0 Z" /><glyph glyph-name="beta" unicode="&#x3b2;" d="M329 46 l0 -527 l-162 0 l0 1596 q0 191 110 304 q110 113 295 113 q173 0 272.5 -90.5 q99.5 -90.5 99.5 -250.5 q0 -120 -76.5 -224.5 q-76.5 -104.5 -198.5 -143.5 l0 -4 q181 -29 278.5 -136.5 q97.5 -107.5 97.5 -273.5 q0 -193 -121 -313.5 q-121 -120.5 -318 -120.5 q-152 0 -277 71 ZM497 741 l0 131 q123 17 202.5 103.5 q79.5 86.5 79.5 195.5 q0 221 -210 221 q-116 0 -178 -77 q-62 -77 -62 -217 l0 -896 q140 -87 274 -87 q129 0 201.5 74.5 q72.5 74.5 72.5 208.5 q0 303 -380 343 Z" /><glyph glyph-name="gamma" unicode="&#x3b3;" d="M567 -69 q0 -320 -4 -412 l-175 0 q15 169 15 495 q-40 215 -158 515.5 q-118 300.5 -240 494.5 l188 0 q249 -444 343 -881 l4 0 q166 244 228.5 415.5 q62.5 171.5 62.5 335.5 q0 62 -10 130 l171 0 q6 -53 6 -85 q0 -134 -30 -263 q-30 -129 -93.5 -255.5 q-63.5 -126.5 -112.5 -197.5 l-195 -292 Z" /><glyph glyph-name="zeta" unicode="&#x3b6;" d="M825 -309 l-179 0 q98 79 98 156 q0 68 -62.5 99.5 q-62.5 31.5 -200.5 49.5 q-405 50 -405 455 q0 434 596 928 l0 4 l-436 0 l0 133 l603 0 l0 -135 q-593 -517 -593 -927 q0 -250 288 -297 q211 -35 286 -104.5 q75 -69.5 75 -180.5 q0 -100 -70 -181 Z" /><glyph glyph-name="eta" unicode="&#x3b7;" d="M1016 -404 l-166 0 l0 976 q0 327 -236 327 q-124 0 -204.5 -88.5 q-80.5 -88.5 -80.5 -223.5 l0 -587 l-163 0 l0 694 q0 234 -36 330 l168 0 q28 -74 28 -173 l4 0 q111 197 340 197 q346 0 346 -418 l0 -1034 Z" /><glyph glyph-name="theta" unicode="&#x3b8;" d="M590 -24 q-233 0 -363 201 q-130 201 -130 565 q0 383 135.5 587.5 q135.5 204.5 389.5 204.5 q482 0 482 -767 q0 -378 -134.5 -584.5 q-134.5 -206.5 -379.5 -206.5 ZM934 836 q-18 558 -329 558 q-150 0 -240 -151.5 q-90 -151.5 -100 -406.5 l669 0 ZM935 704 l-671 0 q5 -287 94 -437.5 q89 -150.5 246 -150.5 q153 0 239.5 152.5 q86.5 152.5 91.5 435.5 Z" /><glyph glyph-name="iota" unicode="&#x3b9;" d="M520 10 q-62 -22 -121 -22 q-233 0 -233 277 l0 759 l163 0 l0 -754 q0 -138 101 -138 q42 0 90 18 l0 -140 Z" /><glyph glyph-name="kappa" unicode="&#x3ba;" d="M1043 0 l-203 0 l-370 500 l-141 -152 l0 -348 l-163 0 l0 1024 l163 0 l0 -498 l275 312 q117 133 173.5 166.5 q56.5 33.5 102.5 33.5 q72 0 106 -7 l0 -145 q-30 8 -80 8 q-66 0 -210 -156 l-115 -125 l462 -613 Z" /><glyph glyph-name="lambda" unicode="&#x3bb;" d="M991 0 l-177 0 l-279 827 l-356 -827 l-181 0 l463 1016 l-67 197 q-53 155 -156 155 q-54 0 -122 -19 l0 157 q64 12 130 12 q112 0 181.5 -63.5 q69.5 -63.5 131.5 -241.5 l432 -1213 Z" /><glyph glyph-name="mu" unicode="&#x3bc;" d="M840 174 q-88 -198 -287 -198 q-155 0 -219 124 l-4 0 l0 -581 l-163 0 l0 1505 l163 0 l0 -624 q0 -122 65.5 -199 q65.5 -77 173.5 -77 q116 0 183 88 q67 88 67 228 l0 584 l163 0 l0 -721 q0 -166 122 -166 q23 0 40 5 l0 -137 q-53 -13 -95 -13 q-85 0 -133 44 q-48 44 -70 138 l-6 0 Z" /><glyph glyph-name="nu" unicode="&#x3bd;" d="M584 0 l-164 0 l-408 1024 l181 0 l335 -868 q272 343 272 658 q0 122 -34 210 l177 0 q23 -70 23 -186 q0 -378 -382 -838 Z" /><glyph glyph-name="xi" unicode="&#x3be;" d="M816 -316 l-179 0 q97 78 97 161 q0 59 -46.5 95.5 q-46.5 36.5 -208.5 56.5 q-193 25 -297.5 132.5 q-104.5 107.5 -104.5 280.5 q0 132 81.5 235 q81.5 103 231.5 158 q-107 29 -164.5 94.5 q-57.5 65.5 -57.5 154.5 q0 112 96 201 q96 89 260 128 l0 7 q-320 -5 -358 -5 l0 134 l606 0 l0 -137 q-199 -31 -318 -113.5 q-119 -82.5 -119 -197.5 q0 -71 44 -120 q44 -49 112.5 -69 q68.5 -20 113.5 -20 q23 0 73 3 q49 3 78 3 l0 -150 q-48 3 -113 3 q-170 0 -283.5 -80.5 q-113.5 -80.5 -113.5 -215.5 q0 -219 284 -264 q201 -32 278.5 -101.5 q77.5 -69.5 77.5 -187.5 q0 -105 -70 -186 Z" /><glyph glyph-name="rho" unicode="&#x3c1;" d="M328 99 l-4 0 l0 -495 l-163 0 l0 922 q0 247 115 384.5 q115 137.5 337 137.5 q223 0 357 -147 q134 -147 134 -372 q0 -261 -123.5 -407 q-123.5 -146 -344.5 -146 q-193 0 -308 123 ZM324 259 q39 -62 121 -102.5 q82 -40.5 171 -40.5 q318 0 318 404 q0 170 -89 279 q-89 109 -229 109 q-143 0 -217.5 -99 q-74.5 -99 -74.5 -285 l0 -265 Z" /><glyph glyph-name="sigma1" unicode="&#x3c2;" d="M827 -316 l-181 0 q98 76 98 164 q0 70 -61.5 101.5 q-61.5 31.5 -193.5 48.5 q-194 25 -298 140 q-104 115 -104 293 q0 280 151.5 449 q151.5 169 387.5 169 q127 0 228 -52 l0 -167 q-114 79 -243 79 q-153 0 -253.5 -131 q-100.5 -131 -100.5 -328 q0 -71 23 -125 q23 -54 67 -88.5 q44 -34.5 73.5 -43.5 q29.5 -9 310.5 -84 q166 -62 166 -239 q0 -105 -70 -186 Z" /><glyph glyph-name="upsilon" unicode="&#x3c5;" d="M174 711 q0 91 -20.5 133.5 q-20.5 42.5 -76.5 42.5 q-26 0 -57 -7 l0 138 q48 13 95 13 q124 0 172.5 -74 q48.5 -74 48.5 -239 l0 -257 q0 -341 269 -341 q127 0 197.5 88.5 q70.5 88.5 70.5 249.5 q0 299 -147 566 l183 0 q129 -250 129 -559 q0 -227 -116 -359 q-116 -132 -317 -132 q-208 0 -319.5 118 q-111.5 118 -111.5 340 l0 279 Z" /><glyph glyph-name="chi" unicode="&#x3c7;" d="M1094 -470 q-43 -9 -92 -9 q-90 0 -155 67 q-65 67 -140 239 l-159 363 l-351 -657 l-185 0 l454 824 l-174 393 q-66 148 -138 148 q-48 0 -88 -14 l0 154 q34 10 107 10 q86 0 139.5 -46 q53.5 -46 104.5 -166 l140 -330 l273 518 l185 0 l-375 -680 l236 -524 q68 -150 140 -150 q37 0 78 16 l0 -156 Z" /><glyph glyph-name="psi" unicode="&#x3c8;" d="M1384 556 q0 -268 -142.5 -423.5 q-142.5 -155.5 -375.5 -155.5 l-24 0 l0 -459 l-148 0 l0 459 l-24 0 q-235 0 -376.5 155 q-141.5 155 -141.5 424 l0 468 l166 0 l0 -468 q0 -196 100 -315.5 q100 -119.5 252 -119.5 l24 0 l0 1210 l148 0 l0 -1210 l24 0 q150 0 251 119 q101 119 101 316 l0 468 l166 0 l0 -468 Z" /><glyph glyph-name="omega" unicode="&#x3c9;" d="M829 168 l-4 0 q-103 -191 -305 -191 q-189 0 -295 127.5 q-106 127.5 -106 351.5 q0 258 126 568 l183 0 q-143 -319 -143 -574 q0 -159 61 -244 q61 -85 170 -85 q230 0 230 346 l0 283 l164 0 l0 -283 q0 -346 229 -346 q107 0 168.5 85 q61.5 85 61.5 244 q0 255 -142 574 l182 0 q127 -311 127 -568 q0 -225 -106.5 -352 q-106.5 -127 -297.5 -127 q-202 0 -303 191 Z" /><glyph glyph-name="uni0402" unicode="&#x402;" d="M766 6 l0 154 q66 -33 160 -33 q97 0 154.5 69.5 q57.5 69.5 57.5 188.5 q0 139 -84.5 216 q-84.5 77 -236.5 77 l-249 0 l0 -678 l-168 0 l0 1282 l-359 0 l0 152 l995 0 l0 -152 l-468 0 l0 -456 l253 0 q226 0 357.5 -115 q131.5 -115 131.5 -324 q0 -192 -99.5 -298.5 q-99.5 -106.5 -280.5 -106.5 q-92 0 -164 24 Z" /><glyph glyph-name="uni0404" unicode="&#x404;" d="M1157 60 q-158 -84 -393 -84 q-303 0 -486.5 197.5 q-183.5 197.5 -183.5 516.5 q0 347 194.5 557.5 q194.5 210.5 503.5 210.5 q214 0 365 -59 l0 -179 q-163 86 -367 86 q-215 0 -353.5 -137.5 q-138.5 -137.5 -162.5 -378.5 l634 0 l0 -151 l-636 0 q16 -239 152.5 -375.5 q136.5 -136.5 351.5 -136.5 q224 0 381 96 l0 -163 Z" /><glyph glyph-name="uni0409" unicode="&#x409;" d="M1188 825 l272 0 q215 0 333 -103 q118 -103 118 -294 q0 -196 -124 -312 q-124 -116 -341 -116 l-426 0 l0 1282 l-398 0 q-69 -542 -109 -766 q-40 -224 -81 -330 q-41 -106 -111 -157.5 q-70 -51.5 -168 -51.5 q-79 0 -137 21 l0 158 q51 -29 113 -29 q62 0 116.5 74 q54.5 74 111 385 q56.5 311 125.5 848 l706 0 l0 -609 ZM1188 674 l0 -522 l235 0 q150 0 231 70.5 q81 70.5 81 195.5 q0 256 -312 256 l-235 0 Z" /><glyph glyph-name="uni040A" unicode="&#x40a;" d="M1026 0 l0 672 l-670 0 l0 -672 l-168 0 l0 1434 l168 0 l0 -610 l670 0 l0 610 l168 0 l0 -608 l272 0 q213 0 332 -103 q119 -103 119 -295 q0 -198 -124.5 -313 q-124.5 -115 -340.5 -115 l-426 0 ZM1194 674 l0 -522 l236 0 q149 0 230 70.5 q81 70.5 81 195.5 q0 256 -311 256 l-236 0 Z" /><glyph glyph-name="uni040B" unicode="&#x40b;" d="M1354 0 l-168 0 l0 389 q0 295 -285 295 l-279 0 l0 -684 l-168 0 l0 1282 l-413 0 l0 152 l995 0 l0 -152 l-414 0 l0 -450 l281 0 q451 0 451 -443 l0 -389 Z" /><glyph glyph-name="uni040F" unicode="&#x40f;" d="M1266 0 l-464 0 l0 -384 l-154 0 l0 384 l-460 0 l0 1434 l168 0 l0 -1282 l742 0 l0 1282 l168 0 l0 -1434 Z" /><glyph glyph-name="uni0411" unicode="&#x411;" d="M188 0 l0 1434 l766 0 l0 -152 l-598 0 l0 -456 l272 0 q214 0 333 -103.5 q119 -103.5 119 -294.5 q0 -198 -125 -313 q-125 -115 -341 -115 l-426 0 ZM356 674 l0 -522 l236 0 q149 0 230 70 q81 70 81 196 q0 256 -311 256 l-236 0 Z" /><glyph glyph-name="uni0414" unicode="&#x414;" d="M1352 -385 l-155 0 l0 385 l-1027 0 l0 -385 l-155 0 l0 537 l111 0 q144 263 244.5 614.5 q100.5 351.5 113.5 667.5 l675 0 l0 -1282 l193 0 l0 -537 ZM991 152 l0 1130 l-364 0 q-16 -247 -110 -578 q-94 -331 -209 -552 l683 0 Z" /><glyph glyph-name="uni0416" unicode="&#x416;" d="M1794 0 l-225 0 l-561 656 q-24 28 -37 50 l-5 0 l0 -706 l-159 0 l0 706 l-4 0 q-15 -25 -37 -50 l-561 -656 l-227 0 l657 744 l-613 690 l206 0 l538 -621 q22 -25 37 -49 l4 0 l0 670 l159 0 l0 -670 l5 0 q13 22 37 49 l538 621 l205 0 l-613 -690 l656 -744 Z" /><glyph glyph-name="uni0417" unicode="&#x417;" d="M96 60 l0 182 q168 -123 381 -123 q155 0 246.5 75 q91.5 75 91.5 202 q0 276 -373 276 l-149 0 l0 139 l137 0 q159 0 246.5 69 q87.5 69 87.5 195 q0 108 -72.5 173 q-72.5 65 -199.5 65 q-180 0 -350 -113 l0 170 q158 88 364 88 q204 0 321 -97 q117 -97 117 -255 q0 -279 -272 -352 l0 -4 q148 -17 235 -111 q87 -94 87 -233 q0 -197 -140 -313.5 q-140 -116.5 -383 -116.5 q-243 0 -375 84 Z" /><glyph glyph-name="uni0418" unicode="&#x418;" d="M1344 0 l-168 0 l0 1036 q0 140 10 197 l-6 0 q-19 -49 -46 -90 l-738 -1143 l-208 0 l0 1434 l168 0 l0 -1010 q0 -162 -8 -211 l4 0 q22 44 56 96 l720 1125 l216 0 l0 -1434 Z" /><glyph glyph-name="uni041B" unicode="&#x41b;" d="M1188 0 l-168 0 l0 1282 l-398 0 q-69 -542 -109 -766 q-40 -224 -81 -330 q-41 -106 -111 -157.5 q-70 -51.5 -168 -51.5 q-79 0 -137 21 l0 158 q51 -29 113 -29 q62 0 116.5 74 q54.5 74 111 385 q56.5 311 125.5 848 l706 0 l0 -1434 Z" /><glyph glyph-name="uni0423" unicode="&#x423;" d="M1174 1434 l-443 -1001 q-118 -266 -228 -362 q-110 -96 -240 -96 q-107 0 -179 31 l0 170 q86 -51 166 -51 q81 0 149 62.5 q68 62.5 147 220.5 l-486 1026 l191 0 l344 -766 q9 -19 37 -93 l2 0 q3 9 41 97 l319 762 l180 0 Z" /><glyph glyph-name="uni0424" unicode="&#x424;" d="M830 188 l0 -188 l-156 0 l0 188 l-27 0 q-240 0 -396.5 163.5 q-156.5 163.5 -156.5 402.5 q0 228 156 384 q156 156 399 156 l25 0 l0 180 l156 0 l0 -180 l24 0 q246 0 400.5 -153.5 q154.5 -153.5 154.5 -386.5 q0 -236 -156.5 -401 q-156.5 -165 -396.5 -165 l-26 0 ZM830 1153 l0 -817 l26 0 q171 0 274 113.5 q103 113.5 103 302.5 q0 180 -103 290.5 q-103 110.5 -276 110.5 l-24 0 ZM674 336 l0 817 l-25 0 q-170 0 -274.5 -112 q-104.5 -112 -104.5 -289 q0 -190 103 -303 q103 -113 274 -113 l27 0 Z" /><glyph glyph-name="uni0426" unicode="&#x426;" d="M1458 -385 l-155 0 l0 385 l-1115 0 l0 1434 l168 0 l0 -1282 l742 0 l0 1282 l168 0 l0 -1282 l192 0 l0 -537 Z" /><glyph glyph-name="uni0427" unicode="&#x427;" d="M1153 0 l-168 0 l0 645 q-229 -121 -426 -121 q-188 0 -290.5 97.5 q-102.5 97.5 -102.5 273.5 l0 539 l168 0 l0 -531 q0 -231 246 -231 q178 0 405 110 l0 652 l168 0 l0 -1434 Z" /><glyph glyph-name="uni0428" unicode="&#x428;" d="M1753 0 l-1565 0 l0 1434 l168 0 l0 -1282 l531 0 l0 1282 l167 0 l0 -1282 l531 0 l0 1282 l168 0 l0 -1434 Z" /><glyph glyph-name="uni0429" unicode="&#x429;" d="M1946 -385 l-155 0 l0 385 l-1603 0 l0 1434 l168 0 l0 -1282 l531 0 l0 1282 l168 0 l0 -1282 l530 0 l0 1282 l168 0 l0 -1282 l193 0 l0 -537 Z" /><glyph glyph-name="uni042A" unicode="&#x42a;" d="M454 0 l0 1280 l-413 0 l0 154 l581 0 l0 -608 l273 0 q213 0 332 -103 q119 -103 119 -295 q0 -198 -125 -313 q-125 -115 -341 -115 l-426 0 ZM622 674 l0 -522 l236 0 q149 0 230.5 70.5 q81.5 70.5 81.5 195.5 q0 256 -312 256 l-236 0 Z" /><glyph glyph-name="uni042B" unicode="&#x42b;" d="M1415 0 l-168 0 l0 1434 l168 0 l0 -1434 ZM188 0 l0 1434 l168 0 l0 -608 l272 0 q214 0 333 -103.5 q119 -103.5 119 -294.5 q0 -198 -125 -313 q-125 -115 -341 -115 l-426 0 ZM356 674 l0 -522 l236 0 q149 0 230 70 q81 70 81 196 q0 256 -311 256 l-236 0 Z" /><glyph glyph-name="uni042C" unicode="&#x42c;" d="M188 0 l0 1434 l168 0 l0 -608 l272 0 q214 0 333 -103.5 q119 -103.5 119 -294.5 q0 -198 -125 -313 q-125 -115 -341 -115 l-426 0 ZM356 674 l0 -522 l236 0 q149 0 230 70 q81 70 81 196 q0 256 -311 256 l-236 0 Z" /><glyph glyph-name="uni042D" unicode="&#x42d;" d="M104 60 l0 163 q157 -96 382 -96 q214 0 350.5 135.5 q136.5 135.5 152.5 376.5 l-635 0 l0 151 l633 0 q-26 245 -161.5 380.5 q-135.5 135.5 -352.5 135.5 q-203 0 -369 -86 l0 176 q154 62 369 62 q309 0 502 -207.5 q193 -207.5 193 -554.5 q0 -319 -185.5 -519.5 q-185.5 -200.5 -488.5 -200.5 q-231 0 -390 84 Z" /><glyph glyph-name="uni042E" unicode="&#x42e;" d="M690 670 l-334 0 l0 -670 l-168 0 l0 1434 l168 0 l0 -613 l340 0 q30 300 205 468.5 q175 168.5 455 168.5 q289 0 461.5 -197.5 q172.5 -197.5 172.5 -525.5 q0 -355 -177 -557 q-177 -202 -482 -202 q-286 0 -459.5 190 q-173.5 190 -181.5 504 ZM1350 1306 q-227 0 -355.5 -156 q-128.5 -156 -128.5 -429 q0 -283 122 -438.5 q122 -155.5 343 -155.5 q230 0 356.5 153 q126.5 153 126.5 432 q0 288 -121.5 441 q-121.5 153 -342.5 153 Z" /><glyph glyph-name="uni042F" unicode="&#x42f;" d="M1021 0 l-168 0 l0 610 l-209 0 q-60 0 -105.5 -32.5 q-45.5 -32.5 -97.5 -145.5 l-180 -432 l-200 0 l218 479 q21 47 64.5 99.5 q43.5 52.5 101.5 74.5 l0 4 q-143 31 -222.5 131 q-79.5 100 -79.5 242 q0 183 127.5 293.5 q127.5 110.5 334.5 110.5 l416 0 l0 -1434 ZM853 762 l0 520 l-233 0 q-142 0 -220.5 -67 q-78.5 -67 -78.5 -189 q0 -122 80 -193 q80 -71 215 -71 l237 0 Z" /><glyph glyph-name="uni0431" unicode="&#x431;" d="M958 1528 l0 -154 q-41 -30 -132 -45 q-225 -34 -314.5 -65.5 q-89.5 -31.5 -147 -134.5 q-57.5 -103 -73.5 -301 l4 0 q120 174 342 174 q203 0 327 -139 q124 -139 124 -367 q0 -235 -129.5 -377.5 q-129.5 -142.5 -348.5 -142.5 q-236 0 -363.5 167.5 q-127.5 167.5 -127.5 478.5 q0 242 46 410.5 q46 168.5 127.5 253.5 q81.5 85 181 117 q99.5 32 341.5 75 q96 22 143 50 ZM289 666 l0 -142 q1 -80 24 -157 q23 -77 66 -136 q43 -59 101.5 -88 q58.5 -29 133.5 -29 q137 0 221.5 102.5 q84.5 102.5 84.5 262.5 q0 176 -86.5 279.5 q-86.5 103.5 -233.5 103.5 q-206 0 -311 -196 Z" /><glyph glyph-name="uni0432" unicode="&#x432;" d="M166 0 l0 1024 l446 0 q151 0 238.5 -67 q87.5 -67 87.5 -183 q0 -199 -196 -242 q235 -30 235 -237 q0 -125 -96.5 -210 q-96.5 -85 -239.5 -85 l-475 0 ZM330 884 l0 -288 l246 0 q198 0 198 154 q0 134 -178 134 l-266 0 ZM330 456 l0 -316 l284 0 q199 0 199 161 q0 155 -223 155 l-260 0 Z" /><glyph glyph-name="uni0433" unicode="&#x433;" d="M735 884 l-405 0 l0 -884 l-164 0 l0 1024 l569 0 l0 -140 Z" /><glyph glyph-name="uni0434" unicode="&#x434;" d="M1059 -373 l-139 0 l0 373 l-762 0 l0 -373 l-140 0 l0 512 l91 0 q262 378 266 885 l532 0 l0 -885 l152 0 l0 -512 ZM743 139 l0 746 l-227 0 q-27 -414 -233 -746 l460 0 Z" /><glyph glyph-name="uni0436" unicode="&#x436;" d="M1526 0 l-222 0 l-458 506 l-4 0 l0 -506 l-156 0 l0 506 l-4 0 l-459 -506 l-219 0 l508 528 l-477 496 l209 0 l438 -479 l4 0 l0 479 l156 0 l0 -479 l4 0 l438 479 l211 0 l-479 -496 l510 -528 Z" /><glyph glyph-name="uni0437" unicode="&#x437;" d="M80 29 l0 161 q134 -75 313 -75 q271 0 271 172 q0 170 -297 170 l-101 0 l0 139 l96 0 q261 0 261 162 q0 69 -60 110 q-60 41 -164 41 q-149 0 -299 -75 l0 153 q170 62 312 62 q374 0 374 -275 q0 -89 -55.5 -153.5 q-55.5 -64.5 -155.5 -85.5 l0 -5 q114 -9 183 -77 q69 -68 69 -172 q0 -140 -113 -223 q-113 -83 -311 -83 q-211 0 -323 54 Z" /><glyph glyph-name="uni0438" unicode="&#x438;" d="M1024 0 l-148 0 l0 817 q-22 -43 -67 -121 l-473 -696 l-170 0 l0 1024 l150 0 l0 -807 q12 29 52 99 l486 708 l170 0 l0 -1024 Z" /><glyph glyph-name="uni043B" unicode="&#x43b;" d="M913 0 l-163 0 l0 885 l-238 0 q-41 -497 -140.5 -698 q-99.5 -201 -267.5 -201 q-51 0 -88 14 l0 141 q35 -18 76 -18 q220 0 283 901 l538 0 l0 -1024 Z" /><glyph glyph-name="uni043C" unicode="&#x43c;" d="M1272 0 l-162 0 l0 844 q-22 -64 -68 -188 l-256 -656 l-147 0 l-264 656 q-21 53 -68 188 l0 -844 l-141 0 l0 1024 l209 0 l270 -668 q29 -73 74 -202 l73 198 l262 672 l218 0 l0 -1024 Z" /><glyph glyph-name="uni043D" unicode="&#x43d;" d="M1016 0 l-164 0 l0 465 l-522 0 l0 -465 l-164 0 l0 1024 l164 0 l0 -420 l522 0 l0 420 l164 0 l0 -1024 Z" /><glyph glyph-name="uni043F" unicode="&#x43f;" d="M1016 0 l-164 0 l0 884 l-522 0 l0 -884 l-164 0 l0 1024 l850 0 l0 -1024 Z" /><glyph glyph-name="uni0442" unicode="&#x442;" d="M809 884 l-307 0 l0 -884 l-164 0 l0 884 l-308 0 l0 140 l779 0 l0 -140 Z" /><glyph glyph-name="uni0444" unicode="&#x444;" d="M776 -24 l0 -458 l-148 0 l0 458 l-32 0 q-224 0 -362 145 q-138 145 -138 379 q0 249 139.5 398.5 q139.5 149.5 368.5 149.5 l24 0 l0 410 l148 0 l0 -410 l22 0 q231 0 370.5 -148.5 q139.5 -148.5 139.5 -399.5 q0 -234 -137 -379 q-137 -145 -360 -145 l-35 0 ZM776 910 l0 -796 l22 0 q156 0 249 105.5 q93 105.5 93 286.5 q0 190 -91.5 297 q-91.5 107 -245.5 107 l-27 0 ZM628 114 l0 796 l-24 0 q-154 0 -247 -107.5 q-93 -107.5 -93 -296.5 q0 -179 93.5 -285.5 q93.5 -106.5 250.5 -106.5 l20 0 Z" /><glyph glyph-name="uni0446" unicode="&#x446;" d="M1167 -373 l-141 0 l0 373 l-860 0 l0 1024 l164 0 l0 -885 l522 0 l0 885 l164 0 l0 -885 l151 0 l0 -512 Z" /><glyph glyph-name="uni0447" unicode="&#x447;" d="M991 0 l-163 0 l0 412 q-180 -98 -332 -98 q-344 0 -344 364 l0 346 l164 0 l0 -338 q0 -225 194 -225 q148 0 318 86 l0 477 l163 0 l0 -1024 Z" /><glyph glyph-name="uni0448" unicode="&#x448;" d="M1472 0 l-1306 0 l0 1024 l164 0 l0 -884 l408 0 l0 884 l163 0 l0 -884 l407 0 l0 884 l164 0 l0 -1024 Z" /><glyph glyph-name="uni0449" unicode="&#x449;" d="M1626 -373 l-143 0 l0 373 l-1317 0 l0 1024 l164 0 l0 -885 l407 0 l0 885 l164 0 l0 -885 l408 0 l0 885 l164 0 l0 -885 l153 0 l0 -512 Z" /><glyph glyph-name="uni044A" unicode="&#x44a;" d="M342 0 l0 884 l-312 0 l0 140 l476 0 l0 -393 l276 0 q157 0 249.5 -81.5 q92.5 -81.5 92.5 -229.5 q0 -148 -93 -234 q-93 -86 -235 -86 l-454 0 ZM506 490 l0 -350 l246 0 q204 0 204 180 q0 170 -206 170 l-244 0 Z" /><glyph glyph-name="uni044B" unicode="&#x44b;" d="M1286 0 l-162 0 l0 1024 l162 0 l0 -1024 ZM166 0 l0 1024 l164 0 l0 -393 l276 0 q157 0 249.5 -82 q92.5 -82 92.5 -229 q0 -148 -93 -234 q-93 -86 -235 -86 l-454 0 ZM330 490 l0 -350 l246 0 q204 0 204 180 q0 170 -206 170 l-244 0 Z" /><glyph glyph-name="uni044C" unicode="&#x44c;" d="M166 0 l0 1024 l164 0 l0 -393 l276 0 q157 0 249.5 -82 q92.5 -82 92.5 -229 q0 -148 -93 -234 q-93 -86 -235 -86 l-454 0 ZM330 490 l0 -350 l246 0 q204 0 204 180 q0 170 -206 170 l-244 0 Z" /><glyph glyph-name="uni044D" unicode="&#x44d;" d="M90 45 l0 155 q116 -86 266 -86 q145 0 234.5 89.5 q89.5 89.5 97.5 242.5 l-436 0 l0 140 l436 0 q-12 152 -101 238 q-89 86 -237 86 q-143 0 -248 -78 l0 162 q106 54 250 54 q244 0 375 -142.5 q131 -142.5 131 -401.5 q0 -241 -134.5 -384.5 q-134.5 -143.5 -361.5 -143.5 q-157 0 -272 69 Z" /><glyph glyph-name="uni044E" unicode="&#x44e;" d="M620 465 l-290 0 l0 -465 l-164 0 l0 1024 l164 0 l0 -420 l292 0 q26 210 154.5 327 q128.5 117 329.5 117 q219 0 339.5 -138 q120.5 -138 120.5 -394 q0 -249 -129 -394.5 q-129 -145.5 -355 -145.5 q-213 0 -332.5 128.5 q-119.5 128.5 -129.5 360.5 ZM1092 910 q-306 0 -306 -400 q0 -396 310 -396 q303 0 303 396 q0 400 -307 400 Z" /><glyph glyph-name="uni044F" unicode="&#x44f;" d="M866 0 l-164 0 l0 424 l-137 0 q-99 0 -180 -160 l-133 -264 l-190 0 l172 316 q60 110 145 145 q-120 16 -183 88 q-63 72 -63 180 q0 136 98.5 215.5 q98.5 79.5 276.5 79.5 l358 0 l0 -1024 ZM702 561 l0 323 l-194 0 q-207 0 -207 -157 q0 -166 201 -166 l200 0 Z" /><glyph glyph-name="uni0452" unicode="&#x452;" d="M469 -389 l0 157 q67 -36 125 -36 q146 0 215 149.5 q69 149.5 69 505.5 q0 495 -262 495 q-118 0 -199 -93.5 q-81 -93.5 -81 -231.5 l0 -557 l-164 0 l0 1202 l-133 0 l0 134 l133 0 l0 180 l164 0 l0 -180 l334 0 l0 -134 l-334 0 l0 -374 l4 0 q105 194 316 194 q388 0 388 -633 q0 -422 -109.5 -612.5 q-109.5 -190.5 -342.5 -190.5 q-58 0 -123 25 Z" /><glyph glyph-name="uni0454" unicode="&#x454;" d="M864 45 q-115 -69 -274 -69 q-229 0 -361.5 141.5 q-132.5 141.5 -132.5 380.5 q0 258 138 404 q138 146 380 146 q137 0 240 -50 l0 -162 q-100 74 -246 74 q-147 0 -238 -88 q-91 -88 -104 -236 l436 0 l0 -140 l-438 0 q8 -151 97 -241.5 q89 -90.5 237 -90.5 q146 0 266 91 l0 -160 Z" /><glyph glyph-name="uni0459" unicode="&#x459;" d="M750 0 l0 885 l-238 0 q-41 -497 -140.5 -698 q-99.5 -201 -267.5 -201 q-51 0 -88 14 l0 141 q35 -18 76 -18 q220 0 283 901 l538 0 l0 -393 l277 0 q157 0 249.5 -82 q92.5 -82 92.5 -230 q0 -146 -93.5 -232.5 q-93.5 -86.5 -234.5 -86.5 l-454 0 ZM913 489 l0 -350 l246 0 q205 0 205 180 q0 170 -207 170 l-244 0 Z" /><glyph glyph-name="uni045A" unicode="&#x45a;" d="M774 0 l0 477 l-444 0 l0 -477 l-164 0 l0 1024 l164 0 l0 -406 l444 0 l0 406 l164 0 l0 -406 l276 0 q161 0 251.5 -79 q90.5 -79 90.5 -225 q0 -147 -92 -230.5 q-92 -83.5 -235 -83.5 l-455 0 ZM938 477 l0 -337 l246 0 q204 0 204 174 q0 163 -206 163 l-244 0 Z" /><glyph glyph-name="uni045B" unicode="&#x45b;" d="M1022 0 l-164 0 l0 563 q0 321 -236 321 q-123 0 -204.5 -93 q-81.5 -93 -81.5 -242 l0 -549 l-164 0 l0 1202 l-133 0 l0 134 l133 0 l0 180 l164 0 l0 -180 l334 0 l0 -134 l-334 0 l0 -372 l4 0 q119 194 336 194 q346 0 346 -418 l0 -606 Z" /><glyph glyph-name="uni045F" unicode="&#x45f;" d="M1016 0 l-354 0 l0 -373 l-142 0 l0 373 l-354 0 l0 1024 l164 0 l0 -885 l522 0 l0 885 l164 0 l0 -1024 Z" /><glyph glyph-name="uni0490" unicode="&#x490;" d="M932 1282 l-576 0 l0 -1282 l-168 0 l0 1434 l600 0 l0 264 l144 0 l0 -416 Z" /><glyph glyph-name="uni0491" unicode="&#x491;" d="M742 884 l-412 0 l0 -884 l-164 0 l0 1024 l432 0 l0 270 l144 0 l0 -410 Z" /><glyph glyph-name="uni2116" unicode="&#x2116;" d="M1820 604 q-175 0 -272.5 111 q-97.5 111 -97.5 307 q0 209 101.5 320.5 q101.5 111.5 287.5 111.5 q176 0 269.5 -109 q93.5 -109 93.5 -309 q0 -198 -101.5 -315 q-101.5 -117 -280.5 -117 ZM1831 1319 q-108 0 -168.5 -76.5 q-60.5 -76.5 -60.5 -216.5 q0 -286 225 -286 q221 0 221 288 q0 291 -217 291 ZM1282 0 l-209 0 l-673 1136 q-32 55 -46 88 l-6 0 q8 -46 8 -194 l0 -1030 l-168 0 l0 1434 l220 0 l710 -1213 l4 0 q-8 49 -8 209 l0 1004 l168 0 l0 -1434 ZM2171 318 l-691 0 l0 132 l691 0 l0 -132 Z" /><glyph glyph-name="pi" unicode="&#x3c0;" d="M1199 891 l-222 0 l0 -619 q0 -140 101 -140 q34 0 88 19 l0 -140 q-61 -23 -122 -23 q-232 0 -232 277 l0 626 l-389 0 l0 -611 q0 -192 -32 -280 l-167 0 q36 87 36 280 l0 611 q-123 -3 -243 -89 l0 150 q75 72 245 72 l937 0 l0 -133 Z" /><glyph glyph-name="currency" unicode="¤" d="M1038 354 l-92 -96 l-137 138 q-105 -76 -239 -76 q-136 0 -240 76 l-138 -138 l-92 96 l138 134 q-76 113 -76 237 q0 129 76 237 l-138 136 l92 96 l138 -137 q110 77 240 77 q129 0 237 -77 l139 137 l92 -96 l-137 -136 q78 -112 78 -237 q0 -121 -78 -237 l137 -134 ZM570 1002 q-116 0 -195.5 -81 q-79.5 -81 -79.5 -194 q0 -113 80.5 -194 q80.5 -81 194.5 -81 q113 0 194.5 81 q81.5 81 81.5 194 q0 113 -83 194 q-83 81 -193 81 Z" /><glyph glyph-name="Ohorn" unicode="&#x1a0;" d="M1167 1347 q48 -9 80 -9 q214 0 214 130 q0 72 -21 130 l136 0 q18 -54 18 -134 q0 -108 -70 -175 q-70 -67 -192 -67 l-34 0 q152 -194 152 -487 q0 -351 -186 -555 q-186 -204 -498 -204 q-305 0 -488.5 201 q-183.5 201 -183.5 523 q0 346 187 552 q187 206 509 206 q216 0 377 -111 ZM778 1306 q-226 0 -367 -163 q-141 -163 -141 -428 q0 -265 137.5 -426.5 q137.5 -161.5 358.5 -161.5 q236 0 372 154 q136 154 136 431 q0 284 -132 439 q-132 155 -364 155 Z" /><glyph glyph-name="ohorn" unicode="&#x1a1;" d="M1040 1276 l134 0 q19 -56 19 -136 q0 -192 -219 -232 q130 -141 130 -392 q0 -245 -138.5 -392.5 q-138.5 -147.5 -371.5 -147.5 q-227 0 -362.5 143.5 q-135.5 143.5 -135.5 380.5 q0 258 141 403 q141 145 381 145 q48 0 134 -14 q61 -10 170 -10 q59 0 98.5 35.5 q39.5 35.5 39.5 85.5 q0 73 -20 131 ZM606 910 q-158 0 -250 -107.5 q-92 -107.5 -92 -296.5 q0 -182 93 -287 q93 -105 249 -105 q159 0 244.5 103 q85.5 103 85.5 293 q0 192 -85.5 296 q-85.5 104 -244.5 104 Z" /><glyph glyph-name="Uhorn" unicode="&#x1af;" d="M1237 580 q0 -604 -545 -604 q-522 0 -522 581 l0 877 l168 0 l0 -866 q0 -441 372 -441 q359 0 359 426 l0 881 l147 0 q60 0 99.5 35.5 q39.5 35.5 39.5 84.5 q0 74 -21 132 l136 0 q18 -56 18 -136 q0 -210 -251 -241 l0 -729 Z" /><glyph glyph-name="uhorn" unicode="&#x1b0;" d="M994 0 l-164 0 l0 162 l-4 0 q-102 -186 -316 -186 q-366 0 -366 436 l0 612 l163 0 l0 -586 q0 -324 248 -324 q120 0 197.5 88.5 q77.5 88.5 77.5 231.5 l0 590 l122 0 q59 0 98.5 35.5 q39.5 35.5 39.5 85.5 q0 73 -20 131 l134 0 q19 -56 19 -136 q0 -198 -229 -234 l0 -906 Z" /><glyph glyph-name="hookabovecomb" unicode="&#x309;" d="M171 1571 q37 4 80 4 q88 0 144.5 -42 q56.5 -42 56.5 -113 q0 -61 -38.5 -103 q-38.5 -42 -95.5 -49 l0 -50 l-108 0 l0 115 q112 0 112 76 q0 63 -94 63 q-17 0 -57 -8 l0 107 Z" /><glyph glyph-name="dotbelowcomb" unicode="&#x323;" d="M341 -314 q-41 0 -70 29 q-29 29 -29 70 q0 41 30 68.5 q30 27.5 69 27.5 q41 0 70 -27.5 q29 -27.5 29 -68.5 q0 -41 -29 -70 q-29 -29 -70 -29 Z" /><glyph glyph-name="gravecomb" unicode="&#x300;" d="M450 1218 l-126 0 l-222 246 l168 0 l180 -246 Z" /><glyph glyph-name="acutecomb" unicode="&#x301;" d="M100 1218 l180 246 l168 0 l-220 -246 l-128 0 Z" /><glyph glyph-name="uni0492" unicode="&#x492;" d="M1014 1282 l-576 0 l0 -458 l346 0 l0 -154 l-346 0 l0 -670 l-168 0 l0 670 l-229 0 l0 154 l229 0 l0 610 l744 0 l0 -152 Z" /><glyph glyph-name="uni0493" unicode="&#x493;" d="M809 884 l-405 0 l0 -286 l258 0 l0 -133 l-258 0 l0 -465 l-164 0 l0 465 l-210 0 l0 133 l210 0 l0 426 l569 0 l0 -140 Z" /><glyph glyph-name="uni0496" unicode="&#x496;" d="M1802 -384 l-153 0 l0 384 l-80 0 l-561 656 q-24 28 -37 50 l-5 0 l0 -706 l-159 0 l0 706 l-4 0 q-15 -25 -37 -50 l-561 -656 l-227 0 l657 744 l-613 690 l206 0 l538 -621 q23 -27 37 -49 l4 0 l0 670 l159 0 l0 -670 l5 0 q13 22 37 49 l538 621 l205 0 l-613 -690 l525 -594 l139 0 l0 -534 Z" /><glyph glyph-name="uni0497" unicode="&#x497;" d="M1536 -373 l-140 0 l0 373 l-92 0 l-458 506 l-4 0 l0 -506 l-156 0 l0 506 l-4 0 l-459 -506 l-219 0 l508 528 l-477 496 l209 0 l438 -479 l4 0 l0 479 l156 0 l0 -479 l4 0 l438 479 l211 0 l-479 -496 l385 -399 l135 0 l0 -502 Z" /><glyph glyph-name="uni049A" unicode="&#x49a;" d="M1192 -384 l-154 0 l0 384 l-80 0 l-560 656 q-27 32 -38 50 l-4 0 l0 -706 l-168 0 l0 1434 l168 0 l0 -674 l4 0 q14 22 38 49 l536 625 l209 0 l-615 -690 l524 -594 l140 0 l0 -534 Z" /><glyph glyph-name="uni049B" unicode="&#x49b;" d="M1024 -373 l-140 0 l0 373 l-100 0 l-450 490 l-4 0 l0 -490 l-164 0 l0 1024 l164 0 l0 -467 l4 0 l430 467 l217 0 l-477 -496 l383 -399 l137 0 l0 -502 Z" /><glyph glyph-name="uni049C" unicode="&#x49c;" d="M1186 0 l-234 0 l-424 500 l0 -270 l-76 0 l0 360 l-54 66 q-38 47 -38 50 l-4 0 l0 -706 l-168 0 l0 1434 l168 0 l0 -674 l4 0 q14 22 38 49 l54 63 l0 338 l76 0 l0 -248 l406 472 l209 0 l-615 -688 l658 -746 Z" /><glyph glyph-name="uni049D" unicode="&#x49d;" d="M1012 0 l-228 0 l-282 307 l0 -193 l-76 0 l0 275 l-92 101 l-4 0 l0 -490 l-164 0 l0 1024 l164 0 l0 -467 l4 0 l92 101 l0 237 l76 0 l0 -155 l262 284 l217 0 l-477 -496 l508 -528 Z" /><glyph glyph-name="uni04A2" unicode="&#x4a2;" d="M1458 -384 l-155 0 l0 384 l-205 0 l0 654 l-742 0 l0 -654 l-168 0 l0 1434 l168 0 l0 -629 l742 0 l0 629 l168 0 l0 -1282 l192 0 l0 -536 Z" /><glyph glyph-name="uni04A3" unicode="&#x4a3;" d="M1168 -373 l-142 0 l0 373 l-174 0 l0 465 l-522 0 l0 -465 l-164 0 l0 1024 l164 0 l0 -420 l522 0 l0 420 l164 0 l0 -884 l152 0 l0 -513 Z" /><glyph glyph-name="uni04AF" unicode="&#x4af;" d="M981 1024 l-407 -1018 l0 -477 l-164 0 l0 479 l-396 1016 l182 0 l269 -764 l29 -100 l2 0 q10 34 32 104 l283 760 l170 0 Z" /><glyph glyph-name="uni04B0" unicode="&#x4b0;" d="M1120 1434 l-473 -910 l338 0 l0 -133 l-338 0 l0 -391 l-168 0 l0 391 l-329 0 l0 133 l329 0 l0 2 l-461 908 l191 0 l321 -648 q6 -12 35 -88 l3 0 q10 34 38 88 l336 648 l178 0 Z" /><glyph glyph-name="uni04B1" unicode="&#x4b1;" d="M914 0 l0 -133 l-340 0 l0 -338 l-164 0 l0 338 l-332 0 l0 133 l332 0 l-396 1024 l182 0 l269 -764 l29 -100 l2 0 q10 34 32 104 l283 760 l170 0 l-407 -1024 l340 0 Z" /><glyph glyph-name="uni04B2" unicode="&#x4b2;" d="M1222 -384 l-152 0 l0 384 l-97 0 l-330 549 q-15 25 -33 71 l-4 0 q-10 -23 -34 -71 l-340 -549 l-206 0 l480 721 l-442 713 l206 0 l293 -504 q29 -50 51 -100 l4 0 q32 66 56 104 l305 500 l193 0 l-451 -711 l363 -573 l138 0 l0 -534 Z" /><glyph glyph-name="uni04B3" unicode="&#x4b3;" d="M948 -373 l-139 0 l0 373 l-92 0 l-201 332 q-21 35 -45 78 l-4 0 q-5 -9 -47 -78 l-205 -332 l-189 0 l349 502 l-334 522 l191 0 l198 -350 q21 -38 43 -80 l4 0 l256 430 l181 0 l-344 -518 l251 -377 l127 0 l0 -502 Z" /><glyph glyph-name="uni04B8" unicode="&#x4b8;" d="M1153 0 l-168 0 l0 645 q-167 -88 -303 -111 l0 -338 l-76 0 l0 330 q-206 -15 -323 82.5 q-117 97.5 -117 286.5 l0 539 l168 0 l0 -531 q0 -231 246 -231 l26 0 l0 362 l76 0 l0 -354 q134 20 303 102 l0 652 l168 0 l0 -1434 Z" /><glyph glyph-name="uni04B9" unicode="&#x4b9;" d="M991 0 l-163 0 l0 412 q-118 -64 -220 -86 l0 -212 l-76 0 l0 202 q-380 -28 -380 362 l0 346 l164 0 l0 -338 q0 -225 194 -225 l22 0 l0 293 l76 0 l0 -283 q110 20 220 76 l0 477 l163 0 l0 -1024 Z" /><glyph glyph-name="uni04BA" unicode="&#x4ba;" d="M1153 0 l-168 0 l0 530 q0 232 -245 232 q-180 0 -406 -110 l0 -652 l-168 0 l0 1434 l168 0 l0 -646 q228 122 426 122 q186 0 289.5 -97 q103.5 -97 103.5 -275 l0 -538 Z" /><glyph glyph-name="uni018F" unicode="&#x18f;" d="M86 794 l1118 0 q-17 237 -158.5 374.5 q-141.5 137.5 -359.5 137.5 q-216 0 -372 -96 l0 164 q158 84 384 84 q319 0 501.5 -197 q182.5 -197 182.5 -544 q0 -322 -182 -531.5 q-182 -209.5 -483 -209.5 q-303 0 -467 207.5 q-164 207.5 -164 610.5 ZM1204 643 l-938 0 q4 -235 125 -375.5 q121 -140.5 328 -140.5 q207 0 336 140 q129 140 149 376 Z" /><glyph glyph-name="uni0259" unicode="&#x259;" d="M82 553 l723 0 q-4 171 -92 264 q-88 93 -242 93 q-174 0 -318 -114 l0 154 q134 98 357 98 q217 0 341 -139 q124 -139 124 -393 q0 -242 -135.5 -391 q-135.5 -149 -335.5 -149 q-203 0 -312.5 131 q-109.5 131 -109.5 360 l0 86 ZM803 414 l-553 0 q2 -141 68 -220.5 q66 -79.5 188 -79.5 q116 0 197.5 83 q81.5 83 99.5 217 Z" /><glyph glyph-name="uni04E8" unicode="&#x4e8;" d="M766 -24 q-305 0 -488.5 201 q-183.5 201 -183.5 523 q0 346 187 552 q187 206 509 206 q297 0 478.5 -200 q181.5 -200 181.5 -523 q0 -351 -186 -555 q-186 -204 -498 -204 ZM1270 792 q-18 245 -147.5 379.5 q-129.5 134.5 -344.5 134.5 q-208 0 -345 -140 q-137 -140 -159 -374 l996 0 ZM1270 637 l-996 0 q21 -234 155 -372 q134 -138 337 -138 q220 0 352.5 133.5 q132.5 133.5 151.5 376.5 Z" /><glyph glyph-name="uni04E9" unicode="&#x4e9;" d="M594 -24 q-228 0 -363 144 q-135 144 -135 380 q0 258 141 403 q141 145 381 145 q229 0 357.5 -141 q128.5 -141 128.5 -391 q0 -245 -138.5 -392.5 q-138.5 -147.5 -371.5 -147.5 ZM930 604 q-41 306 -324 306 q-136 0 -224.5 -80 q-88.5 -80 -111.5 -226 l660 0 ZM934 465 l-668 0 q10 -163 101.5 -257 q91.5 -94 238.5 -94 q307 0 328 351 Z" /><glyph glyph-name="uni1FBD" unicode="&#x1fbd;" d="M522 1147 l-38 63 q104 56 120 160 q-48 2 -79 30 q-31 28 -31 70 q0 43 29 72 q29 29 73 29 q53 0 88 -36.5 q35 -36.5 35 -92.5 q0 -87 -57.5 -171 q-57.5 -84 -139.5 -124 Z" /><glyph glyph-name="uni1FBE" unicode="&#x1fbe;" d="M758 -368 q-60 -80 -146 -80 q-75 0 -122.5 41.5 q-47.5 41.5 -47.5 111.5 l0 176 l123 0 l0 -186 q0 -67 68 -67 q41 0 82 42 l43 -38 Z" /><glyph glyph-name="uni1FBF" unicode="&#x1fbf;" d="M522 1147 l-38 63 q104 56 120 160 q-48 2 -79 30 q-31 28 -31 70 q0 43 29 72 q29 29 73 29 q53 0 88 -36.5 q35 -36.5 35 -92.5 q0 -87 -57.5 -171 q-57.5 -84 -139.5 -124 Z" /><glyph glyph-name="uni1FC0" unicode="&#x1fc0;" d="M880 1190 l-106 0 q-24 139 -174 139 q-150 0 -174 -139 l-106 0 q10 106 87 172 q77 66 193 66 q116 0 193 -66.5 q77 -66.5 87 -171.5 Z" /><glyph glyph-name="uni1FC1" unicode="&#x1fc1;" d="M893 1422 l-105 0 q-42 108 -188 108 q-146 0 -188 -108 l-105 0 q26 95 105 149.5 q79 54.5 188 54.5 q108 0 188 -55 q80 -55 105 -149 ZM792 1151 q-40 0 -68 28 q-28 28 -28 71 q0 41 28.5 69.5 q28.5 28.5 67.5 28.5 q42 0 71.5 -29 q29.5 -29 29.5 -69 q0 -42 -29.5 -70.5 q-29.5 -28.5 -71.5 -28.5 ZM408 1151 q-41 0 -70 28 q-29 28 -29 71 q0 40 29 69 q29 29 70 29 q41 0 70.5 -29 q29.5 -29 29.5 -69 q0 -42 -29.5 -70.5 q-29.5 -28.5 -70.5 -28.5 Z" /><glyph glyph-name="uni1FCD" unicode="&#x1fcd;" d="M360 1170 l-30 61 q93 40 116 119 q-49 0 -81.5 27 q-32.5 27 -32.5 71 q0 40 27 67 q27 27 71 27 q119 0 119 -122 q0 -168 -189 -250 ZM870 1174 l-94 0 l-174 362 l166 0 l102 -362 Z" /><glyph glyph-name="uni1FCE" unicode="&#x1fce;" d="M352 1170 l-30 61 q93 40 116 119 q-50 0 -82 27 q-32 27 -32 71 q0 40 27 67 q27 27 71 27 q118 0 118 -122 q0 -168 -188 -250 ZM878 1536 l-176 -362 l-94 0 l102 362 l168 0 Z" /><glyph glyph-name="uni1FCF" unicode="&#x1fcf;" d="M893 1462 l-105 0 q-42 109 -188 109 q-146 0 -188 -109 l-105 0 q25 95 105 150 q80 55 188 55 q108 0 188 -55 q80 -55 105 -150 ZM536 1143 l-22 53 q86 22 92 80 q-96 0 -96 80 q0 82 90 82 q48 0 79 -32.5 q31 -32.5 31 -80.5 q0 -145 -174 -182 Z" /><glyph glyph-name="uni1FDD" unicode="&#x1fdd;" d="M542 1231 l-32 -61 q-186 80 -186 250 q0 122 118 122 q44 0 71 -26.5 q27 -26.5 27 -67.5 q0 -44 -32 -71 q-32 -27 -82 -27 q24 -79 116 -119 ZM876 1174 l-92 0 l-176 362 l168 0 l100 -362 Z" /><glyph glyph-name="uni1FDE" unicode="&#x1fde;" d="M530 1231 l-30 -61 q-188 82 -188 250 q0 122 118 122 q44 0 71 -27 q27 -27 27 -67 q0 -44 -32 -71 q-32 -27 -82 -27 q23 -79 116 -119 ZM891 1536 l-176 -362 l-95 0 l103 362 l168 0 Z" /><glyph glyph-name="uni1FDF" unicode="&#x1fdf;" d="M893 1462 l-105 0 q-42 109 -188 109 q-146 0 -188 -109 l-105 0 q25 95 105 150 q80 55 188 55 q108 0 188 -55 q80 -55 105 -150 ZM604 1276 q6 -58 90 -80 l-20 -53 q-176 37 -176 182 q0 48 31 80.5 q31 32.5 79 32.5 q90 0 90 -82 q0 -80 -94 -80 Z" /><glyph glyph-name="uni1FED" unicode="&#x1fed;" d="M704 1174 l-94 0 l-176 362 l168 0 l102 -362 ZM842 1210 q-40 0 -68 27 q-28 27 -28 69 q0 42 28 70.5 q28 28.5 68 28.5 q41 0 70.5 -28.5 q29.5 -28.5 29.5 -70.5 q0 -40 -29 -68 q-29 -28 -71 -28 ZM356 1210 q-40 0 -69 27.5 q-29 27.5 -29 68.5 q0 42 29 70.5 q29 28.5 69 28.5 q42 0 71 -28.5 q29 -28.5 29 -70.5 q0 -40 -29 -68 q-29 -28 -71 -28 Z" /><glyph glyph-name="uni1FEE" unicode="&#x1fee;" d="M768 1536 l-176 -362 l-94 0 l102 362 l168 0 ZM842 1210 q-40 0 -68 27 q-28 27 -28 69 q0 42 28 70.5 q28 28.5 68 28.5 q41 0 70.5 -28.5 q29.5 -28.5 29.5 -70.5 q0 -40 -29 -68 q-29 -28 -71 -28 ZM356 1210 q-40 0 -69 27.5 q-29 27.5 -29 68.5 q0 42 29 70.5 q29 28.5 69 28.5 q42 0 71 -28.5 q29 -28.5 29 -70.5 q0 -40 -29 -68 q-29 -28 -71 -28 Z" /><glyph glyph-name="uni1FEF" unicode="&#x1fef;" d="M735 1174 l-94 0 l-176 362 l168 0 l102 -362 Z" /><glyph glyph-name="uni1FFD" unicode="&#x1ffd;" d="M735 1536 l-176 -362 l-94 0 l103 362 l167 0 Z" /><glyph glyph-name="uni1FFE" unicode="&#x1ffe;" d="M719 1210 l-41 -63 q-83 40 -139.5 123.5 q-56.5 83.5 -56.5 171.5 q0 57 34.5 93 q34.5 36 87.5 36 q44 0 73 -29 q29 -29 29 -72 q0 -93 -108 -100 q16 -104 121 -160 Z" /><glyph glyph-name="uni0302" unicode="&#x302;" d="M282 1218 l-120 0 l-164 230 l-166 -230 l-112 0 l214 332 l134 0 l214 -332 Z" /><glyph glyph-name="uni0303" unicode="&#x303;" d="M322 1458 q0 -105 -48 -171.5 q-48 -66.5 -130 -66.5 q-71 0 -162 52 q-77 43 -119 43 q-89 0 -89 -113 l-94 0 q0 106 48.5 171 q48.5 65 134.5 65 q65 0 149 -52 q74 -44 128 -44 q83 0 83 116 l99 0 Z" /><glyph glyph-name="uni0304" unicode="&#x304;" d="M254 1218 l-508 0 l0 109 l508 0 l0 -109 Z" /><glyph glyph-name="uni0305" unicode="&#x305;" d="M426 1396 l-850 0 l0 120 l850 0 l0 -120 Z" /><glyph glyph-name="uni0306" unicode="&#x306;" d="M274 1470 q-10 -112 -88 -182 q-78 -70 -190 -70 q-117 0 -191.5 69 q-74.5 69 -78.5 183 l100 0 q12 -155 172 -155 q68 0 116.5 42 q48.5 42 57.5 113 l102 0 Z" /><glyph glyph-name="uni0307" unicode="&#x307;" d="M0 1218 q-40 0 -69 29 q-29 29 -29 70 q0 41 29 68.5 q29 27.5 69 27.5 q41 0 69.5 -27.5 q28.5 -27.5 28.5 -68.5 q0 -41 -28.5 -70 q-28.5 -29 -69.5 -29 Z" /><glyph glyph-name="uni0308" unicode="&#x308;" d="M194 1218 q-40 0 -69 28 q-29 28 -29 71 q0 42 28 70 q28 28 68 28 q42 0 71.5 -28.5 q29.5 -28.5 29.5 -69.5 q0 -41 -28.5 -70 q-28.5 -29 -70.5 -29 ZM-190 1218 q-41 0 -71 28.5 q-30 28.5 -30 70.5 q0 42 28.5 70 q28.5 28 70.5 28 q41 0 70.5 -28.5 q29.5 -28.5 29.5 -69.5 q0 -41 -28.5 -70 q-28.5 -29 -69.5 -29 Z" /><glyph glyph-name="uni030A" unicode="&#x30a;" d="M-2 1176 q-89 0 -146 53.5 q-57 53.5 -57 136.5 q0 88 59 143 q59 55 150 55 q89 0 146 -54 q57 -54 57 -138 q0 -84 -61 -140 q-61 -56 -148 -56 ZM-2 1483 q-49 0 -80.5 -32.5 q-31.5 -32.5 -31.5 -80.5 q0 -112 112 -112 q49 0 81.5 32 q32.5 32 32.5 80 q0 49 -32.5 81 q-32.5 32 -81.5 32 Z" /><glyph glyph-name="uni030B" unicode="&#x30b;" d="M293 1536 l-246 -318 l-96 0 l209 318 l133 0 ZM45 1536 l-239 -318 l-97 0 l207 318 l129 0 Z" /><glyph glyph-name="uni030C" unicode="&#x30c;" d="M280 1548 l-212 -330 l-134 0 l-214 330 l114 0 l164 -229 l164 229 l118 0 Z" /><glyph glyph-name="uni030D" unicode="&#x30d;" d="M53 1174 l-106 0 l0 362 l106 0 l0 -362 Z" /><glyph glyph-name="uni030E" unicode="&#x30e;" d="M168 1174 l-106 0 l0 362 l106 0 l0 -362 ZM-62 1174 l-106 0 l0 362 l106 0 l0 -362 Z" /><glyph glyph-name="uni030F" unicode="&#x30f;" d="M293 1218 l-97 0 l-239 318 l129 0 l207 -318 ZM51 1218 l-96 0 l-246 318 l133 0 l209 -318 Z" /><glyph glyph-name="uni0310" unicode="&#x310;" d="M0 1446 q-40 0 -69 28.5 q-29 28.5 -29 69.5 q0 42 29 69 q29 27 69 27 q41 0 69.5 -27.5 q28.5 -27.5 28.5 -68.5 q0 -40 -28.5 -69 q-28.5 -29 -69.5 -29 ZM274 1470 q-10 -112 -88 -182 q-78 -70 -190 -70 q-117 0 -191.5 69 q-74.5 69 -78.5 183 l100 0 q12 -155 172 -155 q68 0 116.5 42 q48.5 42 57.5 113 l102 0 Z" /><glyph glyph-name="uni0311" unicode="&#x311;" d="M274 1218 l-102 0 q-9 72 -57.5 114 q-48.5 42 -116.5 42 q-160 0 -172 -156 l-100 0 q4 114 78.5 183 q74.5 69 191.5 69 q113 0 190.5 -69 q77.5 -69 87.5 -183 Z" /><glyph glyph-name="uni0312" unicode="&#x312;" d="M119 1508 q-105 -56 -121 -160 q110 -8 110 -101 q0 -42 -29 -71 q-29 -29 -73 -29 q-53 0 -87.5 35.5 q-34.5 35.5 -34.5 93.5 q0 88 56.5 171.5 q56.5 83.5 139.5 123.5 l39 -63 Z" /><glyph glyph-name="uni0313" unicode="&#x313;" d="M-78 1016 l-38 64 q104 54 120 159 q-48 1 -78 29.5 q-30 28.5 -30 71.5 q0 42 28 71 q28 29 72 29 q53 0 88 -36 q35 -36 35 -94 q0 -87 -57 -170.5 q-57 -83.5 -140 -123.5 Z" /><glyph glyph-name="uni0314" unicode="&#x314;" d="M119 1080 l-39 -64 q-84 41 -140 124 q-56 83 -56 170 q0 59 34.5 94.5 q34.5 35.5 87.5 35.5 q44 0 72 -29 q28 -29 28 -71 q0 -43 -30 -71.5 q-30 -28.5 -78 -29.5 q16 -105 121 -159 Z" /><glyph glyph-name="uni0315" unicode="&#x315;" d="M86 1016 l-39 64 q105 54 121 159 q-48 1 -78 29.5 q-30 28.5 -30 71.5 q0 42 28 71 q28 29 72 29 q53 0 87.5 -35.5 q34.5 -35.5 34.5 -94.5 q0 -87 -56 -170 q-56 -83 -140 -124 Z" /><glyph glyph-name="uni0316" unicode="&#x316;" d="M194 -446 l-126 0 l-262 327 l168 0 l220 -327 Z" /><glyph glyph-name="uni0317" unicode="&#x317;" d="M194 -119 l-262 -327 l-126 0 l222 327 l166 0 Z" /><glyph glyph-name="uni0318" unicode="&#x318;" d="M184 -424 l-106 0 l0 127 l-262 0 l0 109 l262 0 l0 126 l106 0 l0 -362 Z" /><glyph glyph-name="uni0319" unicode="&#x319;" d="M184 -297 l-262 0 l0 -127 l-106 0 l0 362 l106 0 l0 -126 l262 0 l0 -109 Z" /><glyph glyph-name="uni031A" unicode="&#x31a;" d="M234 1174 l-106 0 l0 362 l-362 0 l0 104 l468 0 l0 -466 Z" /><glyph glyph-name="uni031B" unicode="&#x31b;" d="M-174 1174 l2 116 q213 0 213 130 q0 72 -21 130 l136 0 q18 -55 18 -135 q0 -108 -71 -174.5 q-71 -66.5 -191 -66.5 l-86 0 Z" /><glyph glyph-name="uni031C" unicode="&#x31c;" d="M90 -420 q-77 0 -128.5 52.5 q-51.5 52.5 -51.5 129.5 q0 77 51 129.5 q51 52.5 129 52.5 l0 -94 q-94 0 -94 -88 q0 -90 94 -90 l0 -92 Z" /><glyph glyph-name="uni031D" unicode="&#x31d;" d="M-180 -426 l0 106 l127 0 l0 262 l109 0 l0 -262 l126 0 l0 -106 l-362 0 Z" /><glyph glyph-name="uni031E" unicode="&#x31e;" d="M182 -58 l0 -106 l-126 0 l0 -262 l-109 0 l0 262 l-127 0 l0 106 l362 0 Z" /><glyph glyph-name="uni031F" unicode="&#x31f;" d="M182 -291 l-126 0 l0 -127 l-109 0 l0 127 l-127 0 l0 107 l127 0 l0 126 l109 0 l0 -126 l126 0 l0 -107 Z" /><glyph glyph-name="uni0321" unicode="&#x321;" d="M230 53 q0 -189 -89.5 -302 q-89.5 -113 -248.5 -113 q-66 0 -122 20 l0 160 q51 -29 114 -29 q178 0 178 264 l168 0 Z" /><glyph glyph-name="uni0322" unicode="&#x322;" d="M-230 53 l168 0 q0 -264 178 -264 q63 0 114 29 l0 -160 q-56 -20 -122 -20 q-159 0 -248.5 113 q-89.5 113 -89.5 302 Z" /><glyph glyph-name="uni0324" unicode="&#x324;" d="M194 -316 q-40 0 -69 28 q-29 28 -29 71 q0 42 28 70 q28 28 68 28 q42 0 71.5 -28.5 q29.5 -28.5 29.5 -69.5 q0 -41 -28.5 -70 q-28.5 -29 -70.5 -29 ZM-190 -316 q-41 0 -71 28.5 q-30 28.5 -30 70.5 q0 42 28.5 70 q28.5 28 70.5 28 q41 0 70.5 -28.5 q29.5 -28.5 29.5 -69.5 q0 -41 -28.5 -70 q-28.5 -29 -69.5 -29 Z" /><glyph glyph-name="uni0326" unicode="&#x326;" d="M-74 -414 l-22 54 q86 22 92 80 q-96 0 -96 80 q0 81 90 81 q48 0 79 -32.5 q31 -32.5 31 -80.5 q0 -145 -174 -182 Z" /><glyph glyph-name="uni0329" unicode="&#x329;" d="M53 -482 l-106 0 l0 363 l106 0 l0 -363 Z" /><glyph glyph-name="uni032A" unicode="&#x32a;" d="M356 -420 l-104 0 l0 197 l-504 0 l0 -197 l-104 0 l0 301 l712 0 l0 -301 Z" /><glyph glyph-name="uni032B" unicode="&#x32b;" d="M335 -119 q0 -89 -53 -147 q-53 -58 -140 -58 q-90 0 -142 68 q-53 -68 -144 -68 q-87 0 -139 57 q-52 57 -52 148 l97 0 q0 -117 95 -117 q105 0 105 117 l76 0 q0 -117 106 -117 q94 0 94 117 l97 0 Z" /><glyph glyph-name="uni032C" unicode="&#x32c;" d="M280 -119 l-212 -329 l-134 0 l-214 329 l114 0 l164 -229 l164 229 l118 0 Z" /><glyph glyph-name="uni032D" unicode="&#x32d;" d="M282 -450 l-120 0 l-164 229 l-166 -229 l-112 0 l214 331 l134 0 l214 -331 Z" /><glyph glyph-name="uni032E" unicode="&#x32e;" d="M274 -119 q-10 -114 -87.5 -182.5 q-77.5 -68.5 -190.5 -68.5 q-117 0 -191.5 68.5 q-74.5 68.5 -78.5 182.5 l100 0 q12 -155 172 -155 q68 0 116.5 42 q48.5 42 57.5 113 l102 0 Z" /><glyph glyph-name="uni0330" unicode="&#x330;" d="M322 -98 q0 -105 -48 -171.5 q-48 -66.5 -130 -66.5 q-71 0 -162 52 q-77 42 -119 42 q-89 0 -89 -112 l-94 0 q0 105 48.5 170 q48.5 65 134.5 65 q65 0 149 -51 q74 -45 128 -45 q83 0 83 117 l99 0 Z" /><glyph glyph-name="uni0332" unicode="&#x332;" d="M425 -297 l-850 0 l0 119 l850 0 l0 -119 Z" /><glyph glyph-name="uni0334" unicode="&#x334;" d="M322 670 q0 -105 -48 -171.5 q-48 -66.5 -130 -66.5 q-71 0 -162 52 q-77 42 -119 42 q-89 0 -89 -112 l-94 0 q0 105 48.5 170 q48.5 65 134.5 65 q65 0 149 -51 q74 -45 128 -45 q83 0 83 117 l99 0 Z" /><glyph glyph-name="uni0335" unicode="&#x335;" d="M254 486 l-508 0 l0 108 l508 0 l0 -108 Z" /><glyph glyph-name="uni0337" unicode="&#x337;" d="M412 962 l-688 -843 l-134 0 l686 843 l136 0 Z" /><glyph glyph-name="uni0338" unicode="&#x338;" d="M402 1434 l-688 -1672 l-114 0 l686 1672 l116 0 Z" /><glyph glyph-name="uni0339" unicode="&#x339;" d="M-90 -420 l0 92 q94 0 94 90 q0 88 -94 88 l0 94 q79 0 129.5 -51.5 q50.5 -51.5 50.5 -130.5 q0 -77 -51.5 -129.5 q-51.5 -52.5 -128.5 -52.5 Z" /><glyph glyph-name="uni033A" unicode="&#x33a;" d="M356 -420 l-712 0 l0 301 l104 0 l0 -197 l504 0 l0 197 l104 0 l0 -301 Z" /><glyph glyph-name="uni033B" unicode="&#x33b;" d="M188 -496 l-376 0 l0 377 l376 0 l0 -377 ZM98 -406 l0 197 l-196 0 l0 -197 l196 0 Z" /><glyph glyph-name="uni033C" unicode="&#x33c;" d="M347 -274 l-98 0 q-17 67 -96 67 q-50 0 -82 -42.5 q-32 -42.5 -32 -94.5 l-78 0 q0 53 -32.5 95 q-32.5 42 -82.5 42 q-78 0 -95 -67 l-98 0 q11 67 66 111 q55 44 127 44 q112 0 154 -100 q40 100 154 100 q70 0 126 -45 q56 -45 67 -110 Z" /><glyph glyph-name="uni033D" unicode="&#x33d;" d="M210 1562 l-133 -134 l133 -132 l-76 -78 l-134 134 l-133 -134 l-75 76 l133 133 l-133 133 l76 77 l134 -133 l133 133 l75 -75 Z" /><glyph glyph-name="uni033E" unicode="&#x33e;" d="M-98 1288 l0 94 q110 0 110 66 q0 28 -53 94 q-53 65 -53 119 q0 159 192 159 l0 -94 q-106 0 -106 -65 q0 -27 53 -91 q53 -64 53 -122 q0 -160 -196 -160 Z" /><glyph glyph-name="uni033F" unicode="&#x33f;" d="M425 1678 l-850 0 l0 118 l850 0 l0 -118 ZM425 1396 l-850 0 l0 120 l850 0 l0 -120 Z" /><glyph glyph-name="uni0340" unicode="&#x340;" d="M-10 1218 l-127 0 l-263 328 l168 0 l222 -328 Z" /><glyph glyph-name="uni0341" unicode="&#x341;" d="M400 1546 l-263 -328 l-127 0 l224 328 l166 0 Z" /><glyph glyph-name="uni0343" unicode="&#x343;" d="M-74 1218 l-22 54 q86 22 92 80 q-96 0 -96 80 q0 82 90 82 q48 0 79 -33 q31 -33 31 -80 q0 -145 -174 -183 Z" /><glyph glyph-name="uni0344" unicode="&#x344;" d="M168 1536 l-176 -362 l-94 0 l102 362 l168 0 ZM242 1210 q-41 0 -68.5 27 q-27.5 27 -27.5 69 q0 42 28 70.5 q28 28.5 68 28.5 q41 0 70.5 -28.5 q29.5 -28.5 29.5 -70.5 q0 -40 -29 -68 q-29 -28 -71 -28 ZM-244 1210 q-40 0 -69 27.5 q-29 27.5 -29 68.5 q0 42 29 70.5 q29 28.5 69 28.5 q42 0 71 -28.5 q29 -28.5 29 -70.5 q0 -40 -29 -68 q-29 -28 -71 -28 Z" /><glyph glyph-name="uni0345" unicode="&#x345;" d="M156 -368 q-59 -80 -144 -80 q-75 0 -121.5 41 q-46.5 41 -46.5 112 l0 176 l120 0 l0 -186 q0 -67 70 -67 q39 0 80 42 l42 -38 Z" /><glyph glyph-name="uni0346" unicode="&#x346;" d="M356 1218 l-104 0 l0 197 l-504 0 l0 -197 l-104 0 l0 302 l712 0 l0 -302 Z" /><glyph glyph-name="uni0347" unicode="&#x347;" d="M470 -218 l-940 0 l0 132 l940 0 l0 -132 ZM470 -514 l-940 0 l0 132 l940 0 l0 -132 Z" /><glyph glyph-name="uni0348" unicode="&#x348;" d="M168 -482 l-106 0 l0 363 l106 0 l0 -363 ZM-62 -482 l-106 0 l0 363 l106 0 l0 -363 Z" /><glyph glyph-name="uni0349" unicode="&#x349;" d="M182 -58 l0 -368 l-108 0 l0 262 l-254 0 l0 106 l362 0 Z" /><glyph glyph-name="uni034A" unicode="&#x34a;" d="M166 1594 l-88 -136 q30 -10 60 -10 q84 0 84 116 l98 0 q0 -104 -47.5 -170.5 q-47.5 -66.5 -130.5 -66.5 q-60 0 -128 33 l-90 -140 l-90 58 l86 132 q-30 12 -58 12 q-88 0 -88 -114 l-94 0 q0 110 48 173 q48 63 134 63 q58 0 122 -35 l92 143 l90 -58 Z" /><glyph glyph-name="uni034B" unicode="&#x34b;" d="M-1 1696 q-40 0 -69.5 28.5 q-29.5 28.5 -29.5 69.5 q0 42 30 69 q30 27 69 27 q41 0 70 -27.5 q29 -27.5 29 -68.5 q0 -41 -29 -69.5 q-29 -28.5 -70 -28.5 ZM320 1686 q0 -105 -47.5 -171.5 q-47.5 -66.5 -130.5 -66.5 q-70 0 -162 51 q-76 43 -118 43 q-88 0 -88 -112 l-94 0 q0 108 48 171.5 q48 63.5 134 63.5 q66 0 150 -51 q73 -45 126 -45 q84 0 84 117 l98 0 ZM-1 1220 q-41 0 -70 29 q-29 29 -29 70 q0 41 30 68.5 q30 27.5 69 27.5 q41 0 70 -27.5 q29 -27.5 29 -68.5 q0 -41 -29 -70 q-29 -29 -70 -29 Z" /><glyph glyph-name="uni034C" unicode="&#x34c;" d="M320 1696 q0 -100 -46 -159 q-46 -59 -132 -59 q-66 0 -153 37 q-87 37 -127 37 q-88 0 -88 -92 l-94 0 q0 216 182 216 q62 0 144 -38 q82 -38 132 -38 q84 0 84 96 l98 0 ZM320 1438 q0 -100 -46 -159 q-46 -59 -132 -59 q-66 0 -153 37 q-87 37 -127 37 q-88 0 -88 -92 l-94 0 q0 215 182 215 q62 0 144 -37 q82 -38 132 -38 q84 0 84 96 l98 0 Z" /><glyph glyph-name="uni034D" unicode="&#x34d;" d="M-168 -402 l-176 164 l176 164 l0 -110 l336 0 l0 110 l176 -164 l-176 -164 l0 111 l-336 0 l0 -111 Z" /><glyph glyph-name="uni034E" unicode="&#x34e;" d="M-53 -420 l0 207 l-111 0 l164 176 l164 -176 l-111 0 l0 -207 l-106 0 Z" /><glyph glyph-name="uni0360" unicode="&#x360;" d="M754 1792 q-2 -134 -93 -223 q-91 -89 -225 -89 q-146 0 -436 91 q-290 90 -434 90 q-88 0 -144.5 -53.5 q-56.5 -53.5 -56.5 -133.5 l-119 0 q2 136 92 224 q90 88 226 88 q149 0 440 -91 q290 -91 430 -91 q87 0 144 54 q57 54 57 134 l119 0 Z" /><glyph glyph-name="uni0361" unicode="&#x361;" d="M794 1474 l-162 0 q-186 258 -633 258 q-445 0 -631 -258 l-162 0 q240 382 794 382 q554 0 794 -382 Z" /><glyph glyph-name="uni0362" unicode="&#x362;" d="M-593 -184 l1010 0 l0 110 l176 -164 l-176 -164 l0 111 l-1010 0 l0 107 Z" /><glyph glyph-name="uni0180" unicode="&#x180;" d="M332 148 l-4 0 l0 -148 l-162 0 l0 1204 l-133 0 l0 140 l133 0 l0 172 l162 0 l0 -172 l248 0 l0 -140 l-248 0 l0 -360 l4 0 q121 204 354 204 q197 0 309.5 -136.5 q112.5 -136.5 112.5 -369.5 q0 -256 -125.5 -411 q-125.5 -155 -343.5 -155 q-199 0 -307 172 ZM328 561 l0 -143 q0 -127 82 -215.5 q82 -88.5 210 -88.5 q148 0 234 112.5 q86 112.5 86 309.5 q0 175 -79 274.5 q-79 99.5 -216 99.5 q-143 0 -230 -99.5 q-87 -99.5 -87 -249.5 Z" /><glyph glyph-name="uni0181" unicode="&#x181;" d="M270 0 l0 1282 l-24 0 q-81 0 -125.5 -46.5 q-44.5 -46.5 -44.5 -123.5 q0 -55 20 -106 l-158 0 q-22 56 -22 122 q0 132 97.5 219 q97.5 87 258.5 87 l406 0 q186 0 295 -91 q109 -91 109 -237 q0 -122 -66 -212 q-66 -90 -182 -128 l0 -4 q145 -17 232 -109.5 q87 -92.5 87 -240.5 q0 -184 -132 -298 q-132 -114 -333 -114 l-418 0 ZM438 1282 l0 -463 l172 0 q138 0 216.5 66.5 q78.5 66.5 78.5 187.5 q0 209 -274 209 l-193 0 ZM438 668 l0 -516 l228 0 q148 0 229.5 70 q81.5 70 81.5 192 q0 254 -346 254 l-193 0 Z" /><glyph glyph-name="uni0182" unicode="&#x182;" d="M188 0 l0 1434 l766 0 l0 -152 l-598 0 l0 -456 l272 0 q214 0 333 -103.5 q119 -103.5 119 -294.5 q0 -198 -125 -313 q-125 -115 -341 -115 l-426 0 ZM356 674 l0 -522 l236 0 q149 0 230 70 q81 70 81 196 q0 256 -311 256 l-236 0 Z" /><glyph glyph-name="uni0183" unicode="&#x183;" d="M332 148 l-4 0 l0 -148 l-162 0 l0 1516 l805 0 l0 -140 l-643 0 l0 -532 l4 0 q121 204 354 204 q197 0 309.5 -136.5 q112.5 -136.5 112.5 -369.5 q0 -256 -125.5 -411 q-125.5 -155 -343.5 -155 q-199 0 -307 172 ZM328 561 l0 -143 q0 -127 82 -215.5 q82 -88.5 210 -88.5 q148 0 234 112.5 q86 112.5 86 309.5 q0 175 -79 274.5 q-79 99.5 -216 99.5 q-143 0 -230 -99.5 q-87 -99.5 -87 -249.5 Z" /><glyph glyph-name="uni0184" unicode="&#x184;" d="M188 0 l0 1153 l-137 119 l0 22 l283 164 l22 0 l0 -634 l272 0 q214 0 333 -102.5 q119 -102.5 119 -293.5 q0 -198 -125 -313 q-125 -115 -341 -115 l-426 0 ZM356 676 l0 -526 l236 0 q149 0 229 71 q80 71 80 197 q0 258 -309 258 l-236 0 Z" /><glyph glyph-name="uni0185" unicode="&#x185;" d="M332 148 l-4 0 l0 -148 l-162 0 l0 1218 l-133 115 l0 23 l272 160 l23 0 l0 -672 l4 0 q121 204 354 204 q197 0 309.5 -136.5 q112.5 -136.5 112.5 -369.5 q0 -256 -125.5 -411 q-125.5 -155 -343.5 -155 q-199 0 -307 172 ZM328 561 l0 -143 q0 -127 82 -215.5 q82 -88.5 210 -88.5 q148 0 234 112.5 q86 112.5 86 309.5 q0 175 -79 274.5 q-79 99.5 -216 99.5 q-143 0 -230 -99.5 q-87 -99.5 -87 -249.5 Z" /><glyph glyph-name="uni0186" unicode="&#x186;" d="M106 35 l0 178 q154 -86 340 -86 q246 0 400 165.5 q154 165.5 154 440.5 q0 263 -143.5 418 q-143.5 155 -377.5 155 q-216 0 -373 -96 l0 164 q159 84 396 84 q305 0 489.5 -197 q184.5 -197 184.5 -517 q0 -344 -206 -556 q-206 -212 -526 -212 q-204 0 -338 59 Z" /><glyph glyph-name="uni0187" unicode="&#x187;" d="M1346 1508 q-42 20 -78 20 q-113 0 -113 -158 q0 -60 15 -148 l-9 -6 q-165 90 -348 90 q-241 0 -392 -165.5 q-151 -165.5 -151 -440.5 q0 -262 143.5 -417.5 q143.5 -155.5 376.5 -155.5 q216 0 374 96 l0 -163 q-159 -84 -396 -84 q-306 0 -490 197 q-184 197 -184 517 q0 343 206 555.5 q206 212.5 524 212.5 q92 0 186 -24 q3 95 69.5 164 q66.5 69 170.5 69 q48 0 96 -19 l0 -140 Z" /><glyph glyph-name="uni0188" unicode="&#x188;" d="M1038 1090 q-35 18 -67 18 q-101 0 -101 -142 q0 -84 8 -130 l-6 -4 q-147 78 -272 78 q-149 0 -242.5 -111.5 q-93.5 -111.5 -93.5 -296.5 q0 -180 94.5 -284 q94.5 -104 253.5 -104 q134 0 252 89 l0 -156 q-118 -71 -280 -71 q-221 0 -354.5 143.5 q-133.5 143.5 -133.5 372.5 q0 239 141 397.5 q141 158.5 365 158.5 q75 0 140 -20 q2 87 61.5 148 q59.5 61 148.5 61 q40 0 86 -19 l0 -128 Z" /><glyph glyph-name="uni0189" unicode="&#x189;" d="M188 0 l0 641 l-160 0 l0 155 l160 0 l0 638 l396 0 q758 0 758 -699 q0 -334 -210.5 -534.5 q-210.5 -200.5 -563.5 -200.5 l-380 0 ZM356 1282 l0 -486 l336 0 l0 -155 l-336 0 l0 -489 l214 0 q282 0 439 151 q157 151 157 428 q0 551 -586 551 l-224 0 Z" /><glyph glyph-name="uni018A" unicode="&#x18a;" d="M270 0 l0 1282 l-24 0 q-81 0 -125.5 -46.5 q-44.5 -46.5 -44.5 -123.5 q0 -55 20 -106 l-158 0 q-22 56 -22 122 q0 132 97.5 219 q97.5 87 258.5 87 l394 0 q758 0 758 -699 q0 -332 -210.5 -533.5 q-210.5 -201.5 -564.5 -201.5 l-379 0 ZM438 1282 l0 -1130 l214 0 q282 0 438.5 151 q156.5 151 156.5 428 q0 551 -585 551 l-224 0 Z" /><glyph glyph-name="uni018B" unicode="&#x18b;" d="M983 0 l-420 0 q-229 0 -350 103 q-121 103 -121 297 q0 194 133 309 q133 115 357 115 l233 0 l0 456 l-598 0 l0 154 l766 0 l0 -1434 ZM815 148 l0 526 l-231 0 q-314 0 -314 -268 q0 -258 310 -258 l235 0 Z" /><glyph glyph-name="uni018C" unicode="&#x18c;" d="M1038 0 l-162 0 l0 174 l-4 0 q-114 -198 -352 -198 q-193 0 -308.5 137.5 q-115.5 137.5 -115.5 374.5 q0 254 128 407 q128 153 341 153 q211 0 307 -166 l4 0 l0 494 l-642 0 l0 140 l804 0 l0 -1516 ZM876 463 l0 151 q0 124 -82 210 q-82 86 -208 86 q-150 0 -236 -110 q-86 -110 -86 -304 q0 -177 82.5 -279.5 q82.5 -102.5 221.5 -102.5 q137 0 222.5 99 q85.5 99 85.5 250 Z" /><glyph glyph-name="uni018D" unicode="&#x18d;" d="M733 72 q123 -83 166 -146 q43 -63 43 -143 q0 -113 -108.5 -189 q-108.5 -76 -280.5 -76 q-173 0 -317 76 l0 172 q150 -108 321 -108 q217 0 217 127 q0 52 -44 98.5 q-44 46.5 -244 165.5 q-211 126 -300.5 249.5 q-89.5 123.5 -89.5 269.5 q0 207 145 343.5 q145 136.5 373 136.5 q223 0 362.5 -130 q139.5 -130 139.5 -326 q0 -295 -383 -520 ZM604 154 q198 111 271 212 q73 101 73 216 q0 150 -93 239 q-93 89 -249 89 q-154 0 -248 -89.5 q-94 -89.5 -94 -238.5 q0 -110 64.5 -205 q64.5 -95 275.5 -223 Z" /><glyph glyph-name="uni018E" unicode="&#x18e;" d="M850 0 l-760 0 l0 152 l592 0 l0 489 l-518 0 l0 151 l518 0 l0 490 l-559 0 l0 152 l727 0 l0 -1434 Z" /><glyph glyph-name="uni0190" unicode="&#x190;" d="M1012 53 q-166 -77 -373 -77 q-245 0 -386 110.5 q-141 110.5 -141 294.5 q0 133 81 231 q81 98 225 136 l0 6 q-256 80 -256 317 q0 167 136.5 277 q136.5 110 353.5 110 q178 0 323 -70 l0 -170 q-153 88 -328 88 q-141 0 -226 -63 q-85 -63 -85 -170 q0 -112 101.5 -185 q101.5 -73 272.5 -73 l105 0 l0 -151 l-107 0 q-419 0 -419 -271 q0 -125 95.5 -195.5 q95.5 -70.5 260.5 -70.5 q200 0 367 92 l0 -166 Z" /><glyph glyph-name="uni0191" unicode="&#x191;" d="M916 1282 l-560 0 l0 -496 l518 0 l0 -151 l-518 0 l0 -582 q0 -415 -338 -415 q-65 0 -120 20 l0 160 q50 -29 112 -29 q178 0 178 264 l0 1381 l728 0 l0 -152 Z" /><glyph glyph-name="uni0193" unicode="&#x193;" d="M1413 1508 q-41 20 -77 20 q-114 0 -114 -168 q0 -72 15 -156 l-8 -6 q-191 108 -401 108 q-246 0 -402 -165 q-156 -165 -156 -431 q0 -272 143 -427.5 q143 -155.5 388 -155.5 q168 0 291 67 l0 402 l-314 0 l0 152 l484 0 l0 -650 q-216 -122 -482 -122 q-307 0 -496.5 198 q-189.5 198 -189.5 524 q0 333 210.5 546.5 q210.5 213.5 533.5 213.5 q121 0 239 -34 q3 100 70 171.5 q67 71.5 170 71.5 q48 0 96 -19 l0 -140 Z" /><glyph glyph-name="uni0194" unicode="&#x194;" d="M1254 1434 l-514 -1336 l6 -12 q114 -228 114 -338 q0 -97 -68.5 -163.5 q-68.5 -66.5 -167.5 -66.5 q-96 0 -161 65 q-65 65 -65 165 q0 61 20.5 119.5 q20.5 58.5 97.5 212.5 l8 16 l-506 1338 l187 0 l397 -1092 q21 -58 29 -112 l4 0 q13 57 33 112 l405 1092 l181 0 ZM628 -39 q-67 -141 -67 -209 q0 -88 67 -88 q68 0 68 88 q0 68 -68 209 Z" /><glyph glyph-name="uni0195" unicode="&#x195;" d="M330 0 l-164 0 l0 1516 l164 0 l0 -654 l4 0 q98 186 301 186 q336 0 336 -417 l0 -170 q0 -342 247 -342 q132 0 211 97 q79 97 79 261 q0 281 -144 547 l178 0 q129 -266 129 -540 q0 -229 -127 -368.5 q-127 -139.5 -330 -139.5 q-407 0 -407 474 l0 138 q0 170 -52.5 246 q-52.5 76 -176.5 76 q-108 0 -178 -90.5 q-70 -90.5 -70 -235.5 l0 -584 Z" /><glyph glyph-name="uni0196" unicode="&#x196;" d="M549 4 q-60 -22 -119 -22 q-246 0 -246 290 l0 1162 l168 0 l0 -1158 q0 -143 104 -143 q48 0 93 21 l0 -150 Z" /><glyph glyph-name="uni0197" unicode="&#x197;" d="M528 654 l-160 0 l0 -654 l-168 0 l0 654 l-159 0 l0 151 l159 0 l0 629 l168 0 l0 -629 l160 0 l0 -151 Z" /><glyph glyph-name="uni0198" unicode="&#x198;" d="M1186 0 l-234 0 l-554 656 q-31 37 -38 50 l-4 0 l0 -706 l-168 0 l0 1434 l168 0 l0 -674 l4 0 l316 420 q141 188 215 233 q74 45 166 45 q56 0 111 -26 l0 -156 q-56 30 -118 30 q-80 0 -198 -153 l-316 -411 l650 -742 Z" /><glyph glyph-name="uni0199" unicode="&#x199;" d="M1016 0 l-230 0 l-452 492 l-4 0 l0 -492 l-164 0 l0 1202 q0 153 89.5 244.5 q89.5 91.5 228.5 91.5 q71 0 118 -18 l0 -148 q-55 27 -108 27 q-164 0 -164 -207 l0 -637 l4 0 l430 469 l215 0 l-475 -494 l512 -530 Z" /><glyph glyph-name="uni019A" unicode="&#x19a;" d="M475 708 l-145 0 l0 -708 l-164 0 l0 708 l-146 0 l0 140 l146 0 l0 668 l164 0 l0 -668 l145 0 l0 -140 Z" /><glyph glyph-name="uni019B" unicode="&#x19b;" d="M991 0 l-176 0 l-281 828 l-356 -828 l-180 0 l463 1016 l-27 76 l-270 -132 l-58 113 l287 139 q-53 156 -155 156 q-62 0 -122 -18 l0 153 q60 15 130 15 q104 0 168 -52.5 q64 -52.5 118 -185.5 l244 119 l58 -113 l-256 -125 l413 -1161 Z" /><glyph glyph-name="uni019C" unicode="&#x19c;" d="M1638 0 l-164 0 l0 162 l-4 0 q-108 -186 -317 -186 q-215 0 -287 212 q-114 -212 -342 -212 q-340 0 -340 452 l0 1006 l168 0 l0 -986 q0 -165 51.5 -243 q51.5 -78 176.5 -78 q103 0 175.5 95.5 q72.5 95.5 72.5 229.5 l0 982 l168 0 l0 -1006 q0 -301 226 -301 q108 0 178 90.5 q70 90.5 70 234.5 l0 982 l168 0 l0 -1434 Z" /><glyph glyph-name="uni019D" unicode="&#x19d;" d="M1346 0 l-208 0 l-738 1143 q-28 43 -46 90 l-6 0 q8 -46 8 -197 l0 -983 q0 -415 -338 -415 q-65 0 -120 20 l0 160 q50 -29 112 -29 q178 0 178 264 l0 1381 l218 0 l718 -1125 q45 -70 58 -96 l4 0 q-10 62 -10 211 l0 1010 l170 0 l0 -1434 Z" /><glyph glyph-name="uni019E" unicode="&#x19e;" d="M1016 -404 l-166 0 l0 976 q0 327 -236 327 q-125 0 -204.5 -88.5 q-79.5 -88.5 -79.5 -222.5 l0 -588 l-164 0 l0 694 q0 239 -35 330 l168 0 q27 -71 27 -174 l4 0 q112 198 340 198 q167 0 256.5 -107 q89.5 -107 89.5 -310 l0 -1035 Z" /><glyph glyph-name="uni019F" unicode="&#x19f;" d="M766 -24 q-305 0 -488.5 201 q-183.5 201 -183.5 523 q0 346 187 552 q187 206 509 206 q297 0 478.5 -200 q181.5 -200 181.5 -523 q0 -351 -186 -555 q-186 -204 -498 -204 ZM1272 792 q-19 246 -148.5 380 q-129.5 134 -345.5 134 q-208 0 -345 -140 q-137 -140 -159 -374 l998 0 ZM1272 637 l-998 0 q21 -234 155 -372 q134 -138 337 -138 q220 0 353.5 133.5 q133.5 133.5 152.5 376.5 Z" /><glyph glyph-name="uni01A2" unicode="&#x1a2;" d="M1796 0 l-168 0 l0 1268 q-118 -25 -248 -25 q-54 0 -133 9 l0 -1154 q-249 -122 -481 -122 q-306 0 -489 200 q-183 200 -183 524 q0 332 193.5 545 q193.5 213 504.5 213 q112 0 302 -34 q190 -34 298 -34 q216 0 404 68 l0 -1458 ZM1080 188 l0 1086 q-202 32 -296 32 q-228 0 -371 -163 q-143 -163 -143 -428 q0 -266 139.5 -427 q139.5 -161 368.5 -161 q160 0 302 61 Z" /><glyph glyph-name="uni01A3" unicode="&#x1a3;" d="M1452 0 l-164 0 l0 866 q-100 -24 -192 -24 q-62 0 -123 8 l0 -788 q-175 -86 -359 -86 q-236 0 -377 141.5 q-141 141.5 -141 384.5 q0 250 148 398 q148 148 384 148 q84 0 236 -33 q152 -34 236 -34 q178 0 352 67 l0 -1048 ZM813 152 l0 728 q-127 30 -197 30 q-158 0 -255 -107.5 q-97 -107.5 -97 -296.5 q0 -184 98.5 -288 q98.5 -104 265.5 -104 q110 0 185 38 Z" /><glyph glyph-name="uni01A4" unicode="&#x1a4;" d="M438 542 l0 -542 l-168 0 l0 1282 l-24 0 q-81 0 -125.5 -46.5 q-44.5 -46.5 -44.5 -123.5 q0 -55 20 -106 l-158 0 q-22 56 -22 122 q0 132 97.5 219 q97.5 87 258.5 87 l392 0 q230 0 356.5 -112.5 q126.5 -112.5 126.5 -315.5 q0 -203 -141 -333.5 q-141 -130.5 -380 -130.5 l-188 0 ZM438 1282 l0 -588 l176 0 q357 0 357 304 q0 284 -336 284 l-197 0 Z" /><glyph glyph-name="uni01A5" unicode="&#x1a5;" d="M334 148 l-4 0 l0 -619 l-164 0 l0 1673 q0 152 89 244 q89 92 229 92 q71 0 118 -18 l0 -148 q-55 27 -108 27 q-164 0 -164 -207 l0 -348 l4 0 q118 204 354 204 q197 0 308.5 -136.5 q111.5 -136.5 111.5 -369.5 q0 -257 -125 -411.5 q-125 -154.5 -342 -154.5 q-201 0 -307 172 ZM330 561 l0 -143 q0 -126 82.5 -215 q82.5 -89 209.5 -89 q149 0 233.5 113.5 q84.5 113.5 84.5 317.5 q0 171 -79 268 q-79 97 -214 97 q-143 0 -230 -99 q-87 -99 -87 -250 Z" /><glyph glyph-name="uni01A6" unicode="&#x1a6;" d="M1122 -152 l-200 0 l-197 438 q-93 206 -254 206 l-115 0 l0 -492 l-168 0 l0 1434 l168 0 l0 -152 l260 0 q205 0 320.5 -102.5 q115.5 -102.5 115.5 -278.5 q0 -288 -319 -365 l0 -4 q87 -54 158 -200 l231 -484 ZM356 1130 l0 -487 l222 0 q137 0 217.5 64 q80.5 64 80.5 180 q0 243 -290 243 l-230 0 Z" /><glyph glyph-name="uni01A7" unicode="&#x1a7;" d="M967 58 q-28 -19 -74.5 -34.5 q-46.5 -15.5 -98.5 -26 q-52 -10.5 -101.5 -16 q-49.5 -5.5 -84.5 -5.5 q-102 0 -194 20.5 q-92 20.5 -162.5 66.5 q-70.5 46 -112 119.5 q-41.5 73.5 -41.5 179.5 q0 80 30.5 142 q30.5 62 82.5 113 q52 51 121 93 q69 42 146 80 q75 37 132.5 68 q57.5 31 97.5 64 q40 33 60.5 73 q20.5 40 20.5 95 q0 59 -27 100 q-27 41 -70 67 q-43 26 -97.5 37.5 q-54.5 11.5 -110.5 11.5 q-199 0 -326 -88 l0 189 q98 51 309 51 q93 0 182.5 -23 q89.5 -23 159.5 -70 q70 -47 113 -119.5 q43 -72.5 43 -170.5 q0 -80 -27.5 -139.5 q-27.5 -59.5 -75.5 -106.5 q-48 -47 -113 -86 q-65 -39 -140 -77 q-71 -36 -132.5 -68.5 q-61.5 -32.5 -106.5 -68 q-45 -35.5 -70.5 -78.5 q-25.5 -43 -25.5 -101 q0 -108 76.5 -165.5 q76.5 -57.5 231.5 -57.5 q45 0 98 9 q53 9 105.5 25.5 q52.5 16.5 100 40.5 q47.5 24 81.5 54 l0 -198 Z" /><glyph glyph-name="uni01A8" unicode="&#x1a8;" d="M765 37 q-116 -61 -274 -61 q-79 0 -152.5 18 q-73.5 18 -129.5 55 q-56 37 -89.5 93 q-33.5 56 -33.5 132 q0 62 20.5 107 q20.5 45 58.5 79.5 q38 34.5 92.5 62 q54.5 27.5 121.5 53.5 q51 20 91 37 q40 17 68 38 q28 21 42.5 48 q14.5 27 14.5 67 q0 32 -14.5 58.5 q-14.5 26.5 -41 45.5 q-26.5 19 -63.5 29.5 q-37 10.5 -83 10.5 q-147 0 -260 -74 l0 166 q105 46 238 46 q75 0 145.5 -19 q70.5 -19 125.5 -56.5 q55 -37.5 88 -93 q33 -55.5 33 -127.5 q0 -59 -17.5 -103 q-17.5 -44 -52 -78.5 q-34.5 -34.5 -86 -62 q-51.5 -27.5 -119.5 -54.5 q-49 -19 -91.5 -36.5 q-42.5 -17.5 -74 -39.5 q-31.5 -22 -50 -50.5 q-18.5 -28.5 -18.5 -69.5 q0 -144 216 -144 q162 0 295 99 l0 -176 Z" /><glyph glyph-name="uni01A9" unicode="&#x1a9;" d="M1008 0 l-963 0 l0 78 l467 662 l-424 604 l0 90 l858 0 l0 -154 l-612 0 l376 -536 l-417 -596 l715 0 l0 -148 Z" /><glyph glyph-name="uni01AA" unicode="&#x1aa;" d="M647 -450 q-57 -32 -149 -32 q-260 0 -260 308 l0 1254 q-57 -28 -124 -28 q-101 0 -170 67.5 q-69 67.5 -69 170.5 q0 104 72 176 q72 72 180 72 q128 0 200.5 -85.5 q72.5 -85.5 72.5 -234.5 l0 -1364 q0 -196 145 -196 q56 0 102 33 l0 -141 ZM238 1218 l0 13 q0 168 -113 168 q-42 0 -70.5 -30 q-28.5 -30 -28.5 -73 q0 -44 31 -74 q31 -30 80 -30 q53 0 101 26 Z" /><glyph glyph-name="uni01AB" unicode="&#x1ab;" d="M641 -68 q0 -135 -76.5 -214.5 q-76.5 -79.5 -202.5 -79.5 q-60 0 -112 24 l0 146 q52 -31 112 -31 q126 0 126 159 l0 40 q-269 0 -269 300 l0 608 l-176 0 l0 140 l176 0 l0 250 q77 24 164 53 l0 -303 l258 0 l0 -140 l-258 0 l0 -579 q0 -103 34.5 -147 q34.5 -44 116.5 -44 q60 0 107 34 l0 -216 Z" /><glyph glyph-name="uni01AC" unicode="&#x1ac;" d="M1036 1282 l-414 0 l0 -1282 l-168 0 l0 1282 l-155 0 q-90 0 -140.5 -46 q-50.5 -46 -50.5 -124 q0 -55 21 -106 l-157 0 q-23 56 -23 122 q0 133 97 219.5 q97 86.5 259 86.5 l731 0 l0 -152 Z" /><glyph glyph-name="uni01AD" unicode="&#x1ad;" d="M641 10 q-58 -32 -153 -32 q-269 0 -269 300 l0 606 l-176 0 l0 140 l176 0 l0 192 q0 147 76 234.5 q76 87.5 207 87.5 q74 0 139 -28 l0 -146 q-61 35 -125 35 q-133 0 -133 -191 l0 -184 l258 0 l0 -140 l-258 0 l0 -577 q0 -103 34.5 -147 q34.5 -44 116.5 -44 q60 0 107 34 l0 -140 Z" /><glyph glyph-name="uni01AE" unicode="&#x1ae;" d="M1036 1282 l-414 0 l0 -1229 q0 -264 170 -264 q70 0 122 23 l0 -148 q-58 -26 -136 -26 q-324 0 -324 405 l0 1239 l-415 0 l0 152 l997 0 l0 -152 Z" /><glyph glyph-name="uni01B1" unicode="&#x1b1;" d="M446 1286 l-348 0 l0 148 l518 0 l0 -148 q-344 -254 -344 -632 q0 -247 138.5 -388 q138.5 -141 359.5 -141 q224 0 364 142 q140 142 140 387 q0 376 -346 632 l0 148 l518 0 l0 -148 l-346 0 q348 -236 348 -637 q0 -310 -185 -491.5 q-185 -181.5 -489 -181.5 q-307 0 -491.5 179 q-184.5 179 -184.5 492 q0 403 348 639 Z" /><glyph glyph-name="uni01B2" unicode="&#x1b2;" d="M184 1434 l168 0 l0 -852 q0 -455 344 -455 q217 0 356.5 200.5 q139.5 200.5 139.5 493.5 q0 485 -264 485 q-72 0 -136 -28 l0 154 q77 26 164 26 q186 0 297 -169.5 q111 -169.5 111 -454.5 q0 -359 -191.5 -608.5 q-191.5 -249.5 -484.5 -249.5 q-504 0 -504 598 l0 860 Z" /><glyph glyph-name="uni01B3" unicode="&#x1b3;" d="M193 1434 l336 -648 q27 -51 39 -88 l2 0 l35 88 l199 410 q70 145 141 203.5 q71 58.5 178 58.5 q57 0 115 -24 l0 -156 q-47 28 -105 28 q-90 0 -174 -170 l-303 -610 l0 -526 l-168 0 l0 530 l-473 904 l178 0 Z" /><glyph glyph-name="uni01B4" unicode="&#x1b4;" d="M1120 889 q-44 19 -88 19 q-102 0 -168 -168 l-354 -904 q-125 -318 -354 -318 q-66 0 -107 13 l0 147 q51 -18 97 -18 q124 0 186 148 l82 194 l-400 1022 l182 0 l277 -788 q10 -28 21 -78 l6 0 q5 26 20 78 l192 518 q109 294 318 294 q41 0 90 -16 l0 -143 Z" /><glyph glyph-name="uni01B5" unicode="&#x1b5;" d="M1124 1394 l-399 -589 l252 0 l0 -151 l-355 0 l-338 -502 l820 0 l0 -152 l-1071 0 l0 47 l409 607 l-227 0 l0 151 l330 0 l321 477 l-768 0 l0 152 l1026 0 l0 -40 Z" /><glyph glyph-name="uni01B6" unicode="&#x1b6;" d="M880 977 l-276 -381 l188 0 l0 -140 l-288 0 l-230 -316 l600 0 l0 -140 l-841 0 l0 51 l295 405 l-168 0 l0 140 l268 0 l211 288 l-549 0 l0 140 l790 0 l0 -47 Z" /><glyph glyph-name="uni01B7" unicode="&#x1b7;" d="M10 -375 l0 181 q224 -136 446 -136 q233 0 378 119.5 q145 119.5 145 310.5 q0 204 -151.5 317 q-151.5 113 -417.5 113 l-92 0 l0 76 l501 676 l-780 0 l0 152 l1026 0 l0 -76 l-510 -686 q273 -23 436.5 -175 q163.5 -152 163.5 -391 q0 -256 -200.5 -422 q-200.5 -166 -500.5 -166 q-232 0 -444 107 Z" /><glyph glyph-name="uni01B8" unicode="&#x1b8;" d="M1239 -375 q-213 -107 -465 -107 q-299 0 -489.5 159 q-190.5 159 -190.5 417 q0 235 167 395 q167 160 433 183 l-510 686 l0 76 l1026 0 l0 -152 l-778 0 l500 -676 l0 -76 l-92 0 q-264 0 -417 -114.5 q-153 -114.5 -153 -315.5 q0 -191 145 -310.5 q145 -119.5 377 -119.5 q240 0 447 125 l0 -170 Z" /><glyph glyph-name="uni01B9" unicode="&#x1b9;" d="M938 -398 q-154 -81 -356 -81 q-244 0 -398 124.5 q-154 124.5 -154 328.5 q0 176 123.5 301.5 q123.5 125.5 330.5 154.5 l-394 543 l0 51 l813 0 l0 -140 l-571 0 l378 -532 l0 -51 l-84 0 q-200 0 -314 -85.5 q-114 -85.5 -114 -235.5 q0 -141 109 -230.5 q109 -89.5 279 -89.5 q196 0 352 98 l0 -156 Z" /><glyph glyph-name="uni01BA" unicode="&#x1ba;" d="M670 -252 l0 -158 q-137 -72 -322 -72 q-160 0 -249 62.5 q-89 62.5 -89 173.5 q0 197 312 299 q164 54 227 108.5 q63 54.5 63 143.5 q0 90 -79 141.5 q-79 51.5 -221 51.5 l-82 0 l0 61 l282 325 l-502 0 l0 140 l728 0 l0 -70 l-294 -338 q158 -18 245 -99 q87 -81 87 -210 q0 -126 -83 -213.5 q-83 -87.5 -279 -155.5 q-147 -50 -191.5 -84.5 q-44.5 -34.5 -44.5 -87.5 q0 -108 184 -108 q170 0 308 90 Z" /><glyph glyph-name="uni01BB" unicode="&#x1bb;" d="M962 555 l-290 0 l-379 -407 l667 0 l0 -148 l-864 0 l0 146 l383 409 l-253 0 l0 147 l388 0 q105 119 146 197.5 q41 78.5 41 163.5 q0 120 -72 188 q-72 68 -201 68 q-190 0 -368 -164 l0 172 q162 131 391 131 q192 0 301.5 -103.5 q109.5 -103.5 109.5 -279.5 q0 -175 -159 -373 l159 0 l0 -147 Z" /><glyph glyph-name="uni01BC" unicode="&#x1bc;" d="M164 35 l0 174 q147 -95 299 -95 q153 0 245.5 86.5 q92.5 86.5 92.5 227.5 q0 142 -95 220.5 q-95 78.5 -272 78.5 q-50 0 -127 -5 q-95 -7 -102 -7 l69 571 l-158 0 l0 148 l787 0 l0 -148 l-475 0 l-51 -420 q65 4 109 4 q231 0 356.5 -115 q125.5 -115 125.5 -317 q0 -208 -135.5 -335 q-135.5 -127 -371.5 -127 q-189 0 -297 59 Z" /><glyph glyph-name="uni01BD" unicode="&#x1bd;" d="M90 24 l0 166 q114 -76 236 -76 q100 0 161.5 54 q61.5 54 61.5 141 q0 84 -65.5 134.5 q-65.5 50.5 -180.5 50.5 q-23 0 -189 -8 l62 398 l-104 0 l0 140 l604 0 l0 -140 l-350 0 l-40 -253 q50 2 70 2 q157 0 259 -83.5 q102 -83.5 102 -231.5 q0 -151 -106.5 -246.5 q-106.5 -95.5 -284.5 -95.5 q-158 0 -236 48 Z" /><glyph glyph-name="uni01BE" unicode="&#x1be;" d="M112 37 l0 176 q118 -99 267 -99 q195 0 195 144 q0 46 -28 83.5 q-28 37.5 -153 100.5 q-146 76 -191.5 153.5 q-45.5 77.5 -45.5 186.5 l0 102 l-126 0 l0 140 l126 0 l0 250 l164 53 l0 -303 l258 0 l0 -140 l-258 0 l0 -98 q0 -75 35 -122 q35 -47 137 -96 q137 -68 192.5 -138 q55.5 -70 55.5 -164 q0 -127 -100.5 -208.5 q-100.5 -81.5 -273.5 -81.5 q-150 0 -254 61 Z" /><glyph glyph-name="uni01BF" unicode="&#x1bf;" d="M330 -45 l0 -426 l-164 0 l0 1495 l164 0 l0 -129 q172 153 366 153 q151 0 250.5 -98 q99.5 -98 99.5 -244 q0 -223 -190 -422 q-190 -199 -526 -329 ZM330 725 l0 -613 q242 97 395 251 q153 154 153 327 q0 93 -56 154 q-56 61 -148 61 q-158 0 -344 -180 Z" /><glyph glyph-name="uni01C0" unicode="&#x1c0;" d="M320 -482 l-148 0 l0 2048 l148 0 l0 -2048 Z" /><glyph glyph-name="uni01C1" unicode="&#x1c1;" d="M614 -482 l-147 0 l0 2048 l147 0 l0 -2048 ZM320 -482 l-148 0 l0 2048 l148 0 l0 -2048 Z" /><glyph glyph-name="uni01C2" unicode="&#x1c2;" d="M882 326 l-342 0 l0 -808 l-147 0 l0 808 l-342 0 l0 139 l342 0 l0 279 l-342 0 l0 138 l342 0 l0 684 l147 0 l0 -684 l342 0 l0 -138 l-342 0 l0 -279 l342 0 l0 -139 Z" /><glyph glyph-name="uni01DD" unicode="&#x1dd;" d="M82 553 l723 0 q-5 171 -92 264 q-87 93 -242 93 q-173 0 -317 -114 l0 154 q134 98 356 98 q217 0 341 -139.5 q124 -139.5 124 -392.5 q0 -241 -135.5 -390.5 q-135.5 -149.5 -335.5 -149.5 q-203 0 -312.5 131 q-109.5 131 -109.5 360 l0 86 ZM803 414 l-553 0 q2 -143 69 -221.5 q67 -78.5 187 -78.5 q116 0 197 83 q81 83 100 217 Z" /><glyph glyph-name="uni01E4" unicode="&#x1e4;" d="M1405 305 l-145 0 l0 -207 q-216 -122 -480 -122 q-307 0 -496.5 198 q-189.5 198 -189.5 524 q0 333 210.5 546.5 q210.5 213.5 533.5 213.5 q234 0 393 -76 l0 -186 q-174 110 -412 110 q-241 0 -395 -166 q-154 -166 -154 -430 q0 -272 143 -427.5 q143 -155.5 388 -155.5 q168 0 291 67 l0 111 l-312 0 l0 139 l312 0 l0 152 l-314 0 l0 152 l482 0 l0 -304 l145 0 l0 -139 Z" /><glyph glyph-name="uni01E5" unicode="&#x1e5;" d="M1206 -209 l-219 0 q-119 -273 -487 -273 q-190 0 -332 72 l0 164 q173 -96 330 -96 q218 0 311 133 l-332 0 l0 139 l387 0 q12 61 12 130 l0 153 l-4 0 q-117 -197 -352 -197 q-189 0 -306.5 134 q-117.5 134 -117.5 350 q0 245 128 396.5 q128 151.5 341 151.5 q207 0 307 -166 l4 0 l0 142 l164 0 l0 -942 q0 -80 -12 -152 l178 0 l0 -139 ZM876 504 l0 110 q0 122 -82.5 209 q-82.5 87 -205.5 87 q-151 0 -237.5 -107 q-86.5 -107 -86.5 -293 q0 -157 83.5 -255.5 q83.5 -98.5 217.5 -98.5 q138 0 224.5 97 q86.5 97 86.5 251 Z" /><glyph glyph-name="uni01EA" unicode="&#x1ea;" d="M840 -20 q-128 -126 -128 -203 q0 -70 68 -70 q30 0 56 13 l0 -107 q-30 -13 -82 -13 q-76 0 -122 40 q-46 40 -46 110 q0 111 131 228 q-283 17 -453 215.5 q-170 198.5 -170 506.5 q0 346 187 552 q187 206 509 206 q297 0 478.5 -200 q181.5 -200 181.5 -523 q0 -326 -163.5 -528.5 q-163.5 -202.5 -446.5 -226.5 ZM778 1306 q-226 0 -367 -163 q-141 -163 -141 -428 q0 -265 137.5 -426.5 q137.5 -161.5 358.5 -161.5 q236 0 372 154 q136 154 136 431 q0 284 -132 439 q-132 155 -364 155 Z" /><glyph glyph-name="uni01EB" unicode="&#x1eb;" d="M674 -20 q-129 -128 -129 -203 q0 -70 67 -70 q30 0 56 13 l0 -107 q-30 -13 -82 -13 q-76 0 -122 40 q-46 40 -46 110 q0 111 131 228 q-208 14 -330.5 156 q-122.5 142 -122.5 366 q0 258 141 403 q141 145 381 145 q229 0 357.5 -141 q128.5 -141 128.5 -391 q0 -222 -115 -366.5 q-115 -144.5 -315 -169.5 ZM606 910 q-158 0 -250 -107.5 q-92 -107.5 -92 -296.5 q0 -182 93 -287 q93 -105 249 -105 q159 0 244.5 103 q85.5 103 85.5 293 q0 192 -85.5 296 q-85.5 104 -244.5 104 Z" /><glyph glyph-name="uni01F6" unicode="&#x1f6;" d="M1913 428 q0 -214 -116 -333 q-116 -119 -321 -119 q-201 0 -310 114.5 q-109 114.5 -109 325.5 l0 238 l-701 0 l0 -654 l-168 0 l0 1434 l168 0 l0 -629 l701 0 l0 629 l167 0 l0 -1004 q0 -303 261 -303 q260 0 260 297 l0 600 l168 0 l0 -596 Z" /><glyph glyph-name="uni01F7" unicode="&#x1f7;" d="M356 -58 l0 -413 l-168 0 l0 1905 l168 0 l0 -226 q235 250 520 250 q194 0 318.5 -135 q124.5 -135 124.5 -334 q0 -321 -254.5 -595.5 q-254.5 -274.5 -708.5 -451.5 ZM356 1014 l0 -904 q353 145 570 373.5 q217 228.5 217 487.5 q0 142 -81.5 236.5 q-81.5 94.5 -217.5 94.5 q-234 0 -488 -288 Z" /><glyph glyph-name="uni021C" unicode="&#x21c;" d="M16 -465 l0 156 q76 -19 178 -19 q256 0 428 136.5 q172 136.5 172 343.5 q0 160 -114 261 q-114 101 -297 101 q-90 0 -205 -32 l0 151 l113 25 q430 95 430 360 q0 131 -97 209.5 q-97 78.5 -264 78.5 q-172 0 -334 -90 l0 164 q154 78 344 78 q246 0 384.5 -118 q138.5 -118 138.5 -312 q0 -281 -297 -395 l0 -9 q173 -41 274 -165.5 q101 -124.5 101 -300.5 q0 -264 -220.5 -450.5 q-220.5 -186.5 -552.5 -186.5 q-103 0 -182 14 Z" /><glyph glyph-name="uni021D" unicode="&#x21d;" d="M47 -467 l0 145 q66 -18 151 -18 q203 0 333.5 100 q130.5 100 130.5 258 q0 125 -82 202 q-82 77 -222 77 q-88 0 -182 -29 l0 140 l96 18 q158 30 246 103 q88 73 88 171 q0 98 -73.5 154 q-73.5 56 -210.5 56 q-150 0 -292 -82 l0 151 q134 69 310 69 q199 0 314.5 -94.5 q115.5 -94.5 115.5 -245.5 q0 -199 -232 -308 l0 -7 q132 -30 212 -129.5 q80 -99.5 80 -239.5 q0 -217 -174 -360 q-174 -143 -451 -143 q-97 0 -158 12 Z" /><glyph glyph-name="uni0220" unicode="&#x220;" d="M1319 -471 l-168 0 l0 1292 q0 485 -353 485 q-192 0 -317 -141 q-125 -141 -125 -354 l0 -811 l-168 0 l0 1434 l168 0 l0 -262 l6 0 q158 286 476 286 q233 0 357 -153.5 q124 -153.5 124 -438.5 l0 -1337 Z" /><glyph glyph-name="uni0222" unicode="&#x222;" d="M342 864 q-205 106 -205 328 q0 120 55 242 l172 0 q-59 -112 -59 -234 q0 -116 82 -191 q82 -75 219 -75 q138 0 221 75 q83 75 83 191 q0 118 -62 234 l174 0 q55 -124 55 -242 q0 -206 -209 -328 q134 -52 209.5 -159 q75.5 -107 75.5 -246 q0 -215 -156 -349 q-156 -134 -395 -134 q-242 0 -391 128.5 q-149 128.5 -149 345.5 q0 286 280 414 ZM606 778 q-158 0 -263 -87.5 q-105 -87.5 -105 -236.5 q0 -149 108 -238 q108 -89 260 -89 q159 0 265 88.5 q106 88.5 106 238.5 q0 149 -109 236.5 q-109 87.5 -262 87.5 Z" /><glyph glyph-name="uni0223" unicode="&#x223;" d="M338 884 q-95 48 -150 147 q-55 99 -55 223 q0 128 43 262 l160 0 q-39 -120 -39 -252 q0 -142 76 -229 q76 -87 209 -87 q133 0 207.5 87.5 q74.5 87.5 74.5 228.5 q0 132 -38 252 l159 0 q43 -134 43 -262 q0 -245 -204 -370 q266 -126 266 -419 q0 -215 -148.5 -352 q-148.5 -137 -367.5 -137 q-223 0 -362.5 133.5 q-139.5 133.5 -139.5 351.5 q0 294 266 423 ZM582 809 q-146 0 -244 -94.5 q-98 -94.5 -98 -251.5 q0 -156 100 -252.5 q100 -96.5 240 -96.5 q145 0 243.5 96 q98.5 96 98.5 253 q0 153 -100 249.5 q-100 96.5 -240 96.5 Z" /><glyph glyph-name="uni0224" unicode="&#x224;" d="M1114 -244 l-164 0 q39 70 39 130 q0 114 -145 114 l-811 0 l0 47 l833 1235 l-766 0 l0 152 l1024 0 l0 -40 l-840 -1242 l572 0 q291 0 291 -252 q0 -71 -33 -144 Z" /><glyph glyph-name="uni0225" unicode="&#x225;" d="M895 -226 l-149 0 q34 64 34 120 q0 106 -133 106 l-614 0 l0 51 l606 833 l-549 0 l0 140 l790 0 l0 -47 l-606 -837 l384 0 q268 0 268 -232 q0 -65 -31 -134 Z" /><glyph glyph-name="uni0250" unicode="&#x250;" d="M305 375 q0 -261 213 -261 q186 0 334 126 l0 -168 q-55 -39 -156.5 -67.5 q-101.5 -28.5 -191.5 -28.5 q-360 0 -360 382 l0 666 l163 0 l0 -160 l5 0 q106 184 314 184 q153 0 239.5 -81 q86.5 -81 86.5 -215 q0 -287 -338 -334 l-309 -43 ZM305 506 l250 34 q110 15 169.5 55.5 q59.5 40.5 59.5 144.5 q0 76 -53 123 q-53 47 -143 47 q-124 0 -203.5 -86.5 q-79.5 -86.5 -79.5 -215.5 l0 -102 Z" /><glyph glyph-name="uni0251" unicode="&#x251;" d="M1040 0 l-164 0 l0 174 l-4 0 q-114 -198 -352 -198 q-193 0 -308.5 137.5 q-115.5 137.5 -115.5 374.5 q0 254 128 407 q128 153 341 153 q211 0 307 -166 l4 0 l0 142 l164 0 l0 -1024 ZM876 463 l0 151 q0 124 -82 210 q-82 86 -208 86 q-150 0 -236 -110 q-86 -110 -86 -304 q0 -177 82.5 -279.5 q82.5 -102.5 221.5 -102.5 q137 0 222.5 99 q85.5 99 85.5 250 Z" /><glyph glyph-name="uni0252" unicode="&#x252;" d="M334 148 l-4 0 l0 -148 l-164 0 l0 1024 l164 0 l0 -180 l4 0 q121 204 354 204 q197 0 308.5 -137.5 q111.5 -137.5 111.5 -368.5 q0 -257 -125 -411.5 q-125 -154.5 -342 -154.5 q-203 0 -307 172 ZM330 561 l0 -143 q0 -127 82.5 -215.5 q82.5 -88.5 209.5 -88.5 q149 0 233.5 114 q84.5 114 84.5 317 q0 171 -79 268 q-79 97 -214 97 q-143 0 -230 -99.5 q-87 -99.5 -87 -249.5 Z" /><glyph glyph-name="uni0253" unicode="&#x253;" d="M336 148 l-4 0 l0 -148 l-166 0 l0 989 q0 276 126.5 412.5 q126.5 136.5 346.5 136.5 q138 0 264 -55 l0 -152 q-132 68 -268 68 q-135 0 -219 -82.5 q-84 -82.5 -84 -325.5 l0 -147 l4 0 q121 204 354 204 q197 0 308.5 -137.5 q111.5 -137.5 111.5 -368.5 q0 -257 -125 -411.5 q-125 -154.5 -342 -154.5 q-202 0 -307 172 ZM332 561 l0 -143 q0 -127 82.5 -215.5 q82.5 -88.5 209.5 -88.5 q149 0 234.5 114.5 q85.5 114.5 85.5 316.5 q0 170 -79.5 267.5 q-79.5 97.5 -215.5 97.5 q-143 0 -230 -99.5 q-87 -99.5 -87 -249.5 Z" /><glyph glyph-name="uni0254" unicode="&#x254;" d="M92 33 l0 165 q120 -84 252 -84 q153 0 249.5 110 q96.5 110 96.5 294 q0 180 -94.5 286 q-94.5 106 -253.5 106 q-131 0 -252 -84 l0 155 q120 67 278 67 q219 0 354.5 -142.5 q135.5 -142.5 135.5 -371.5 q0 -254 -140.5 -406 q-140.5 -152 -377.5 -152 q-140 0 -248 57 Z" /><glyph glyph-name="uni0255" unicode="&#x255;" d="M360 24 q-28 -80 -34 -168 l-140 0 q13 134 62 246 q-152 144 -152 386 q0 253 145 406.5 q145 153.5 387 153.5 q135 0 238 -50 l0 -168 q-114 80 -244 80 q-157 0 -257.5 -112.5 q-100.5 -112.5 -100.5 -295.5 q0 -156 70 -256 q138 180 326 180 q118 0 193 -60.5 q75 -60.5 75 -152.5 q0 -102 -94 -169.5 q-94 -67.5 -248 -67.5 q-124 0 -226 48 ZM426 156 q76 -48 172 -48 q85 0 134.5 27.5 q49.5 27.5 49.5 73.5 q0 86 -126 86 q-136 0 -230 -139 Z" /><glyph glyph-name="uni0256" unicode="&#x256;" d="M1313 -454 q-65 -28 -131 -28 q-146 0 -226 87.5 q-80 87.5 -80 246.5 l0 328 l-4 0 q-114 -204 -352 -204 q-194 0 -309 139 q-115 139 -115 371 q0 256 130 409 q130 153 344 153 q204 0 302 -168 l4 0 l0 636 l164 0 l0 -1658 q0 -200 160 -200 q60 0 113 26 l0 -138 ZM876 471 l0 135 q0 127 -81 215.5 q-81 88.5 -209 88.5 q-153 0 -237.5 -112 q-84.5 -112 -84.5 -306 q0 -172 82 -275 q82 -103 219 -103 q138 0 224.5 101.5 q86.5 101.5 86.5 255.5 Z" /><glyph glyph-name="uni0257" unicode="&#x257;" d="M1313 1372 q-55 27 -109 27 q-164 0 -164 -207 l0 -1192 l-164 0 l0 180 l-4 0 q-114 -204 -352 -204 q-194 0 -309 139 q-115 139 -115 371 q0 256 130 409 q130 153 344 153 q204 0 302 -168 l4 0 l0 322 q0 153 90 244.5 q90 91.5 228 91.5 q72 0 119 -18 l0 -148 ZM876 471 l0 135 q0 127 -81 215.5 q-81 88.5 -209 88.5 q-153 0 -237.5 -112 q-84.5 -112 -84.5 -306 q0 -172 82 -275 q82 -103 219 -103 q138 0 224.5 101.5 q86.5 101.5 86.5 255.5 Z" /><glyph glyph-name="uni0258" unicode="&#x258;" d="M154 66 l0 162 q154 -114 334 -114 q151 0 234.5 94.5 q83.5 94.5 86.5 262.5 l-727 0 l0 86 q0 224 117.5 357.5 q117.5 133.5 322.5 133.5 q205 0 329 -142.5 q124 -142.5 124 -393.5 q0 -247 -130.5 -391.5 q-130.5 -144.5 -346.5 -144.5 q-194 0 -344 90 ZM803 610 q-40 300 -291 300 q-122 0 -191 -80.5 q-69 -80.5 -71 -219.5 l553 0 Z" /><glyph glyph-name="uni025A" unicode="&#x25a;" d="M1302 664 q-56 -31 -108 -31 q-136 0 -196 141 l-62 -34 q35 -97 35 -224 q0 -244 -133.5 -392 q-133.5 -148 -337.5 -148 q-190 0 -298.5 119 q-108.5 119 -121.5 339 l645 352 q-91 124 -260 124 q-164 0 -317 -114 l0 154 q158 98 348 98 q240 0 374 -184 l195 104 l33 -104 q34 -106 110 -106 q48 0 94 34 l0 -128 ZM786 660 l-536 -294 q10 -108 79.5 -180 q69.5 -72 176.5 -72 q143 0 221 106 q78 106 78 290 q0 86 -19 150 Z" /><glyph glyph-name="uni025B" unicode="&#x25b;" d="M756 26 q-114 -50 -266 -50 q-186 0 -290 80.5 q-104 80.5 -104 215.5 q0 207 222 262 l0 4 q-187 64 -187 232 q0 125 100.5 201.5 q100.5 76.5 264.5 76.5 q130 0 233 -46 l0 -154 q-109 62 -233 62 q-90 0 -144.5 -40.5 q-54.5 -40.5 -54.5 -107.5 q0 -76 70 -120 q70 -44 190 -44 l80 0 l0 -142 l-82 0 q-291 0 -291 -172 q0 -78 64 -124 q64 -46 178 -46 q134 0 250 62 l0 -150 Z" /><glyph glyph-name="uni025C" unicode="&#x25c;" d="M90 26 l0 154 q114 -66 256 -66 q111 0 173.5 47.5 q62.5 47.5 62.5 122.5 q0 172 -289 172 l-84 0 l0 142 l80 0 q121 0 190.5 44.5 q69.5 44.5 69.5 119.5 q0 148 -201 148 q-118 0 -232 -60 l0 152 q115 46 244 46 q162 0 258.5 -75.5 q96.5 -75.5 96.5 -198.5 q0 -165 -185 -234 l0 -4 q220 -51 220 -254 q0 -136 -109.5 -221 q-109.5 -85 -296.5 -85 q-140 0 -254 50 Z" /><glyph glyph-name="uni025D" unicode="&#x25d;" d="M1077 664 q-57 -31 -104 -31 q-122 0 -183 121 l-84 -86 q-84 -86 -176 -128 l0 -4 q220 -52 220 -254 q0 -136 -109.5 -221 q-109.5 -85 -296.5 -85 q-140 0 -254 50 l0 154 q114 -66 256 -66 q111 0 173.5 47.5 q62.5 47.5 62.5 122.5 q0 172 -289 172 l-84 0 l0 142 l82 0 q115 0 186.5 46.5 q71.5 46.5 71.5 119.5 q0 146 -201 146 q-118 0 -232 -60 l0 152 q115 46 244 46 q285 0 346 -220 l134 140 l32 -94 q39 -116 117 -116 q42 0 88 34 l0 -128 Z" /><glyph glyph-name="uni025E" unicode="&#x25e;" d="M826 540 l0 -4 q210 -48 210 -250 q0 -135 -116 -222.5 q-116 -87.5 -310 -87.5 q-238 0 -376 141 q-138 141 -138 381 q0 252 147 401 q147 149 385 149 q168 0 273 -77.5 q105 -77.5 105 -200.5 q0 -162 -180 -230 ZM530 456 l0 142 l68 0 q244 0 244 160 q0 67 -61 109.5 q-61 42.5 -159 42.5 q-164 0 -261 -106.5 q-97 -106.5 -97 -297.5 q0 -182 97 -287 q97 -105 257 -105 q116 0 183 48 q67 48 67 122 q0 172 -266 172 l-72 0 Z" /><glyph glyph-name="uni025F" unicode="&#x25f;" d="M540 475 l-174 0 l0 -508 q0 -214 -97.5 -331.5 q-97.5 -117.5 -270.5 -117.5 q-72 0 -125 26 l0 153 q61 -39 127 -39 q203 0 203 305 l0 512 l-175 0 l0 139 l175 0 l0 410 l163 0 l0 -410 l174 0 l0 -139 Z" /><glyph glyph-name="uni0260" unicode="&#x260;" d="M1313 1372 q-55 27 -109 27 q-164 0 -164 -207 l0 -1110 q0 -564 -540 -564 q-190 0 -332 72 l0 164 q173 -96 330 -96 q378 0 378 402 l0 112 l-4 0 q-117 -196 -352 -196 q-191 0 -307.5 136.5 q-116.5 136.5 -116.5 366.5 q0 261 125.5 415 q125.5 154 343.5 154 q207 0 307 -166 l4 0 l0 320 q0 153 90 244.5 q90 91.5 228 91.5 q72 0 119 -18 l0 -148 ZM876 463 l0 151 q0 122 -82.5 209 q-82.5 87 -205.5 87 q-152 0 -238 -110.5 q-86 -110.5 -86 -309.5 q0 -171 82.5 -273.5 q82.5 -102.5 218.5 -102.5 q138 0 224.5 98 q86.5 98 86.5 251 Z" /><glyph glyph-name="uni0262" unicode="&#x262;" d="M973 62 q-175 -86 -359 -86 q-236 0 -377 140 q-141 140 -141 380 q0 241 156 396.5 q156 155.5 402 155.5 q154 0 284 -48 l0 -156 q-130 66 -293 66 q-169 0 -275 -112 q-106 -112 -106 -292 q0 -184 98.5 -288 q98.5 -104 265.5 -104 q110 0 185 38 l0 260 l-223 0 l0 139 l383 0 l0 -489 Z" /><glyph glyph-name="uni0263" unicode="&#x263;" d="M966 1024 l-392 -864 l34 -68 q94 -188 94 -292 q0 -99 -62 -164.5 q-62 -65.5 -161 -65.5 q-95 0 -155 65.5 q-60 65.5 -60 164.5 q0 90 98 292 l34 68 l-382 864 l178 0 l294 -702 l302 702 l178 0 ZM484 16 q-64 -139 -64 -212 q0 -99 64 -99 q65 0 65 99 q0 64 -65 212 Z" /><glyph glyph-name="uni0264" unicode="&#x264;" d="M926 864 q-70 46 -121 46 q-117 0 -242 -191 q149 -239 149 -441 q0 -136 -66.5 -219 q-66.5 -83 -182.5 -83 q-111 0 -174 82 q-63 82 -63 216 q0 210 146 445 q-130 191 -245 191 q-63 0 -117 -44 l0 150 q64 32 138 32 q158 0 321 -206 q165 206 323 206 q72 0 134 -32 l0 -152 ZM469 600 q-88 -163 -88 -314 q0 -172 88 -172 q88 0 88 172 q0 146 -88 314 Z" /><glyph glyph-name="uni0265" unicode="&#x265;" d="M994 -471 l-164 0 l0 641 l-4 0 q-120 -194 -338 -194 q-344 0 -344 417 l0 631 l163 0 l0 -590 q0 -320 235 -320 q122 0 205 93.5 q83 93.5 83 236.5 l0 580 l164 0 l0 -1495 Z" /><glyph glyph-name="uni0266" unicode="&#x266;" d="M1016 0 l-164 0 l0 590 q0 320 -238 320 q-120 0 -202 -92.5 q-82 -92.5 -82 -237.5 l0 -580 l-164 0 l0 989 q0 276 126 412.5 q126 136.5 345 136.5 q138 0 264 -55 l0 -152 q-132 68 -268 68 q-135 0 -219 -82.5 q-84 -82.5 -84 -325.5 l0 -137 l4 0 q118 194 336 194 q346 0 346 -417 l0 -631 Z" /><glyph glyph-name="uni0267" unicode="&#x267;" d="M1016 -4 q0 -230 -95.5 -354 q-95.5 -124 -268.5 -124 q-76 0 -130 26 l0 153 q62 -39 130 -39 q200 0 200 318 l0 614 q0 320 -238 320 q-120 0 -202 -92.5 q-82 -92.5 -82 -237.5 l0 -580 l-164 0 l0 989 q0 276 126 412.5 q126 136.5 345 136.5 q138 0 264 -55 l0 -152 q-132 68 -268 68 q-135 0 -219 -82.5 q-84 -82.5 -84 -325.5 l0 -137 l4 0 q118 194 336 194 q346 0 346 -417 l0 -635 Z" /><glyph glyph-name="uni0268" unicode="&#x268;" d="M272 1284 q-44 0 -76 30 q-32 30 -32 76 q0 46 32 76.5 q32 30.5 76 30.5 q46 0 76.5 -30.5 q30.5 -30.5 30.5 -76.5 q0 -44 -30.5 -75 q-30.5 -31 -76.5 -31 ZM526 475 l-176 0 l0 -475 l-164 0 l0 475 l-176 0 l0 139 l176 0 l0 410 l164 0 l0 -410 l176 0 l0 -139 Z" /><glyph glyph-name="uni0269" unicode="&#x269;" d="M559 8 q-57 -30 -149 -30 q-262 0 -262 296 l0 750 l164 0 l0 -721 q0 -187 144 -187 q60 0 103 32 l0 -140 Z" /><glyph glyph-name="uni026A" unicode="&#x26a;" d="M580 0 l-504 0 l0 140 l170 0 l0 744 l-170 0 l0 140 l504 0 l0 -140 l-170 0 l0 -744 l170 0 l0 -140 Z" /><glyph glyph-name="uni026B" unicode="&#x26b;" d="M594 729 q-68 -57 -156 -57 q-35 0 -76 10 l0 -682 l-164 0 l0 729 q-46 13 -69 13 q-77 0 -149 -70 l0 149 q70 59 155 59 q29 0 63 -8 l0 644 l164 0 l0 -692 q46 -13 82 -13 q78 0 150 69 l0 -151 Z" /><glyph glyph-name="uni026C" unicode="&#x26c;" d="M750 647 l-256 0 l0 -647 l-164 0 l0 647 l-66 0 q-136 0 -210 58 q-74 58 -74 161 q0 85 58.5 145 q58.5 60 147.5 60 q86 0 144 -59 l0 504 l164 0 l0 -730 l256 0 l0 -139 ZM330 786 q-4 68 -40.5 114 q-36.5 46 -86.5 46 q-76 0 -76 -74 q0 -86 139 -86 l64 0 Z" /><glyph glyph-name="uni026D" unicode="&#x26d;" d="M602 -454 q-64 -28 -131 -28 q-147 0 -226 87.5 q-79 87.5 -79 246.5 l0 1664 l164 0 l0 -1658 q0 -200 160 -200 q60 0 112 26 l0 -138 Z" /><glyph glyph-name="uni026E" unicode="&#x26e;" d="M295 -398 l0 162 q165 -104 342 -104 q174 0 285.5 91 q111.5 91 111.5 235 q0 150 -111.5 232.5 q-111.5 82.5 -316.5 82.5 l-82 0 l0 51 l384 532 l-578 0 l0 -884 l-164 0 l0 1516 l164 0 l0 -492 l813 0 l0 -51 l-393 -543 q216 -26 334 -143.5 q118 -117.5 118 -296.5 q0 -204 -162 -336.5 q-162 -132.5 -409 -132.5 q-182 0 -336 81 Z" /><glyph glyph-name="uni026F" unicode="&#x26f;" d="M1620 0 l-164 0 l0 162 l-4 0 q-109 -186 -318 -186 q-105 0 -183 58.5 q-78 58.5 -107 153.5 q-114 -212 -340 -212 q-338 0 -338 417 l0 631 l164 0 l0 -588 q0 -170 52.5 -246 q52.5 -76 176.5 -76 q105 0 178.5 96 q73.5 96 73.5 230 l0 584 l164 0 l0 -608 q0 -302 233 -302 q108 0 178 90.5 q70 90.5 70 235.5 l0 584 l164 0 l0 -1024 Z" /><glyph glyph-name="uni0270" unicode="&#x270;" d="M1620 -471 l-164 0 l0 633 l-4 0 q-109 -186 -318 -186 q-105 0 -183 58.5 q-78 58.5 -107 153.5 q-114 -212 -340 -212 q-338 0 -338 417 l0 631 l164 0 l0 -588 q0 -170 52.5 -246 q52.5 -76 176.5 -76 q105 0 178.5 96 q73.5 96 73.5 230 l0 584 l164 0 l0 -608 q0 -302 233 -302 q108 0 178 90.5 q70 90.5 70 235.5 l0 584 l164 0 l0 -1495 Z" /><glyph glyph-name="uni0271" unicode="&#x271;" d="M1256 -342 q200 0 200 318 l0 612 q0 170 -52.5 246 q-52.5 76 -176.5 76 q-105 0 -178.5 -96 q-73.5 -96 -73.5 -230 l0 -584 l-164 0 l0 608 q0 302 -233 302 q-108 0 -178 -90.5 q-70 -90.5 -70 -235.5 l0 -584 l-164 0 l0 1024 l164 0 l0 -162 l4 0 q109 186 318 186 q105 0 183 -58.5 q78 -58.5 107 -153.5 q114 212 340 212 q338 0 338 -417 l0 -635 q0 -230 -95.5 -354 q-95.5 -124 -268.5 -124 q-76 0 -130 26 l0 153 q62 -39 130 -39 Z" /><glyph glyph-name="uni0272" unicode="&#x272;" d="M1016 0 l-164 0 l0 584 q0 326 -236 326 q-123 0 -204.5 -92.5 q-81.5 -92.5 -81.5 -233.5 l0 -732 q0 -153 -89.5 -243.5 q-89.5 -90.5 -228.5 -90.5 q-72 0 -118 19 l0 147 q54 -26 108 -26 q164 0 164 205 l0 1161 l164 0 l0 -170 l4 0 q116 194 338 194 q344 0 344 -422 l0 -626 Z" /><glyph glyph-name="uni0273" unicode="&#x273;" d="M1288 -454 q-64 -28 -131 -28 q-147 0 -226 87.5 q-79 87.5 -79 246.5 l0 732 q0 326 -236 326 q-123 0 -204.5 -92.5 q-81.5 -92.5 -81.5 -233.5 l0 -584 l-164 0 l0 1024 l164 0 l0 -170 l4 0 q116 194 338 194 q344 0 344 -422 l0 -768 q0 -200 160 -200 q60 0 112 26 l0 -138 Z" /><glyph glyph-name="uni0274" unicode="&#x274;" d="M1034 0 l-156 0 l-506 721 q-36 51 -48 75 l-4 0 q4 -53 4 -130 l0 -666 l-158 0 l0 1024 l164 0 l498 -704 q32 -45 48 -78 l4 0 q-6 51 -6 114 l0 668 l160 0 l0 -1024 Z" /><glyph glyph-name="uni0275" unicode="&#x275;" d="M594 -24 q-227 0 -362.5 143.5 q-135.5 143.5 -135.5 380.5 q0 258 141 403 q141 145 381 145 q229 0 357.5 -141 q128.5 -141 128.5 -391 q0 -245 -138.5 -392.5 q-138.5 -147.5 -371.5 -147.5 ZM932 592 q-30 318 -326 318 q-141 0 -229.5 -83 q-88.5 -83 -106.5 -235 l662 0 ZM934 452 l-666 0 q10 -158 100 -248 q90 -90 238 -90 q308 0 328 338 Z" /><glyph glyph-name="uni0276" unicode="&#x276;" d="M1376 0 l-557 0 l-215 -22 q-235 0 -371.5 144.5 q-136.5 144.5 -136.5 379.5 q0 243 141 393.5 q141 150.5 379 150.5 q49 0 203 -22 l533 0 l0 -140 l-394 0 l0 -298 l367 0 l0 -140 l-367 0 l0 -306 l418 0 l0 -140 ZM796 140 l0 749 q-96 25 -178 25 q-159 0 -255.5 -112.5 q-96.5 -112.5 -96.5 -291.5 q0 -180 93 -290 q93 -110 255 -110 q70 0 182 30 Z" /><glyph glyph-name="uni0277" unicode="&#x277;" d="M735 178 l-6 0 q-87 -202 -291 -202 q-158 0 -250 117.5 q-92 117.5 -92 330.5 q0 279 178.5 451.5 q178.5 172.5 479.5 172.5 q284 0 455 -165 q171 -165 171 -437 q0 -225 -100 -347.5 q-100 -122.5 -276 -122.5 q-106 0 -167.5 46 q-61.5 46 -101.5 156 ZM658 518 l159 0 l0 -90 q0 -314 185 -314 q214 0 214 324 q0 223 -125 347.5 q-125 124.5 -349 124.5 q-222 0 -352 -129 q-130 -129 -130 -345 q0 -322 207 -322 q191 0 191 314 l0 90 Z" /><glyph glyph-name="uni0278" unicode="&#x278;" d="M735 -24 l0 -447 l-163 0 l0 447 q-221 17 -348.5 162 q-127.5 145 -127.5 368 q0 231 130 375 q130 144 346 167 l0 468 l163 0 l0 -468 q223 -16 349 -159.5 q126 -143.5 126 -372.5 q0 -227 -129 -373 q-129 -146 -346 -167 ZM735 910 l0 -796 q147 18 227 122 q80 104 80 276 q0 171 -80 275.5 q-80 104.5 -227 122.5 ZM572 114 l0 796 q-145 -18 -226.5 -123 q-81.5 -105 -81.5 -277 q0 -166 81.5 -271.5 q81.5 -105.5 226.5 -124.5 Z" /><glyph glyph-name="uni0279" unicode="&#x279;" d="M547 0 l-164 0 l0 200 l-4 0 q-83 -218 -269 -218 q-64 0 -98 14 l0 170 q44 -33 125 -33 q105 0 175.5 100 q70.5 100 70.5 269 l0 522 l164 0 l0 -1024 Z" /><glyph glyph-name="uni027A" unicode="&#x27a;" d="M547 0 l-164 0 l0 200 l-4 0 q-83 -218 -269 -218 q-64 0 -98 14 l0 170 q44 -33 125 -33 q105 0 175.5 100 q70.5 100 70.5 269 l0 1014 l164 0 l0 -1516 Z" /><glyph glyph-name="uni027B" unicode="&#x27b;" d="M819 -454 q-64 -28 -131 -28 q-146 0 -225.5 87.5 q-79.5 87.5 -79.5 246.5 l0 344 l-4 0 q-82 -214 -269 -214 q-64 0 -98 14 l0 170 q44 -33 125 -33 q104 0 175 99.5 q71 99.5 71 269.5 l0 522 l164 0 l0 -1166 q0 -200 159 -200 q61 0 113 26 l0 -138 Z" /><glyph glyph-name="uni027C" unicode="&#x27c;" d="M700 858 q-43 33 -124 33 q-105 0 -175.5 -99 q-70.5 -99 -70.5 -270 l0 -993 l-164 0 l0 1495 l164 0 l0 -211 l4 0 q74 229 268 229 q64 0 98 -14 l0 -170 Z" /><glyph glyph-name="uni027D" unicode="&#x27d;" d="M700 858 q-43 33 -124 33 q-105 0 -175.5 -99 q-70.5 -99 -70.5 -270 l0 -664 q0 -200 160 -200 q60 0 112 26 l0 -138 q-64 -28 -131 -28 q-147 0 -226 87.5 q-79 87.5 -79 246.5 l0 1172 l164 0 l0 -211 l4 0 q35 108 107 168.5 q72 60.5 161 60.5 q64 0 98 -14 l0 -170 Z" /><glyph glyph-name="uni027E" unicode="&#x27e;" d="M674 872 q-70 38 -154 38 q-215 0 -215 -275 l0 -635 l-161 0 l0 635 q0 189 103 301 q103 112 273 112 q86 0 154 -30 l0 -146 Z" /><glyph glyph-name="uni027F" unicode="&#x27f;" d="M542 -471 l-161 0 l0 1102 q0 279 -215 279 q-76 0 -154 -40 l0 146 q80 32 164 32 q176 0 271 -105 q95 -105 95 -302 l0 -1112 Z" /><glyph glyph-name="uni0280" unicode="&#x280;" d="M899 0 l-184 0 l-117 276 q-62 146 -182 146 l-86 0 l0 -422 l-164 0 l0 1024 l338 0 q165 0 256.5 -76 q91.5 -76 91.5 -208 q0 -218 -234 -267 l0 -4 q83 -33 140 -157 l141 -312 ZM330 884 l0 -323 l154 0 q204 0 204 168 q0 155 -196 155 l-162 0 Z" /><glyph glyph-name="uni0281" unicode="&#x281;" d="M899 1024 l-141 -309 q-51 -113 -136 -154 l0 -4 q230 -43 230 -258 q0 -136 -99.5 -217.5 q-99.5 -81.5 -273.5 -81.5 l-313 0 l0 1024 l164 0 l0 -422 l86 0 q65 0 106.5 32.5 q41.5 32.5 75.5 113.5 l121 276 l180 0 ZM330 463 l0 -323 l149 0 q209 0 209 157 q0 79 -55 122.5 q-55 43.5 -149 43.5 l-154 0 Z" /><glyph glyph-name="uni0282" unicode="&#x282;" d="M238 -2 l0 -39 q0 -170 149 -170 q59 0 119 35 l0 -123 q-65 -31 -138 -31 q-123 0 -193.5 71.5 q-70.5 71.5 -70.5 202.5 l0 269 q130 -99 266 -99 q195 0 195 144 q0 60 -43 99 q-43 39 -168 93 q-147 65 -197.5 133.5 q-50.5 68.5 -50.5 168.5 q0 128 101 212 q101 84 260 84 q122 0 219 -46 l0 -166 q-102 74 -232 74 q-82 0 -131 -40 q-49 -40 -49 -104 q0 -62 34.5 -99.5 q34.5 -37.5 160.5 -90.5 q148 -64 205 -134 q57 -70 57 -168 q0 -130 -97 -214 q-97 -84 -266 -84 q-65 0 -130 22 Z" /><glyph glyph-name="uni0283" unicode="&#x283;" d="M616 1372 q-50 27 -110 27 q-170 0 -170 -223 l0 -1305 q0 -162 -92.5 -257.5 q-92.5 -95.5 -235.5 -95.5 q-76 0 -118 19 l0 147 q50 -26 110 -26 q172 0 172 223 l0 1303 q0 164 92 259 q92 95 234 95 q76 0 118 -18 l0 -148 Z" /><glyph glyph-name="uni0284" unicode="&#x284;" d="M626 1372 q-50 27 -108 27 q-172 0 -172 -223 l0 -562 l176 0 l0 -139 l-176 0 l0 -604 q0 -164 -91.5 -258.5 q-91.5 -94.5 -234.5 -94.5 q-75 0 -118 19 l0 147 q50 -26 108 -26 q172 0 172 223 l0 594 l-176 0 l0 139 l176 0 l0 570 q0 162 92 258 q92 96 234 96 q76 0 118 -18 l0 -148 Z" /><glyph glyph-name="uni0285" unicode="&#x285;" d="M584 -452 q-58 -30 -150 -30 q-262 0 -262 296 l0 898 q0 197 -154 197 q-58 0 -108 -25 l0 140 q64 24 125 24 q144 0 222.5 -87 q78.5 -87 78.5 -243 l0 -875 q0 -187 146 -187 q56 0 102 34 l0 -142 Z" /><glyph glyph-name="uni0286" unicode="&#x286;" d="M654 1372 q-50 27 -112 27 q-170 0 -170 -223 l0 -1238 q122 -44 238 -128 l0 -166 q-122 104 -250 156 q-16 -129 -97.5 -205.5 q-81.5 -76.5 -211.5 -76.5 q-105 0 -172 60.5 q-67 60.5 -67 153.5 q0 109 90 181.5 q90 72.5 235 72.5 q39 0 72 -4 l0 1202 q0 162 92 258 q92 96 233 96 q76 0 120 -18 l0 -148 ZM209 -152 q-35 6 -72 6 q-174 0 -174 -112 q0 -90 99 -90 q142 0 147 196 Z" /><glyph glyph-name="uni0287" unicode="&#x287;" d="M654 0 l-177 0 l0 -250 l-161 -53 l0 303 l-260 0 l0 140 l260 0 l0 577 q0 103 -36 147 q-36 44 -118 44 q-62 0 -106 -34 l0 140 q57 32 153 32 q268 0 268 -300 l0 -606 l177 0 l0 -140 Z" /><glyph glyph-name="uni0288" unicode="&#x288;" d="M641 -448 q-58 -34 -153 -34 q-269 0 -269 302 l0 1064 l-176 0 l0 140 l176 0 l0 250 l164 53 l0 -303 l258 0 l0 -140 l-258 0 l0 -1036 q0 -103 35 -146.5 q35 -43.5 116 -43.5 q59 0 107 35 l0 -141 Z" /><glyph glyph-name="uni0289" unicode="&#x289;" d="M1188 475 l-152 0 l0 -475 l-164 0 l0 162 l-4 0 q-102 -186 -315 -186 q-369 0 -369 436 l0 63 l-151 0 l0 139 l151 0 l0 410 l164 0 l0 -410 l524 0 l0 410 l164 0 l0 -410 l152 0 l0 -139 ZM872 434 l0 41 l-524 0 l0 -37 q0 -324 250 -324 q120 0 197 88 q77 88 77 232 Z" /><glyph glyph-name="uni028A" unicode="&#x28a;" d="M284 884 l-188 0 l0 140 l383 0 l0 -142 q-219 -100 -219 -382 q0 -175 94.5 -280.5 q94.5 -105.5 255.5 -105.5 q166 0 257 102 q91 102 91 284 q0 282 -218 382 l0 142 l382 0 l0 -140 l-184 0 q184 -137 184 -398 q0 -227 -138 -368.5 q-138 -141.5 -380 -141.5 q-237 0 -372.5 139 q-135.5 139 -135.5 364 q0 263 188 405 Z" /><glyph glyph-name="uni028B" unicode="&#x28b;" d="M144 1024 l163 0 l0 -588 q0 -322 267 -322 q147 0 226.5 109.5 q79.5 109.5 79.5 302.5 q0 186 -48 286 q-48 100 -134 100 q-59 0 -112 -28 l0 138 q62 26 141 26 q150 0 234.5 -140.5 q84.5 -140.5 84.5 -375.5 q0 -253 -128 -404.5 q-128 -151.5 -355 -151.5 q-419 0 -419 446 l0 602 Z" /><glyph glyph-name="uni028C" unicode="&#x28c;" d="M968 0 l-180 0 l-260 744 q-28 81 -34 143 l-4 0 q-9 -67 -36 -139 l-270 -748 l-172 0 l406 1024 l164 0 l386 -1024 Z" /><glyph glyph-name="uni028D" unicode="&#x28d;" d="M1456 0 l-172 0 l-211 770 q-11 40 -14 92 l-9 0 q-2 -44 -18 -94 l-236 -768 l-149 0 l-213 772 q-10 36 -14 92 l-8 0 q-2 -39 -16 -92 l-210 -772 l-162 0 l310 1024 l168 0 l210 -733 q12 -43 17 -95 l4 0 q3 36 21 93 l229 735 l164 0 l309 -1024 Z" /><glyph glyph-name="uni028E" unicode="&#x28e;" d="M977 0 l-181 0 l-278 788 q-2 7 -18 78 l-6 0 q-6 -24 -23 -76 l-289 -790 l-170 0 l476 1198 q126 318 354 318 q61 0 104 -13 l0 -147 q-52 18 -94 18 q-127 0 -190 -152 l-84 -200 l399 -1022 Z" /><glyph glyph-name="uni028F" unicode="&#x28f;" d="M844 1024 l-336 -649 l0 -375 l-164 0 l0 375 l-334 649 l176 0 l184 -385 q41 -87 58 -133 l4 0 q24 70 56 133 l188 385 l168 0 Z" /><glyph glyph-name="uni0290" unicode="&#x290;" d="M1022 -238 q-52 -24 -117 -24 q-88 0 -141.5 55.5 q-53.5 55.5 -53.5 136.5 q0 34 9 70 l-686 0 l0 51 l606 833 l-549 0 l0 140 l790 0 l0 -47 l-606 -837 l600 0 q-34 -120 -34 -181 q0 -105 90 -105 q44 0 92 27 l0 -119 Z" /><glyph glyph-name="uni0291" unicode="&#x291;" d="M518 0 q-15 -70 -18 -127 l-142 0 q4 72 17 127 l-342 0 l0 51 l606 833 l-549 0 l0 140 l790 0 l0 -47 l-606 -837 l144 0 q61 143 162 222.5 q101 79.5 221 79.5 q118 0 189 -60 q71 -60 71 -152 q0 -106 -86 -168 q-86 -62 -242 -62 l-215 0 ZM563 140 l172 0 q183 0 183 90 q0 84 -120 84 q-154 0 -235 -174 Z" /><glyph glyph-name="uni0292" unicode="&#x292;" d="M-35 -398 l0 162 q165 -104 342 -104 q174 0 285.5 91 q111.5 91 111.5 235 q0 149 -111 232 q-111 83 -317 83 l-82 0 l0 51 l384 532 l-578 0 l0 140 l813 0 l0 -51 l-393 -543 q218 -26 335 -143 q117 -117 117 -297 q0 -204 -162 -336.5 q-162 -132.5 -409 -132.5 q-182 0 -336 81 Z" /><glyph glyph-name="uni0293" unicode="&#x293;" d="M908 -479 q-85 79 -185 149 q-166 -149 -424 -149 q-148 0 -234.5 62 q-86.5 62 -86.5 165 q0 100 88 165 q88 65 227 65 q179 0 379 -118 q32 62 32 132 q0 146 -112.5 227.5 q-112.5 81.5 -315.5 81.5 l-82 0 l0 51 l384 532 l-578 0 l0 140 l813 0 l0 -51 l-393 -543 q214 -26 333 -141.5 q119 -115.5 119 -292.5 q0 -117 -67 -224 q62 -46 103 -79 l0 -172 ZM590 -250 q-168 92 -297 92 q-77 0 -121.5 -25 q-44.5 -25 -44.5 -65 q0 -94 180 -94 q171 0 283 92 Z" /><glyph glyph-name="uni0294" unicode="&#x294;" d="M393 0 l-163 0 l0 494 q0 135 38 216 q38 81 148 189 q106 105 134 160 q28 55 28 117 q0 95 -75.5 159 q-75.5 64 -201.5 64 q-143 0 -273 -76 l0 151 q132 64 288 64 q194 0 311 -100 q117 -100 117 -252 q0 -91 -39.5 -170.5 q-39.5 -79.5 -168.5 -202.5 q-80 -77 -111.5 -142.5 q-31.5 -65.5 -31.5 -176.5 l0 -494 Z" /><glyph glyph-name="uni0295" unicode="&#x295;" d="M719 1321 q-135 78 -283 78 q-122 0 -194 -60 q-72 -60 -72 -149 q0 -56 25 -113 q25 -57 139 -174 q112 -115 148 -196 q36 -81 36 -213 l0 -494 l-164 0 l0 494 q0 95 -28.5 160 q-28.5 65 -120.5 157 q-122 121 -161.5 200.5 q-39.5 79.5 -39.5 174.5 q0 149 120 250.5 q120 101.5 312 101.5 q148 0 283 -62 l0 -155 Z" /><glyph glyph-name="uni0296" unicode="&#x296;" d="M0 39 l0 155 q134 -78 282 -78 q122 0 194.5 59 q72.5 59 72.5 151 q0 69 -30 124 q-30 55 -134 162 q-111 115 -148 195 q-37 80 -37 215 l0 494 l164 0 l0 -494 q0 -94 31 -162 q31 -68 119 -156 q122 -119 161.5 -199 q39.5 -80 39.5 -175 q0 -151 -119.5 -251.5 q-119.5 -100.5 -313.5 -100.5 q-147 0 -282 61 Z" /><glyph glyph-name="uni0297" unicode="&#x297;" d="M864 -393 q-132 -86 -288 -86 q-232 0 -356 189.5 q-124 189.5 -124 553.5 q0 383 131.5 583.5 q131.5 200.5 378.5 200.5 q135 0 258 -65 l0 -164 q-126 91 -258 91 q-340 0 -340 -634 q0 -618 330 -618 q140 0 268 102 l0 -153 Z" /><glyph glyph-name="uni0298" unicode="&#x298;" d="M628 -24 q-258 0 -395 198 q-137 198 -137 572 q0 380 141.5 586 q141.5 206 401.5 206 q258 0 394.5 -197 q136.5 -197 136.5 -575 q0 -381 -141 -585.5 q-141 -204.5 -401 -204.5 ZM633 1399 q-180 0 -274.5 -166.5 q-94.5 -166.5 -94.5 -478.5 q0 -640 369 -640 q180 0 274.5 166 q94.5 166 94.5 478 q0 641 -369 641 ZM633 645 q-47 0 -79 33 q-32 33 -32 80 q0 46 32 79 q32 33 79 33 q46 0 79.5 -33 q33.5 -33 33.5 -79 q0 -46 -33.5 -79.5 q-33.5 -33.5 -79.5 -33.5 Z" /><glyph glyph-name="uni0299" unicode="&#x299;" d="M166 0 l0 1024 l342 0 q164 0 252 -66.5 q88 -66.5 88 -187.5 q0 -172 -172 -225 l0 -5 q219 -39 219 -241 q0 -137 -101 -218 q-101 -81 -276 -81 l-352 0 ZM330 884 l0 -286 l162 0 q190 0 190 148 q0 138 -184 138 l-168 0 ZM330 459 l0 -319 l186 0 q211 0 211 157 q0 162 -227 162 l-170 0 Z" /><glyph glyph-name="uni029A" unicode="&#x29a;" d="M303 532 l0 4 q-189 61 -189 230 q0 126 108.5 204 q108.5 78 289.5 78 q238 0 376 -141 q138 -141 138 -385 q0 -245 -143.5 -395.5 q-143.5 -150.5 -386.5 -150.5 q-192 0 -298 79 q-106 79 -106 217 q0 206 211 260 ZM620 598 l0 -142 l-86 0 q-274 0 -274 -170 q0 -79 64.5 -125.5 q64.5 -46.5 177.5 -46.5 q166 0 261 105 q95 105 95 297 q0 185 -95.5 289.5 q-95.5 104.5 -258.5 104.5 q-104 0 -164 -42 q-60 -42 -60 -110 q0 -72 68 -116 q68 -44 188 -44 l84 0 Z" /><glyph glyph-name="uni029B" unicode="&#x29b;" d="M1108 1106 q-48 26 -90 26 q-94 0 -94 -118 q0 -66 22 -170 l-6 -6 q-156 72 -299 72 q-168 0 -272.5 -112.5 q-104.5 -112.5 -104.5 -291.5 q0 -184 98.5 -288 q98.5 -104 265.5 -104 q110 0 185 38 l0 260 l-223 0 l0 139 l383 0 l0 -489 q-175 -86 -359 -86 q-236 0 -377 140 q-141 140 -141 380 q0 239 154 395.5 q154 156.5 399 156.5 q81 0 154 -22 q-5 34 -5 37 q0 76 56 131.5 q56 55.5 142 55.5 q60 0 112 -26 l0 -118 Z" /><glyph glyph-name="uni029C" unicode="&#x29c;" d="M994 0 l-164 0 l0 454 l-500 0 l0 -454 l-164 0 l0 1024 l164 0 l0 -430 l500 0 l0 430 l164 0 l0 -1024 Z" /><glyph glyph-name="uni029D" unicode="&#x29d;" d="M250 1284 q-44 0 -75 30 q-31 30 -31 76 q0 46 31 76.5 q31 30.5 75 30.5 q45 0 76.5 -30.5 q31.5 -30.5 31.5 -76.5 q0 -44 -31.5 -75 q-31.5 -31 -76.5 -31 ZM568 -356 q-124 104 -250 156 q-45 -282 -310 -282 q-104 0 -172 60 q-68 60 -68 154 q0 109 90.5 181.5 q90.5 72.5 235.5 72.5 q39 0 72 -4 l0 1042 l164 0 l0 -1086 q122 -44 238 -128 l0 -166 ZM166 -152 q-36 6 -72 6 q-174 0 -174 -112 q0 -90 98 -90 q143 0 148 196 Z" /><glyph glyph-name="uni029E" unicode="&#x29e;" d="M854 -492 l-164 0 l0 961 l-4 0 l-430 -469 l-215 0 l475 494 l-512 530 l230 0 l452 -492 l4 0 l0 492 l164 0 l0 -1516 Z" /><glyph glyph-name="uni029F" unicode="&#x29f;" d="M760 0 l-594 0 l0 1024 l164 0 l0 -884 l430 0 l0 -140 Z" /><glyph glyph-name="uni02A0" unicode="&#x2a0;" d="M1313 1372 q-55 27 -109 27 q-164 0 -164 -207 l0 -1663 l-164 0 l0 645 l-4 0 q-110 -198 -348 -198 q-194 0 -311 137 q-117 137 -117 375 q0 256 127.5 408 q127.5 152 341.5 152 q211 0 307 -166 l4 0 l0 320 q0 153 90 244.5 q90 91.5 228 91.5 q72 0 119 -18 l0 -148 ZM876 459 l0 155 q0 123 -83.5 209.5 q-83.5 86.5 -206.5 86.5 q-152 0 -237 -111 q-85 -111 -85 -307 q0 -179 83.5 -278.5 q83.5 -99.5 215.5 -99.5 q139 0 226 97 q87 97 87 248 Z" /><glyph glyph-name="uni02A1" unicode="&#x2a1;" d="M393 516 l197 0 l0 -139 l-197 0 l0 -377 l-163 0 l0 377 l-174 0 l0 139 l174 0 q0 122 40.5 200.5 q40.5 78.5 145.5 182.5 q106 105 134 160 q28 55 28 117 q0 95 -75.5 159 q-75.5 64 -201.5 64 q-143 0 -273 -76 l0 151 q132 64 288 64 q194 0 311 -100 q117 -100 117 -252 q0 -91 -39.5 -170.5 q-39.5 -79.5 -168.5 -202.5 q-78 -75 -110.5 -137.5 q-32.5 -62.5 -32.5 -159.5 Z" /><glyph glyph-name="uni02A2" unicode="&#x2a2;" d="M719 1321 q-135 78 -283 78 q-122 0 -194 -60 q-72 -60 -72 -149 q0 -56 25 -113 q25 -57 139 -174 q107 -110 145.5 -188.5 q38.5 -78.5 38.5 -198.5 l176 0 l0 -139 l-176 0 l0 -377 l-164 0 l0 377 l-198 0 l0 139 l198 0 q0 84 -32.5 148 q-32.5 64 -116.5 147 q-122 121 -161.5 200.5 q-39.5 79.5 -39.5 174.5 q0 149 120 250.5 q120 101.5 312 101.5 q148 0 283 -62 l0 -155 Z" /><glyph glyph-name="uni02A3" unicode="&#x2a3;" d="M1831 977 l-609 -837 l600 0 l0 -140 l-946 0 l0 180 l-4 0 q-114 -204 -352 -204 q-194 0 -309 139 q-115 139 -115 371 q0 256 129 409 q129 153 343 153 q206 0 304 -168 l4 0 l0 636 l164 0 l0 -492 l791 0 l0 -47 ZM876 471 l0 135 q0 127 -82 215.5 q-82 88.5 -210 88.5 q-152 0 -236 -111.5 q-84 -111.5 -84 -306.5 q0 -172 82 -275 q82 -103 219 -103 q138 0 224.5 101.5 q86.5 101.5 86.5 255.5 ZM1589 884 l-549 0 l0 -753 l549 753 Z" /><glyph glyph-name="uni02A4" unicode="&#x2a4;" d="M1006 -398 l0 162 q164 -104 342 -104 q174 0 285.5 91 q111.5 91 111.5 235 q0 149 -111.5 232 q-111.5 83 -316.5 83 l-82 0 l0 51 l383 532 l-578 0 l0 -884 l-164 0 l0 180 l-4 0 q-114 -204 -352 -204 q-194 0 -309 139 q-115 139 -115 371 q0 256 129 409 q129 153 343 153 q206 0 304 -168 l4 0 l0 636 l164 0 l0 -492 l814 0 l0 -51 l-394 -543 q215 -26 333 -142.5 q118 -116.5 118 -297.5 q0 -204 -161.5 -336.5 q-161.5 -132.5 -407.5 -132.5 q-182 0 -336 81 ZM876 471 l0 135 q0 127 -82 215.5 q-82 88.5 -210 88.5 q-152 0 -236 -111.5 q-84 -111.5 -84 -306.5 q0 -172 82 -275 q82 -103 219 -103 q138 0 224.5 101.5 q86.5 101.5 86.5 255.5 Z" /><glyph glyph-name="uni02A5" unicode="&#x2a5;" d="M1466 0 q-12 -57 -16 -127 l-144 0 q4 59 19 127 l-449 0 l0 180 l-4 0 q-114 -204 -352 -204 q-194 0 -309 139 q-115 139 -115 371 q0 256 129 409 q129 153 343 153 q206 0 304 -168 l4 0 l0 636 l164 0 l0 -492 l791 0 l0 -47 l-609 -837 l146 0 q134 302 383 302 q118 0 189 -60 q71 -60 71 -152 q0 -107 -86 -168.5 q-86 -61.5 -241 -61.5 l-218 0 ZM876 471 l0 135 q0 127 -82 215.5 q-82 88.5 -210 88.5 q-152 0 -236 -111.5 q-84 -111.5 -84 -306.5 q0 -172 82 -275 q82 -103 219 -103 q138 0 224.5 101.5 q86.5 101.5 86.5 255.5 ZM1589 884 l-549 0 l0 -753 l549 753 ZM1512 140 l174 0 q180 0 180 90 q0 84 -117 84 q-157 0 -237 -174 Z" /><glyph glyph-name="uni02A6" unicode="&#x2a6;" d="M219 884 l-176 0 l0 140 l176 0 l0 250 l164 53 l0 -303 l371 0 q70 24 154 24 q124 0 220 -46 l0 -166 q-100 74 -233 74 q-82 0 -130 -39.5 q-48 -39.5 -48 -102.5 q0 -62 35.5 -99.5 q35.5 -37.5 157.5 -88.5 q148 -64 205 -134 q57 -70 57 -168 q0 -132 -120.5 -217 q-120.5 -85 -359.5 -85 q-251 0 -362 102.5 q-111 102.5 -111 317.5 l0 488 ZM584 884 l-201 0 l0 -476 q0 -157 79.5 -225.5 q79.5 -68.5 237.5 -68.5 q304 0 304 160 q0 57 -44.5 94.5 q-44.5 37.5 -165.5 85.5 q-138 56 -191.5 125.5 q-53.5 69.5 -53.5 174.5 q0 72 35 130 Z" /><glyph glyph-name="uni02A7" unicode="&#x2a7;" d="M1086 1372 q-50 27 -111 27 q-170 0 -170 -223 l0 -1305 q0 -163 -92.5 -258 q-92.5 -95 -235.5 -95 q-75 0 -119 19 l0 147 q50 -26 111 -26 q172 0 172 223 l0 129 q-58 -32 -153 -32 q-269 0 -269 300 l0 606 l-176 0 l0 140 l176 0 l0 250 l164 53 l0 -303 l258 0 l0 160 q0 162 92 258 q92 96 233 96 q76 0 120 -18 l0 -148 ZM641 150 l0 734 l-258 0 l0 -577 q0 -103 35 -147 q35 -44 116 -44 q62 0 107 34 Z" /><glyph glyph-name="uni02A8" unicode="&#x2a8;" d="M792 82 q-160 -106 -298 -106 q-275 0 -275 317 l0 591 l-176 0 l0 140 l176 0 l0 250 l164 53 l0 -303 l258 0 l0 -140 l-258 0 l0 -575 q0 -195 147 -195 q74 0 176 66 q-88 132 -88 308 q0 253 145 406.5 q145 153.5 388 153.5 q135 0 237 -50 l0 -168 q-114 80 -243 80 q-158 0 -258.5 -112.5 q-100.5 -112.5 -100.5 -295.5 q0 -129 56 -226 q210 150 344 150 q117 0 190.5 -61 q73.5 -61 73.5 -152 q0 -103 -94.5 -170 q-94.5 -67 -249.5 -67 q-186 0 -314 106 ZM922 174 q84 -66 196 -66 q84 0 135 29 q51 29 51 72 q0 86 -120 86 q-96 0 -262 -121 Z" /><glyph glyph-name="uni02A9" unicode="&#x2a9;" d="M1480 -4 q0 -231 -95 -354.5 q-95 -123.5 -269 -123.5 q-76 0 -129 26 l0 153 q61 -39 129 -39 q201 0 201 318 l0 608 q0 326 -237 326 q-124 0 -205 -92.5 q-81 -92.5 -81 -233.5 l0 -584 l-163 0 l0 884 l-240 0 l0 -884 l-163 0 l0 884 l-175 0 l0 140 l175 0 l0 146 q0 168 95.5 268 q95.5 100 246.5 100 q79 0 130 -22 l0 -148 q-58 31 -122 31 q-187 0 -187 -238 l0 -137 l403 0 l0 -170 l4 0 q116 194 336 194 q168 0 257 -108 q89 -108 89 -314 l0 -630 Z" /><glyph glyph-name="uni02AA" unicode="&#x2aa;" d="M152 1532 l164 0 l0 -1124 q0 -157 79.5 -225.5 q79.5 -68.5 239.5 -68.5 q301 0 301 160 q0 57 -44 94.5 q-44 37.5 -165 85.5 q-140 57 -192.5 125.5 q-52.5 68.5 -52.5 174.5 q0 129 100 211.5 q100 82.5 258 82.5 q124 0 221 -46 l0 -166 q-101 74 -233 74 q-82 0 -130.5 -39.5 q-48.5 -39.5 -48.5 -102.5 q0 -62 35.5 -99.5 q35.5 -37.5 157.5 -88.5 q151 -65 206.5 -134.5 q55.5 -69.5 55.5 -167.5 q0 -134 -120.5 -218 q-120.5 -84 -359.5 -84 q-251 0 -361.5 102 q-110.5 102 -110.5 318 l0 1136 Z" /><glyph glyph-name="uni02AB" unicode="&#x2ab;" d="M1120 977 l-608 -837 l600 0 l0 -140 l-946 0 l0 1516 l164 0 l0 -492 l790 0 l0 -47 ZM878 884 l-548 0 l0 -753 l548 753 Z" /><glyph glyph-name="uni02AC" unicode="&#x2ac;" d="M962 1434 l-182 -648 l-147 0 l-107 400 q-9 33 -14 92 l-4 0 q-3 -36 -18 -90 l-115 -402 l-145 0 l-181 648 l139 0 l107 -422 q9 -36 12 -88 l5 0 q2 33 18 90 l118 420 l140 0 l108 -422 q8 -32 12 -88 l4 0 q1 22 17 88 l103 422 l130 0 ZM962 647 l-182 -647 l-147 0 l-107 400 q-9 33 -14 92 l-4 0 q-3 -36 -18 -90 l-115 -402 l-145 0 l-181 647 l139 0 l107 -421 q9 -36 12 -89 l5 0 q2 33 18 91 l118 419 l140 0 l108 -421 q8 -32 12 -89 l4 0 q1 23 17 89 l103 421 l130 0 Z" /><glyph glyph-name="uni02AD" unicode="&#x2ad;" d="M895 930 l-137 0 l0 372 l-506 0 l0 -372 l-136 0 l0 504 l779 0 l0 -504 ZM895 0 l-137 0 l0 372 l-506 0 l0 -372 l-136 0 l0 504 l779 0 l0 -504 Z" /><glyph glyph-name="uni03D0" unicode="&#x3d0;" d="M670 824 l0 -5 q180 -29 277 -137 q97 -108 97 -274 q0 -195 -123.5 -313.5 q-123.5 -118.5 -328.5 -118.5 q-205 0 -315.5 125.5 q-110.5 125.5 -110.5 359.5 l0 653 q0 190 109 304 q109 114 297 114 q166 0 265 -92.5 q99 -92.5 99 -247.5 q0 -126 -74.5 -228 q-74.5 -102 -191.5 -140 ZM498 742 l0 130 q120 20 196 102.5 q76 82.5 76 197.5 q0 220 -209 220 q-231 0 -231 -294 l0 -633 q0 -346 272 -346 q131 0 202.5 72 q71.5 72 71.5 207 q0 304 -378 344 Z" /><glyph glyph-name="uni03D1" unicode="&#x3d1;" d="M1220 742 q-66 -25 -155 -40 q-11 -346 -148.5 -536 q-137.5 -190 -371.5 -190 q-190 0 -300 110 q-110 110 -110 303 q0 85 22 214 q21 129 21 187 q0 120 -88 120 q-38 0 -70 -17 l0 137 q50 18 99 18 q101 0 162 -69 q61 -69 61 -176 q0 -63 -21 -192 q-22 -129 -22 -209 q0 -132 68.5 -207.5 q68.5 -75.5 185.5 -75.5 q158 0 248.5 148.5 q90.5 148.5 99.5 422.5 q-235 8 -382 148 q-147 140 -147 348 q0 151 86.5 251.5 q86.5 100.5 221.5 100.5 q368 0 387 -694 q77 12 153 43 l0 -145 ZM903 834 q-14 565 -225 565 q-63 0 -102.5 -56.5 q-39.5 -56.5 -39.5 -146.5 q0 -152 99.5 -252.5 q99.5 -100.5 267.5 -109.5 Z" /><glyph glyph-name="uni03D2" unicode="&#x3d2;" d="M1208 1286 q-44 20 -88 20 q-82 0 -178 -190 l-295 -590 l0 -526 l-168 0 l0 526 l-461 908 l191 0 l321 -648 q6 -12 35 -88 l3 0 q8 28 34 88 l199 398 q75 150 145 212 q70 62 164 62 q54 0 98 -20 l0 -152 Z" /><glyph glyph-name="uni03D5" unicode="&#x3d5;" d="M735 -24 l0 -447 l-163 0 l0 447 q-221 17 -348.5 162 q-127.5 145 -127.5 368 q0 231 130 375 q130 144 346 167 l0 468 l163 0 l0 -468 q223 -16 349 -159.5 q126 -143.5 126 -372.5 q0 -227 -129 -373 q-129 -146 -346 -167 ZM735 910 l0 -796 q147 18 227 122 q80 104 80 276 q0 171 -80 275.5 q-80 104.5 -227 122.5 ZM572 114 l0 796 q-145 -18 -226.5 -123 q-81.5 -105 -81.5 -277 q0 -166 81.5 -271.5 q81.5 -105.5 226.5 -124.5 Z" /><glyph glyph-name="uni03D6" unicode="&#x3d6;" d="M1581 884 l-182 0 q131 -220 131 -438 q0 -218 -106.5 -343 q-106.5 -125 -297.5 -125 q-207 0 -307 190 l-4 0 q-103 -190 -309 -190 q-185 0 -289.5 125.5 q-104.5 125.5 -104.5 342.5 q0 213 132 438 q-126 0 -244 -88 l0 156 q106 72 256 72 l1325 0 l0 -140 ZM1229 884 l-815 0 q-136 -230 -136 -444 q0 -150 61.5 -234.5 q61.5 -84.5 170.5 -84.5 q232 0 232 346 l0 252 l161 0 l0 -252 q0 -346 229 -346 q108 0 170 85 q62 85 62 234 q0 214 -135 444 Z" /><glyph glyph-name="uni03D7" unicode="&#x3d7;" d="M1168 -68 q0 -135 -76 -214.5 q-76 -79.5 -201 -79.5 q-63 0 -115 24 l0 146 q52 -31 111 -31 q57 0 92 43.5 q35 43.5 35 115.5 l0 42 q-119 16 -185.5 125.5 q-66.5 109.5 -66.5 285.5 q0 105 20 211 q-6 -6 -247 -225 q-148 -135 -234 -233 q-20 -53 -59 -142 l-172 0 q176 370 176 614 q0 137 -43 216.5 q-43 79.5 -123 79.5 q-42 0 -80 -21 l0 137 q50 22 112 22 q138 0 216 -111 q78 -111 78 -302 q0 -105 -21 -211 q397 357 481 458 q20 53 60 142 l172 0 q-176 -370 -176 -614 q0 -140 43.5 -218 q43.5 -78 122.5 -78 q42 0 80 15 l0 -197 Z" /><glyph glyph-name="uni03D8" unicode="&#x3d8;" d="M803 356 l0 -356 l-168 0 l0 356 q-252 23 -400.5 171.5 q-148.5 148.5 -148.5 371.5 q0 241 177.5 400 q177.5 159 457.5 159 q286 0 458.5 -152.5 q172.5 -152.5 172.5 -393.5 q0 -222 -151 -376 q-151 -154 -398 -180 ZM719 1306 q-210 0 -333.5 -111 q-123.5 -111 -123.5 -290 q0 -177 124 -289 q124 -112 333 -112 q210 0 333.5 111 q123.5 111 123.5 290 q0 177 -123.5 289 q-123.5 112 -333.5 112 Z" /><glyph glyph-name="uni03D9" unicode="&#x3d9;" d="M682 -20 l0 -451 l-164 0 l0 451 q-197 24 -309.5 164 q-112.5 140 -112.5 356 q0 258 141 403 q141 145 381 145 q229 0 357.5 -141 q128.5 -141 128.5 -391 q0 -220 -113 -364 q-113 -144 -309 -172 ZM606 910 q-158 0 -250 -107.5 q-92 -107.5 -92 -296.5 q0 -182 93 -287 q93 -105 249 -105 q159 0 244.5 103 q85.5 103 85.5 293 q0 192 -85.5 296 q-85.5 104 -244.5 104 Z" /><glyph glyph-name="uni03DA" unicode="&#x3da;" d="M1092 -338 l-180 0 q79 84 79 160 q0 58 -68 92.5 q-68 34.5 -231 61.5 q-598 98 -598 714 q0 275 138.5 463.5 q138.5 188.5 389.5 259.5 q296 62 345 89.5 q49 27.5 49 74.5 q0 27 -8 55 l151 0 q13 -36 13 -76 q0 -93 -66 -147 q-66 -54 -268 -101 q-202 -45 -313.5 -100 q-111.5 -55 -183 -186 q-71.5 -131 -71.5 -322 q0 -477 463 -564 q239 -45 332.5 -109 q93.5 -64 93.5 -183 q0 -90 -67 -182 ZM1192 1458 l0 0 Z" /><glyph glyph-name="uni03DB" unicode="&#x3db;" d="M784 958 q-177 -54 -290 -101.5 q-113 -47.5 -171.5 -147.5 q-58.5 -100 -58.5 -248 q0 -253 293 -311 q196 -40 277.5 -102.5 q81.5 -62.5 81.5 -180.5 q0 -95 -80 -183 l-180 0 q98 80 98 164 q0 63 -57.5 95 q-57.5 32 -198.5 57 q-402 72 -402 440 q0 414 338 556 q212 65 273 93 q61 28 61 79 q0 28 -10 54 l152 0 q12 -36 12 -73 q0 -133 -138 -191 ZM932 1048 l0 0 Z" /><glyph glyph-name="uni03DC" unicode="&#x3dc;" d="M880 526 l-140 0 q8 30 8 70 q0 90 -105 90 l-287 0 l0 -686 l-168 0 l0 1434 l748 0 l0 -152 l-580 0 l0 -448 l293 0 q246 0 246 -206 q0 -52 -15 -102 Z" /><glyph glyph-name="uni03DD" unicode="&#x3dd;" d="M852 910 l-238 0 q-307 0 -307 -336 l0 -76 l504 0 l0 -140 l-504 0 l0 -829 l-163 0 l0 1026 q0 234 122 363.5 q122 129.5 350 129.5 l236 0 l0 -138 Z" /><glyph glyph-name="uni03DE" unicode="&#x3de;" d="M1149 805 l-293 -805 l-180 0 l242 654 l-846 0 l284 780 l180 0 l-233 -629 l846 0 Z" /><glyph glyph-name="uni03DF" unicode="&#x3df;" d="M977 598 l-93 -260 q-122 -341 -122 -486 q0 -86 32.5 -140 q32.5 -54 89.5 -54 q43 0 76 20 l0 -137 q-44 -23 -100 -23 q-116 0 -189 89.5 q-73 89.5 -73 224.5 q0 170 129 534 l33 93 l-709 0 l93 260 q122 341 122 485 q0 90 -32.5 142.5 q-32.5 52.5 -89.5 52.5 q-42 0 -76 -21 l0 138 q44 22 100 22 q116 0 189 -89 q73 -89 73 -225 q0 -170 -129 -534 l-33 -92 l709 0 Z" /><glyph glyph-name="uni03E0" unicode="&#x3e0;" d="M1020 0 l-186 0 q151 257 151 590 q0 88 -14 178 l-435 -338 l-84 108 l484 380 q-32 96 -82 174 l-518 -404 l-86 108 l512 402 q-124 108 -301 108 q-255 0 -461 -218 l0 194 q210 176 469 176 q316 0 502 -243 q186 -243 186 -607 q0 -316 -137 -608 Z" /><glyph glyph-name="uni03E1" unicode="&#x3e1;" d="M676 -471 l-188 0 q237 331 237 725 q0 79 -8 144 l-465 -170 l-49 130 l487 178 q-30 124 -92 246 l-486 -178 l-48 129 l464 172 q-250 392 -661 467 l0 166 q450 -88 735 -452.5 q285 -364.5 285 -829.5 q0 -364 -211 -727 Z" /><glyph glyph-name="uni03E2" unicode="&#x3e2;" d="M1638 297 q0 -414 -159.5 -596.5 q-159.5 -182.5 -507.5 -182.5 q-71 0 -193 12 q-122 11 -170 11 q-104 0 -190 -23 l0 150 q86 25 198 25 q56 0 170 -11 q113 -12 193 -12 q247 0 361.5 116 q114.5 116 129.5 368 l-6 0 q-109 -178 -311 -178 q-215 0 -287 212 q-114 -212 -342 -212 q-340 0 -340 452 l0 1006 l168 0 l0 -986 q0 -165 51.5 -243 q51.5 -78 176.5 -78 q103 0 175.5 95.5 q72.5 95.5 72.5 229.5 l0 982 l168 0 l0 -1006 q0 -301 226 -301 q108 0 178 90.5 q70 90.5 70 234.5 l0 982 l168 0 l0 -1137 Z" /><glyph glyph-name="uni03E3" unicode="&#x3e3;" d="M1620 348 q0 -451 -155.5 -640.5 q-155.5 -189.5 -502.5 -189.5 q-70 0 -181 12 q-111 11 -163 11 q-112 0 -186 -25 l0 142 q86 22 194 22 q51 0 159 -11 q107 -11 188 -11 q239 0 355 122.5 q116 122.5 128 381.5 l-4 0 q-109 -186 -318 -186 q-105 0 -183 58.5 q-78 58.5 -107 153.5 q-114 -212 -340 -212 q-338 0 -338 417 l0 631 l164 0 l0 -588 q0 -170 52.5 -246 q52.5 -76 176.5 -76 q105 0 178.5 96 q73.5 96 73.5 230 l0 584 l164 0 l0 -608 q0 -302 233 -302 q108 0 178 90.5 q70 90.5 70 235.5 l0 584 l164 0 l0 -676 Z" /><glyph glyph-name="uni03E4" unicode="&#x3e4;" d="M1071 0 l-168 0 l0 635 q-188 -115 -383 -115 q-213 0 -341 131 q-128 131 -128 347 q0 207 90 333.5 q90 126.5 242 126.5 q64 0 127 -24 l0 -150 q-61 26 -119 26 q-172 0 -172 -306 q0 -152 84.5 -242 q84.5 -90 232.5 -90 q178 0 367 112 l0 650 l168 0 l0 -1434 Z" /><glyph glyph-name="uni03E5" unicode="&#x3e5;" d="M901 -471 l-163 0 l0 627 l-5 0 q-113 -180 -325 -180 q-357 0 -357 536 q0 536 328 536 q58 0 111 -20 l0 -141 q-52 23 -105 23 q-170 0 -170 -390 q0 -212 56.5 -309 q56.5 -97 180.5 -97 q122 0 204 94 q82 94 82 236 l0 580 l163 0 l0 -1495 Z" /><glyph glyph-name="uni03E6" unicode="&#x3e6;" d="M1208 236 q0 -718 -655 -718 q-69 0 -188 12 q-119 11 -175 11 q-104 0 -190 -23 l0 150 q86 25 198 25 q54 0 169 -11 q114 -12 194 -12 q247 0 363 137.5 q116 137.5 116 426.5 l0 200 q0 176 -85 279.5 q-85 103.5 -236 103.5 q-191 0 -363 -113 l0 -704 l-168 0 l0 1434 l168 0 l0 -586 q185 120 390 120 q211 0 336.5 -138 q125.5 -138 125.5 -367 l0 -227 Z" /><glyph glyph-name="uni03E7" unicode="&#x3e7;" d="M140 0 l-160 0 q19 143 85.5 225 q66.5 82 170.5 82 q101 0 212 -100 q98 -88 154 -88 q94 0 164 110 q70 110 70 267 q0 120 -56 219 q-166 -168 -356 -168 q-120 0 -201 65.5 q-81 65.5 -81 169.5 q0 113 92.5 189.5 q92.5 76.5 242.5 76.5 q166 0 305 -108 q29 50 50 108 l155 0 q-39 -111 -105 -208 q118 -152 118 -344 q0 -214 -118 -367 q-118 -153 -284 -153 q-130 0 -242 106 q-86 82 -120 82 q-72 0 -96 -164 ZM696 821 q-98 89 -223 89 q-82 0 -129 -33.5 q-47 -33.5 -47 -86.5 q0 -104 135 -104 q140 0 264 135 Z" /><glyph glyph-name="uni03E8" unicode="&#x3e8;" d="M1198 522 q-23 -254 -187.5 -400 q-164.5 -146 -432.5 -146 q-233 0 -369.5 126.5 q-136.5 126.5 -136.5 313.5 q0 120 52 207.5 q52 87.5 142 133.5 q90 46 424 123 q218 48 218 152 q0 106 -104 190 q-104 84 -224 84 q-156 0 -156 -108 q0 -37 20 -84 l-164 0 q-22 48 -22 98 q0 105 83.5 175.5 q83.5 70.5 230.5 70.5 q191 0 351.5 -128 q160.5 -128 160.5 -298 q0 -70 -29 -124 q-29 -54 -86 -92.5 q-57 -38.5 -108 -50.5 l-397 -97 q-216 -70 -216 -250 q0 -128 90 -209.5 q90 -81.5 250 -81.5 q192 0 313 105.5 q121 105.5 133 289.5 l164 0 Z" /><glyph glyph-name="uni03E9" unicode="&#x3e9;" d="M912 416 q-10 -208 -133 -324 q-123 -116 -333 -116 q-173 0 -278.5 88 q-105.5 88 -105.5 225 q0 86 37 149 q37 63 103.5 98.5 q66.5 35.5 291.5 87.5 q151 35 151 103 q0 65 -81 125 q-81 60 -162 60 q-93 0 -93 -70 q0 -41 33 -90 l-152 0 q-30 49 -30 104 q0 83 62 137.5 q62 54.5 169 54.5 q157 0 287.5 -101 q130.5 -101 130.5 -218 q0 -82 -53.5 -141 q-53.5 -59 -229.5 -94.5 q-176 -35.5 -238 -79.5 q-62 -44 -62 -119 q0 -80 62 -130.5 q62 -50.5 166 -50.5 q140 0 224 79.5 q84 79.5 88 222.5 l146 0 Z" /><glyph glyph-name="uni03EA" unicode="&#x3ea;" d="M1200 0 l-1180 0 l0 49 l500 961 l-55 106 q-59 114 -94 152 q-35 38 -80 38 q-44 0 -88 -20 l0 152 q43 20 98 20 q90 0 159 -59 q69 -59 150 -215 q82 158 151.5 216 q69.5 58 158.5 58 q54 0 98 -20 l0 -152 q-44 20 -88 20 q-44 0 -81 -36.5 q-37 -36.5 -97 -153.5 l-54 -102 l502 -965 l0 -49 ZM962 152 l-354 692 l-354 -692 l708 0 Z" /><glyph glyph-name="uni03EB" unicode="&#x3eb;" d="M973 0 l-953 0 l0 35 l392 698 l-37 68 q-59 109 -123 109 q-33 0 -66 -15 l0 139 q32 14 76 14 q80 0 131 -36 q51 -36 103 -130 q53 95 104.5 130.5 q51.5 35.5 130.5 35.5 q43 0 76 -14 l0 -139 q-33 15 -65 15 q-70 0 -130 -109 l-34 -63 l395 -703 l0 -35 ZM746 140 l-252 454 l-252 -454 l504 0 Z" /><glyph glyph-name="uni03EC" unicode="&#x3ec;" d="M1218 1540 l0 -150 q-80 -24 -184 -24 q-51 0 -157 10 q-107 10 -181 10 q-194 0 -293.5 -115.5 q-99.5 -115.5 -120.5 -388.5 l9 0 q163 200 426 200 q246 0 395.5 -153 q149.5 -153 149.5 -393 q0 -242 -163.5 -401 q-163.5 -159 -418.5 -159 q-282 0 -434 172 q-152 172 -152 497 q0 474 145.5 683.5 q145.5 209.5 462.5 209.5 q68 0 178 -10 q109 -10 162 -10 q96 0 176 22 ZM688 930 q-180 0 -293 -108 q-113 -108 -113 -273 q0 -190 107.5 -306 q107.5 -116 292.5 -116 q183 0 293.5 112 q110.5 112 110.5 289 q0 178 -107.5 290 q-107.5 112 -290.5 112 Z" /><glyph glyph-name="uni03ED" unicode="&#x3ed;" d="M987 1542 l0 -139 q-56 -17 -135 -17 q-24 0 -81 4 q-58 4 -105 4 q-172 0 -271 -130 q-99 -130 -125 -390 l4 0 q129 174 354 174 q220 0 348 -142 q128 -142 128 -390 q0 -244 -140 -392 q-140 -148 -374 -148 q-237 0 -365.5 171.5 q-128.5 171.5 -128.5 491.5 q0 449 144.5 674 q144.5 225 433.5 225 q32 0 101 -4 q69 -4 99 -4 q68 0 113 12 ZM268 710 q-4 -65 -4 -118 q0 -216 88.5 -347 q88.5 -131 247.5 -131 q160 0 248 103.5 q88 103.5 88 292.5 q0 195 -89.5 297.5 q-89.5 102.5 -252.5 102.5 q-99 0 -188.5 -56.5 q-89.5 -56.5 -137.5 -143.5 Z" /><glyph glyph-name="uni03EE" unicode="&#x3ee;" d="M1147 1024 l-461 0 l0 -1024 l-168 0 l0 1024 l-256 0 q-104 0 -104 -90 q0 -40 8 -70 l-142 0 q-14 50 -14 102 q0 210 256 210 l252 0 l0 258 l168 0 l0 -258 l461 0 l0 -152 Z" /><glyph glyph-name="uni03EF" unicode="&#x3ef;" d="M846 884 l-320 0 l0 -810 q0 -368 -352 -436 l0 159 q104 22 146 85 q42 63 42 190 l0 812 l-122 0 q-96 0 -96 -83 q0 -33 6 -63 l-140 0 q-10 48 -10 94 q0 192 240 192 l122 0 l0 250 l164 53 l0 -303 l320 0 l0 -140 Z" /><glyph glyph-name="uni03F0" unicode="&#x3f0;" d="M1168 -2 q-51 -22 -114 -22 q-136 0 -214 111 q-78 111 -78 302 q0 105 20 211 q-6 -6 -247 -225 q-148 -135 -234 -233 q-20 -53 -59 -142 l-172 0 q176 370 176 614 q0 137 -43 216.5 q-43 79.5 -123 79.5 q-42 0 -80 -21 l0 137 q50 22 112 22 q138 0 216 -111 q78 -111 78 -302 q0 -105 -21 -211 q397 357 481 458 q20 53 60 142 l172 0 q-176 -370 -176 -614 q0 -140 43.5 -218 q43.5 -78 122.5 -78 q42 0 80 21 l0 -137 Z" /><glyph glyph-name="uni03F1" unicode="&#x3f1;" d="M328 98 l-4 0 q9 -146 68 -242 q59 -96 163.5 -139 q104.5 -43 303.5 -47 q120 -2 187 -10 l0 -142 q-64 8 -191 10 q-242 4 -379 55 q-137 51 -225.5 197 q-88.5 146 -88.5 486 l0 260 q0 244 122 383 q122 139 347 139 q217 0 345 -145 q128 -145 128 -375 q0 -260 -124 -406 q-124 -146 -345 -146 q-193 0 -307 122 ZM324 258 q38 -61 120.5 -102.5 q82.5 -41.5 171.5 -41.5 q318 0 318 406 q0 176 -83.5 283 q-83.5 107 -226.5 107 q-144 0 -222 -103.5 q-78 -103.5 -78 -282.5 l0 -266 Z" /><glyph glyph-name="uni03F5" unicode="&#x3f5;" d="M860 0 l-227 0 q-249 0 -393 132.5 q-144 132.5 -144 359.5 q0 243 150.5 387.5 q150.5 144.5 405.5 144.5 l198 0 l0 -140 l-201 0 q-330 0 -381 -288 l543 0 l0 -140 l-549 0 q27 -316 387 -316 l211 0 l0 -140 Z" /><glyph glyph-name="uni03F6" unicode="&#x3f6;" d="M96 0 l0 140 l211 0 q349 0 385 316 l-546 0 l0 140 l546 0 q-42 288 -385 288 l-201 0 l0 140 l218 0 q248 0 392 -132.5 q144 -132.5 144 -359.5 q0 -244 -150 -388 q-150 -144 -405 -144 l-209 0 Z" /><glyph glyph-name="uni0460" unicode="&#x460;" d="M1157 58 q-185 -82 -397 -82 q-301 0 -483.5 199 q-182.5 199 -182.5 531 q0 332 179 542 q179 210 485 210 q158 0 268 -43 l0 -178 q-106 69 -270 69 q-223 0 -354.5 -163 q-131.5 -163 -131.5 -433 q0 -277 135 -430 q135 -153 375 -153 q168 0 291 67 l0 402 l-313 0 l0 152 l796 0 l0 -152 l-315 0 l0 -402 q123 -67 293 -67 q240 0 375 152.5 q135 152.5 135 430.5 q0 269 -131 432.5 q-131 163.5 -355 163.5 q-164 0 -270 -69 l0 178 q110 43 268 43 q305 0 484.5 -209 q179.5 -209 179.5 -541 q0 -332 -182.5 -532 q-182.5 -200 -483.5 -200 q-210 0 -395 82 Z" /><glyph glyph-name="uni0461" unicode="&#x461;" d="M1374 1024 l-342 -1024 l-166 0 l-184 426 l-182 -426 l-148 0 q-181 411 -238 598 q-57 187 -84 426 l168 0 q26 -207 70 -360 q44 -153 168 -459 l170 391 q-71 203 -98 428 l172 0 q32 -226 91.5 -395.5 q59.5 -169.5 176.5 -423.5 l264 819 l162 0 Z" /><glyph glyph-name="uni0462" unicode="&#x462;" d="M332 0 l0 1140 l-291 0 l0 154 l291 0 l0 140 l168 0 l0 -140 l346 0 l0 -154 l-346 0 l0 -314 l272 0 q212 0 331 -102.5 q119 -102.5 119 -295.5 q0 -198 -124 -313 q-124 -115 -340 -115 l-426 0 ZM500 674 l0 -522 l235 0 q150 0 230.5 70.5 q80.5 70.5 80.5 195.5 q0 256 -311 256 l-235 0 Z" /><glyph glyph-name="uni0463" unicode="&#x463;" d="M320 0 l0 1202 l-279 0 l0 134 l279 0 l0 180 l164 0 l0 -180 l312 0 l0 -134 l-312 0 l0 -571 l274 0 q157 0 250.5 -81.5 q93.5 -81.5 93.5 -229.5 q0 -147 -93.5 -233.5 q-93.5 -86.5 -234.5 -86.5 l-454 0 ZM484 490 l0 -350 l245 0 q205 0 205 180 q0 170 -207 170 l-243 0 Z" /><glyph glyph-name="uni0464" unicode="&#x464;" d="M1753 60 q-159 -84 -393 -84 q-290 0 -471.5 180.5 q-181.5 180.5 -196.5 482.5 l-336 0 l0 -639 l-168 0 l0 1434 l168 0 l0 -644 l338 0 q29 308 220 488 q191 180 474 180 q214 0 365 -59 l0 -179 q-163 86 -367 86 q-215 0 -353.5 -137.5 q-138.5 -137.5 -162.5 -378.5 l633 0 l0 -151 l-635 0 q16 -239 152.5 -376.5 q136.5 -137.5 351.5 -137.5 q224 0 381 96 l0 -161 Z" /><glyph glyph-name="uni0465" unicode="&#x465;" d="M1382 45 q-114 -69 -274 -69 q-214 0 -345.5 125.5 q-131.5 125.5 -146.5 344.5 l-286 0 l0 -446 l-164 0 l0 1024 l164 0 l0 -438 l288 0 q24 219 159 340.5 q135 121.5 355 121.5 q137 0 240 -50 l0 -162 q-100 74 -246 74 q-147 0 -238 -88 q-91 -88 -104 -236 l436 0 l0 -140 l-438 0 q8 -151 97 -241.5 q89 -90.5 237 -90.5 q146 0 266 91 l0 -160 Z" /><glyph glyph-name="uni0466" unicode="&#x466;" d="M1340 0 l-187 0 l-252 654 l-143 -183 l0 -471 l-168 0 l0 467 l-131 182 l-256 -649 l-181 0 l574 1434 l182 0 l562 -1434 ZM840 811 l-125 325 q-18 47 -29 128 l-4 0 q-10 -71 -33 -130 l-125 -317 l156 -215 l160 209 Z" /><glyph glyph-name="uni0467" unicode="&#x467;" d="M1010 0 l-176 0 l-152 396 l-96 -118 l0 -278 l-150 0 l0 278 l-100 120 l-156 -398 l-168 0 l428 1024 l162 0 l408 -1024 ZM626 538 l-77 210 q-27 74 -35 143 l-4 0 q-11 -85 -33 -139 l-81 -205 l122 -141 l108 132 Z" /><glyph glyph-name="uni0468" unicode="&#x468;" d="M1766 0 l-187 0 l-252 654 l-143 -183 l0 -471 l-168 0 l0 467 l-132 182 l-256 -649 l-180 0 l269 670 l-361 0 l0 -670 l-168 0 l0 1434 l168 0 l0 -613 l420 0 l246 613 l182 0 l562 -1434 ZM1266 811 l-126 325 q-16 42 -28 128 l-4 0 q-10 -71 -33 -130 l-125 -317 l156 -215 l160 209 Z" /><glyph glyph-name="uni0469" unicode="&#x469;" d="M1403 0 l-176 0 l-152 396 l-96 -118 l0 -278 l-149 0 l0 278 l-101 120 l-155 -398 l-168 0 l194 469 l-270 0 l0 -469 l-164 0 l0 1024 l164 0 l0 -424 l326 0 l178 424 l162 0 l407 -1024 ZM1020 538 l-78 210 q-27 73 -34 143 l-5 0 q-11 -85 -33 -139 l-82 -205 l124 -141 l108 132 Z" /><glyph glyph-name="uni046A" unicode="&#x46a;" d="M1450 0 l-192 0 q-50 522 -424 624 l0 -624 l-168 0 l0 626 q-203 -57 -304.5 -207.5 q-101.5 -150.5 -127.5 -418.5 l-193 0 q51 336 177.5 515.5 q126.5 179.5 359.5 248.5 l-414 670 l1184 0 l-430 -672 q234 -72 357.5 -251 q123.5 -179 174.5 -511 ZM1063 1282 l-609 0 l263 -430 q13 -34 35 -88 l2 0 q16 53 38 88 l271 430 Z" /><glyph glyph-name="uni046B" unicode="&#x46b;" d="M1126 0 l-174 0 q-33 356 -292 434 l0 -434 l-156 0 l0 436 q-264 -75 -299 -436 l-175 0 q41 246 133.5 374.5 q92.5 128.5 266.5 180.5 l-318 469 l949 0 l-328 -471 q171 -54 262.5 -182 q91.5 -128 130.5 -371 ZM790 889 l-401 0 l181 -291 q4 -6 14 -30 q4 10 16 30 l190 291 Z" /><glyph glyph-name="uni046C" unicode="&#x46c;" d="M1864 0 l-193 0 q-47 521 -424 624 l0 -624 l-167 0 l0 626 q-203 -57 -304.5 -207.5 q-101.5 -150.5 -128.5 -418.5 l-193 0 q84 526 392 672 l-490 0 l0 -672 l-168 0 l0 1434 l168 0 l0 -606 l596 0 l-374 606 l1184 0 l-431 -672 q234 -72 358 -250 q124 -178 175 -512 ZM1476 1282 l-608 0 l262 -430 l36 -88 l2 0 q16 53 38 88 l270 430 Z" /><glyph glyph-name="uni046D" unicode="&#x46d;" d="M1503 0 l-174 0 q-35 358 -293 434 l0 -434 l-156 0 l0 436 q-265 -77 -298 -436 l-174 0 q62 370 288 473 l-366 0 l0 -473 l-164 0 l0 1024 l164 0 l0 -424 l444 0 l-284 424 l948 0 l-328 -471 q171 -54 262 -181.5 q91 -127.5 131 -371.5 ZM1168 889 l-402 0 l180 -291 q7 -11 14 -30 l17 30 l191 291 Z" /><glyph glyph-name="uni046E" unicode="&#x46e;" d="M979 -410 l-183 0 q0 76 -77 76 q-44 0 -155 -38 q-112 -38 -181 -38 q-334 0 -334 291 q0 128 83 200.5 q83 72.5 243 72.5 q23 0 98 -6 q75 -6 99 -6 q114 0 178.5 68.5 q64.5 68.5 64.5 185.5 q0 276 -373 276 l-149 0 l0 139 l137 0 q159 0 246.5 69 q87.5 69 87.5 195 q0 108 -72.5 173 q-72.5 65 -199.5 65 q-180 0 -350 -113 l0 170 q130 72 292 85 l-185 284 l115 0 l164 -229 l164 229 l119 0 l-189 -291 q88 10 205 -87 q117 -97 117 -255 q0 -279 -272 -352 l0 -4 q148 -17 235 -111 q87 -94 87 -233 q0 -180 -109.5 -293 q-109.5 -113 -298.5 -113 q-24 0 -112 6 q-88 6 -112 6 q-147 0 -147 -137 q0 -63 43 -103 q43 -40 119 -40 q43 0 166 37 q123 37 197 37 q239 0 239 -216 Z" /><glyph glyph-name="uni046F" unicode="&#x46f;" d="M798 -410 l-149 0 q0 80 -61 80 q-46 0 -131 -40 q-85 -40 -141 -40 q-130 0 -206.5 76.5 q-76.5 76.5 -76.5 206.5 q0 113 77.5 190 q77.5 77 207.5 77 q19 0 78 -7 q58 -8 77 -8 q191 0 191 161 q0 170 -298 170 l-100 0 l0 138 l96 0 q260 0 260 164 q0 69 -59.5 110.5 q-59.5 41.5 -162.5 41.5 q-150 0 -300 -76 l0 153 q129 46 242 57 l-182 279 l115 0 l164 -229 l164 239 l119 0 l-185 -295 q249 -41 249 -264 q0 -91 -56.5 -155 q-56.5 -64 -153.5 -85 l0 -4 q112 -9 182 -76.5 q70 -67.5 70 -173.5 q0 -137 -88 -212.5 q-88 -75.5 -252 -75.5 q-20 0 -89 7 q-69 7 -87 7 q-134 0 -134 -133 q0 -66 37.5 -106.5 q37.5 -40.5 102.5 -40.5 q44 0 129 37 q85 37 153 37 q198 0 198 -210 Z" /><glyph glyph-name="uni0470" unicode="&#x470;" d="M1472 903 q0 -223 -143.5 -368.5 q-143.5 -145.5 -384.5 -145.5 l-57 0 l0 -389 l-156 0 l0 389 l-84 0 q-295 0 -379 351 l-166 694 l164 0 l160 -674 q29 -121 82.5 -171.5 q53.5 -50.5 163.5 -50.5 l59 0 l0 896 l156 0 l0 -896 l57 0 q360 0 360 365 l0 531 l168 0 l0 -531 Z" /><glyph glyph-name="uni0471" unicode="&#x471;" d="M1403 557 q0 -268 -142 -423.5 q-142 -155.5 -374 -155.5 l-25 0 l0 -460 l-147 0 l0 460 l-21 0 q-172 0 -278 101 q-106 101 -166 347 l-148 598 l166 0 l148 -598 q42 -169 106.5 -237 q64.5 -68 175.5 -68 l17 0 l0 1210 l147 0 l0 -1210 l25 0 q150 0 251 119.5 q101 119.5 101 314.5 l0 469 l164 0 l0 -467 Z" /><glyph glyph-name="uni0472" unicode="&#x472;" d="M766 -24 q-305 0 -488.5 201 q-183.5 201 -183.5 523 q0 346 187 552 q187 206 509 206 q297 0 478.5 -200 q181.5 -200 181.5 -523 q0 -351 -186 -555 q-186 -204 -498 -204 ZM1268 826 q-26 231 -154.5 355.5 q-128.5 124.5 -335.5 124.5 q-214 0 -353 -148 q-139 -148 -153 -392 q252 82 322 82 q60 0 196 -58 q136 -59 172 -59 q61 0 306 95 ZM1274 674 q-240 -90 -322 -90 q-58 0 -190 58 q-132 58 -178 58 q-42 0 -308 -86 q26 -224 158.5 -355.5 q132.5 -131.5 331.5 -131.5 q228 0 363 144.5 q135 144.5 145 402.5 Z" /><glyph glyph-name="uni0473" unicode="&#x473;" d="M594 -24 q-227 0 -362.5 143.5 q-135.5 143.5 -135.5 380.5 q0 258 141 403 q141 145 381 145 q229 0 357.5 -141 q128.5 -141 128.5 -391 q0 -245 -138.5 -392.5 q-138.5 -147.5 -371.5 -147.5 ZM932 588 q-34 322 -326 322 q-139 0 -229.5 -85 q-90.5 -85 -108.5 -239 q142 49 195 49 q48 0 156 -52 q107 -53 137 -53 q34 0 176 58 ZM932 440 q-132 -51 -184 -51 q-48 0 -152 53 q-104 52 -142 52 q-30 0 -186 -56 q18 -154 108 -239 q90 -85 230 -85 q294 0 326 326 Z" /><glyph glyph-name="uni0474" unicode="&#x474;" d="M1464 1216 l-154 0 q-12 99 -83 99 q-65 0 -107 -125 l-393 -1190 l-189 0 l-520 1434 l187 0 l397 -1137 q19 -55 29 -127 l4 0 q7 50 33 129 l315 967 q63 192 250 192 q209 0 231 -242 Z" /><glyph glyph-name="uni0475" unicode="&#x475;" d="M1178 828 l-150 0 q-8 84 -74 84 q-55 0 -104 -136 l-280 -776 l-168 0 l-388 1024 l180 0 l260 -744 q29 -82 36 -143 l4 0 q8 69 32 139 l191 562 q71 210 241 210 q198 0 220 -220 Z" /><glyph glyph-name="uni0478" unicode="&#x478;" d="M766 -66 l0 82 q-304 0 -488 201.5 q-184 201.5 -184 524.5 q0 338 191.5 547.5 q191.5 209.5 498.5 209.5 l0 -82 q311 0 488.5 -197 q177.5 -197 177.5 -526 q0 -350 -185 -555 q-185 -205 -499 -205 ZM784 1266 l0 82 q-231 0 -372.5 -166.5 q-141.5 -166.5 -141.5 -425.5 q0 -265 137 -426.5 q137 -161.5 359 -161.5 l0 -82 q236 0 372 154 q136 154 136 432 q0 282 -129 438 q-129 156 -361 156 ZM2681 828 l-149 0 q-10 84 -74 84 q-60 0 -105 -136 l-395 -1186 l-172 0 l143 386 l-391 1048 l180 0 l260 -744 q28 -81 35 -143 l5 0 q6 54 32 139 l170 562 q64 210 242 210 q198 0 219 -220 ZM2687 1458 l0 0 Z" /><glyph glyph-name="uni0479" unicode="&#x479;" d="M590 -56 l0 62 q-231 0 -366.5 144 q-135.5 144 -135.5 380 q0 250 141 400 q141 150 375 150 l0 -62 q235 0 363.5 -141 q128.5 -141 128.5 -391 q0 -246 -138.5 -394 q-138.5 -148 -367.5 -148 ZM604 878 l0 62 q-162 0 -255 -105.5 q-93 -105.5 -93 -298.5 q0 -184 89.5 -287 q89.5 -103 244.5 -103 l0 -62 q161 0 249.5 104 q88.5 104 88.5 291 q0 399 -324 399 ZM2284 828 l-150 0 q-8 84 -74 84 q-59 0 -104 -136 l-396 -1186 l-172 0 l144 386 l-392 1048 l181 0 l260 -744 q28 -81 35 -143 l4 0 q7 54 32 139 l170 562 q64 210 242 210 q198 0 220 -220 Z" /><glyph glyph-name="uni047A" unicode="&#x47a;" d="M944 -20 q-38 -56 -104 -56 q-66 0 -105 56 q-304 27 -472.5 218 q-168.5 191 -168.5 502 q0 326 169.5 523.5 q169.5 197.5 482.5 228.5 q37 64 110 64 q72 0 108 -62 q300 -27 467 -218 q167 -191 167 -501 q0 -333 -169.5 -530 q-169.5 -197 -484.5 -225 ZM956 1300 q-38 -48 -100 -48 q-62 0 -100 48 q-229 -24 -357.5 -179.5 q-128.5 -155.5 -128.5 -405.5 q0 -249 122.5 -401.5 q122.5 -152.5 342.5 -180.5 q39 55 105 55 q66 0 104 -55 q229 27 353.5 176 q124.5 149 124.5 403 q0 534 -466 588 Z" /><glyph glyph-name="uni047B" unicode="&#x47b;" d="M778 -16 q-38 -64 -110 -64 q-70 0 -109 62 q-227 25 -345 160.5 q-118 135.5 -118 357.5 q0 488 476 542 q38 60 108 60 q70 0 108 -60 q447 -50 447 -526 q0 -222 -120 -361.5 q-120 -139.5 -337 -170.5 ZM786 899 q-38 -55 -106 -55 q-70 0 -108 59 q-308 -47 -308 -397 q0 -334 297 -383 q39 55 107 55 q68 0 106 -55 q293 47 293 387 q0 334 -281 389 Z" /><glyph glyph-name="uni047C" unicode="&#x47c;" d="M1157 62 q-194 -86 -397 -86 q-301 0 -483.5 199 q-182.5 199 -182.5 531 q0 332 179 542 q179 210 485 210 q158 0 268 -43 l0 -178 q-106 69 -270 69 q-223 0 -354.5 -163 q-131.5 -163 -131.5 -433 q0 -277 135 -430 q135 -153 375 -153 q221 0 375 96 q154 -96 377 -96 q240 0 375 152.5 q135 152.5 135 430.5 q0 269 -131 432.5 q-131 163.5 -355 163.5 q-164 0 -270 -69 l0 178 q110 43 268 43 q305 0 484.5 -209 q179.5 -209 179.5 -541 q0 -332 -182.5 -532 q-182.5 -200 -483.5 -200 q-200 0 -395 86 ZM1553 1931 l0 -127 l-41 0 q-74 0 -140.5 19 q-66.5 19 -126.5 42 q-60 23 -113.5 42 q-53.5 19 -101.5 19 q-22 0 -39 -9.5 q-17 -9.5 -29 -26 q-12 -16.5 -18 -39 q-6 -22.5 -6 -47.5 l-128 0 q0 47 12 92 q12 45 37.5 80 q25.5 35 67 56 q41.5 21 99.5 21 q64 0 123 -19 q59 -19 118.5 -42 q59.5 -23 120 -42 q60.5 -19 127.5 -19 l38 0 ZM1092 1503 l-22 53 q86 22 92 80 q-96 0 -96 80 q0 82 90 82 q48 0 79 -32.5 q31 -32.5 31 -80.5 q0 -145 -174 -182 Z" /><glyph glyph-name="uni047D" unicode="&#x47d;" d="M918 66 q-150 -90 -322 -90 q-232 0 -366 146.5 q-134 146.5 -134 383.5 q0 240 132 391 q132 151 354 151 q132 0 231 -48 l0 -170 q-105 73 -235 73 q-147 0 -230.5 -105 q-83.5 -105 -83.5 -290 q0 -179 93.5 -285.5 q93.5 -106.5 266.5 -106.5 q162 0 292 99 q129 -99 290 -99 q173 0 266.5 105 q93.5 105 93.5 287 q0 185 -83 290 q-83 105 -229 105 q-131 0 -236 -73 l0 170 q99 48 232 48 q222 0 353 -151.5 q131 -151.5 131 -390.5 q0 -236 -133.5 -383 q-133.5 -147 -365.5 -147 q-169 0 -317 90 ZM1307 1571 l0 -127 l-41 0 q-74 0 -140.5 19 q-66.5 19 -126.5 42 q-60 23 -113.5 42 q-53.5 19 -101.5 19 q-22 0 -39 -9.5 q-17 -9.5 -29 -26 q-12 -16.5 -18 -39 q-6 -22.5 -6 -47.5 l-128 0 q0 47 12 92 q12 45 37.5 80 q25.5 35 67 56 q41.5 21 99.5 21 q64 0 123 -19 q59 -19 118.5 -42 q59.5 -23 120 -42 q60.5 -19 127.5 -19 l38 0 ZM846 1143 l-22 53 q86 22 92 80 q-96 0 -96 80 q0 82 90 82 q48 0 79 -32.5 q31 -32.5 31 -80.5 q0 -145 -174 -182 Z" /><glyph glyph-name="uni0480" unicode="&#x480;" d="M1164 1220 q-154 86 -340 86 q-247 0 -400.5 -165 q-153.5 -165 -153.5 -441 q0 -262 143.5 -417.5 q143.5 -155.5 376.5 -155.5 q32 0 78 4 l0 -541 l-168 0 l0 386 q-280 22 -443 216.5 q-163 194.5 -163 497.5 q0 344 207 556 q207 212 525 212 q204 0 338 -59 l0 -179 Z" /><glyph glyph-name="uni0481" unicode="&#x481;" d="M866 830 q-114 80 -244 80 q-157 0 -257.5 -112.5 q-100.5 -112.5 -100.5 -295.5 q0 -180 94.5 -284 q94.5 -104 253.5 -104 q30 0 70 9 l0 -533 l-162 0 l0 392 q-192 21 -308 160.5 q-116 139.5 -116 345.5 q0 253 145 406.5 q145 153.5 387 153.5 q135 0 238 -50 l0 -168 Z" /><glyph glyph-name="uni0482" unicode="&#x482;" d="M981 874 l-55 -122 l-283 126 l-153 -356 l278 -124 l-56 -124 l-276 124 l-172 -398 l-145 0 l195 452 l-269 120 l55 124 l266 -118 l154 354 l-262 116 l56 126 l260 -117 l161 377 l147 0 l-186 -432 l285 -128 Z" /><glyph glyph-name="uni0483" unicode="&#x483;" d="M266 1298 q-10 -80 -92 -80 q-38 0 -65 27 q-27 27 -27 65 q0 39 27 66 q27 27 65 27 l371 0 q11 80 90 80 q38 0 65 -27 q27 -27 27 -66 q0 -38 -27 -65 q-27 -27 -65 -27 l-369 0 Z" /><glyph glyph-name="uni0484" unicode="&#x484;" d="M778 1218 l-122 0 q-50 136 -150 136 q-50 0 -147 -68 q-97 -68 -163 -68 l-102 0 l0 154 l80 0 q61 0 167 49 q105 49 181 49 q151 0 256 -252 Z" /><glyph glyph-name="uni0488" unicode="&#x488;" d="M1186 1188 l-80 0 q-8 106 -112 106 q-100 0 -114 -106 l-79 0 q7 83 61.5 132.5 q54.5 49.5 133.5 49.5 q82 0 134 -49.5 q52 -49.5 56 -132.5 ZM1837 934 l-80 0 q-8 106 -111 106 q-98 0 -112 -106 l-82 0 q8 82 61.5 132 q53.5 50 132.5 50 q82 0 135 -49.5 q53 -49.5 56 -132.5 ZM551 934 l-80 0 q-8 106 -111 106 q-99 0 -112 -106 l-82 0 q8 82 61.5 132 q53.5 50 132.5 50 q82 0 135 -49.5 q53 -49.5 56 -132.5 ZM1980 444 l-80 0 q-8 107 -110 107 q-100 0 -112 -107 l-82 0 q7 82 60.5 132 q53.5 50 133.5 50 q82 0 134.5 -49 q52.5 -49 55.5 -133 ZM418 444 l-80 0 q-8 107 -112 107 q-100 0 -114 -107 l-79 0 q7 83 61.5 132.5 q54.5 49.5 133.5 49.5 q82 0 134 -49 q52 -49 56 -133 ZM1837 -47 l-80 0 q-8 107 -111 107 q-98 0 -112 -107 l-82 0 q8 82 61.5 132 q53.5 50 132.5 50 q82 0 135 -49.5 q53 -49.5 56 -132.5 ZM551 -47 l-80 0 q-8 107 -111 107 q-99 0 -112 -107 l-82 0 q8 82 61.5 132 q53.5 50 132.5 50 q82 0 135 -49.5 q53 -49.5 56 -132.5 ZM1186 -305 l-80 0 q-8 107 -112 107 q-100 0 -114 -107 l-79 0 q7 83 61.5 132.5 q54.5 49.5 133.5 49.5 q82 0 134 -49.5 q52 -49.5 56 -132.5 Z" /><glyph glyph-name="uni0489" unicode="&#x489;" d="M1100 1434 l-92 -352 l-124 0 l118 352 l98 0 ZM596 938 l-88 -88 l-166 334 l70 68 l184 -314 ZM1714 1075 l-313 -184 l-88 88 l333 166 l68 -70 ZM406 422 l-353 116 l0 99 l353 -92 l0 -123 ZM1896 387 l-352 92 l0 123 l352 -116 l0 -99 ZM1608 -160 l-70 -68 l-184 314 l88 88 l166 -334 ZM637 45 l-334 -166 l-67 70 l313 184 l88 -88 ZM1065 -58 l-117 -352 l-98 0 l92 352 l123 0 Z" /><glyph glyph-name="uni048C" unicode="&#x48c;" d="M188 0 l0 1140 l-147 0 l0 154 l147 0 l0 140 l168 0 l0 -140 l162 0 l0 -154 l-162 0 l0 -314 l272 0 q214 0 333 -103.5 q119 -103.5 119 -294.5 q0 -198 -125 -313 q-125 -115 -341 -115 l-426 0 ZM356 674 l0 -522 l236 0 q149 0 230 70 q81 70 81 196 q0 256 -311 256 l-236 0 Z" /><glyph glyph-name="uni048D" unicode="&#x48d;" d="M166 0 l0 1233 l-121 0 l0 133 l121 0 l0 150 l164 0 l0 -150 l129 0 l0 -133 l-129 0 l0 -602 l276 0 q157 0 249.5 -82 q92.5 -82 92.5 -229 q0 -148 -93 -234 q-93 -86 -235 -86 l-454 0 ZM330 490 l0 -350 l246 0 q204 0 204 180 q0 170 -206 170 l-244 0 Z" /><glyph glyph-name="uni048E" unicode="&#x48e;" d="M897 649 l117 -176 l-115 -77 l-125 186 q-103 -40 -229 -40 l-189 0 l0 -542 l-168 0 l0 1434 l394 0 q230 0 356.5 -112 q126.5 -112 126.5 -316 q0 -227 -168 -357 ZM356 1282 l0 -588 l176 0 q82 0 152 21 l-102 151 l114 78 l111 -164 q82 78 82 218 q0 284 -336 284 l-197 0 Z" /><glyph glyph-name="uni048F" unicode="&#x48f;" d="M942 86 l112 -168 l-114 -78 l-114 170 q-82 -34 -185 -34 q-215 0 -307 172 l-4 0 l0 -625 l-164 0 l0 1501 l164 0 l0 -180 l4 0 q116 204 354 204 q192 0 306 -135 q114 -135 114 -362 q0 -311 -166 -465 ZM742 135 l-120 177 l116 77 l114 -170 q90 113 90 321 q0 169 -81 269.5 q-81 100.5 -214 100.5 q-141 0 -229 -100.5 q-88 -100.5 -88 -252.5 l0 -143 q0 -127 83 -213.5 q83 -86.5 211 -86.5 q66 0 118 21 Z" /><glyph glyph-name="uni0494" unicode="&#x494;" d="M190 -334 l0 184 q164 -108 318 -108 q189 0 290 111.5 q101 111.5 101 314.5 q0 213 -127 359.5 q-127 146.5 -346 146.5 l-70 0 l0 -674 l-168 0 l0 1434 l720 0 l0 -154 l-552 0 l0 -454 l74 0 q295 0 470 -180.5 q175 -180.5 175 -471.5 q0 -253 -147.5 -418.5 q-147.5 -165.5 -415.5 -165.5 q-174 0 -322 76 Z" /><glyph glyph-name="uni0495" unicode="&#x495;" d="M166 -352 l0 160 q117 -78 256 -78 q167 0 257.5 93.5 q90.5 93.5 90.5 262.5 q0 185 -109 292.5 q-109 107.5 -299 107.5 l-32 0 l0 -486 l-164 0 l0 1024 l630 0 l0 -140 l-466 0 l0 -256 l66 0 q247 0 394.5 -145.5 q147.5 -145.5 147.5 -394.5 q0 -215 -139.5 -356.5 q-139.5 -141.5 -378.5 -141.5 q-153 0 -254 58 Z" /></font>
</defs>
</svg>
